<svg width="28" height="28" viewBox="0 0 28 28" fill="none" xmlns="http://www.w3.org/2000/svg">
<path d="M25.7249 2.2739C22.4498 -1.00247 16.8023 -0.70144 13.1773 2.93897C12.0616 4.04795 11.2204 5.40246 10.7209 6.89442C10.5596 7.35436 10.2811 7.76422 9.91288 8.08346C9.54467 8.40269 9.09955 8.62025 8.62152 8.71462C6.57238 9.17351 4.69901 10.2139 3.22598 11.711C-0.776926 15.7154 -1.10584 21.9041 2.52617 25.5025C6.15819 29.1009 12.3235 28.7719 16.3124 24.7674C17.8089 23.2938 18.8489 21.4198 19.3076 19.3698C19.4019 18.8916 19.6194 18.4463 19.9385 18.078C20.2576 17.7096 20.6673 17.431 21.1271 17.2696C22.6185 16.7699 23.9725 15.9285 25.081 14.8123C28.6991 11.1999 29 5.55027 25.7249 2.2739ZM24.7241 3.27501C25.193 3.74406 24.9971 5.09521 24.0243 6.85941L21.1691 4.00309C22.9046 3.02998 24.2693 2.79896 24.7241 3.27501ZM8.54454 15.2814C9.5708 14.3335 10.6971 13.5002 11.9036 12.7961L11.9666 12.7541L15.2347 16.0234L15.1927 16.0865C14.4875 17.2968 13.6547 18.4281 12.7084 19.4608L8.54454 15.2814ZM11.7497 20.483C10.746 21.482 9.64665 22.3801 8.46756 23.1643L4.84255 19.5378C5.62643 18.3583 6.52416 17.2586 7.52282 16.2545L11.7497 20.483ZM13.1493 11.921C13.7478 11.4199 14.271 10.8352 14.7029 10.1848C15.0508 9.64153 15.4317 9.12015 15.8436 8.62361L19.4056 12.187C18.8994 12.5903 18.3689 12.9621 17.817 13.3001C17.1738 13.7359 16.5965 14.2616 16.1025 14.8613L13.1493 11.921ZM16.7533 7.55949C16.9213 7.37747 17.0892 7.19545 17.2712 7.02043C18.0894 6.19415 18.9793 5.44212 19.9304 4.77318L23.2405 8.08455C22.572 9.032 21.8228 9.91975 21.0011 10.7379C20.8262 10.9199 20.6442 11.0879 20.4623 11.2559L16.7533 7.55949ZM22.5547 1.86085C21.7033 2.13229 20.8879 2.50607 20.1264 2.97397L18.6918 1.57382C19.979 1.31315 21.3132 1.41246 22.5477 1.86085H22.5547ZM14.157 3.96109C14.9989 3.11653 16.0037 2.452 17.1102 2.00786L18.9017 3.76506C17.9572 4.44223 17.0701 5.19621 16.2494 6.01932C16.0745 6.20134 15.8995 6.37636 15.7316 6.55838L13.6322 4.45814C13.8351 4.29712 14.0031 4.1151 14.178 3.93308L14.157 3.96109ZM12.0576 7.36347C12.2583 6.77485 12.521 6.20927 12.8414 5.67628L14.8078 7.6505C14.3332 8.22468 13.8916 8.82538 13.4852 9.44971C13.1127 10.012 12.6601 10.5167 12.1416 10.9479L10.574 9.3517C11.2661 8.85034 11.7847 8.14555 12.0576 7.33547V7.36347ZM8.94343 10.1218C9.0414 10.1218 9.14637 10.0728 9.24435 10.0378L10.9519 11.753C9.73377 12.4893 8.5921 13.3453 7.54381 14.3083L5.15746 11.9C6.26923 11.0233 7.56272 10.4062 8.94343 10.0938V10.1218ZM4.10775 12.8661L6.52209 15.2884C5.52822 16.2936 4.62869 17.388 3.83482 18.5577L1.86136 16.5835C2.31633 15.1807 3.08453 13.8998 4.10775 12.8381V12.8661ZM2.00832 22.2892C1.47635 20.9964 1.29762 19.5853 1.49046 18.2007L3.06503 19.7829C2.61148 20.5628 2.2543 21.395 2.00132 22.2612L2.00832 22.2892ZM3.50591 24.5014C3.00205 24.0043 3.156 22.6112 4.10075 20.798L7.2079 23.9063C5.3954 24.8514 4.00277 25.0055 3.50591 24.5014ZM5.7453 26.0066C6.61833 25.7551 7.45733 25.3977 8.24362 24.9425L9.80419 26.5176C8.42985 26.7077 7.0297 26.5314 5.7453 26.0066ZM11.4487 26.1466L9.47528 24.1724C10.6434 23.3766 11.7372 22.4768 12.7434 21.4841L15.1647 23.8993C14.1115 24.9193 12.8411 25.6876 11.4487 26.1466ZM17.908 19.0618C17.5956 20.443 16.9788 21.737 16.1025 22.8492L13.7231 20.462C14.6857 19.4133 15.5414 18.2711 16.2774 17.0526L17.992 18.7608C17.957 18.8588 17.936 18.9638 17.908 19.0618ZM20.6652 15.9464C19.8555 16.2194 19.1509 16.7382 18.6498 17.4306L17.0822 15.8624C17.5132 15.3437 18.0178 14.8909 18.5798 14.5183C19.2039 14.1117 19.8044 13.6699 20.3783 13.1951L22.3518 15.1624C21.819 15.4828 21.2536 15.7457 20.6652 15.9464ZM24.0663 13.8462C23.8844 14.0212 23.7024 14.1892 23.5135 14.3503L21.414 12.25L21.9529 11.732C22.7845 10.9188 23.5475 10.0384 24.2343 9.09967L26.0188 10.8849C25.5732 11.9868 24.909 12.9871 24.0663 13.8252V13.8462ZM25.0251 7.90253C25.4928 7.14076 25.8664 6.32505 26.1377 5.47326C26.599 6.70712 26.7104 8.04448 26.4597 9.33769L25.0251 7.90253Z" fill="#52320A"/>
</svg>
