<svg width="44" height="53" viewBox="0 0 44 53" fill="none" xmlns="http://www.w3.org/2000/svg">
<path d="M14.5676 12.3884C17.7262 12.3884 20.2958 9.80531 20.2958 6.63024C20.2958 3.45517 17.7262 0.87207 14.5676 0.87207C11.4091 0.87207 8.83941 3.45517 8.83941 6.63024C8.83941 9.80531 11.4091 12.3884 14.5676 12.3884ZM14.5676 2.32323C16.9302 2.32323 18.8524 4.25536 18.8524 6.63024C18.8524 9.00512 16.9302 10.9373 14.5676 10.9373C12.205 10.9373 10.2829 9.00512 10.2829 6.63024C10.2829 4.25536 12.205 2.32323 14.5676 2.32323Z" fill="#0D401C"/>
<path d="M43.0986 30.3941C41.7993 28.9618 39.8744 26.6604 38.0065 24.3086C39.2942 22.4051 40.1329 21.1783 40.5641 20.5674C40.5914 20.5288 40.6148 20.4875 40.6341 20.4442C41.5538 18.3808 41.6459 16.4092 39.5017 11.9077C39.4667 11.8341 39.4204 11.7689 39.3659 11.7131C38.2555 9.87916 36.2168 8.74877 33.9913 8.74877C31.7795 8.74877 29.7591 9.86188 28.6438 11.6726C28.5696 11.7367 28.5063 11.8149 28.4621 11.9077C26.3175 16.408 26.4096 18.3799 27.3297 20.4443C27.3492 20.4879 27.3727 20.5295 27.4003 20.5683C27.7751 21.0978 28.4649 22.104 29.4543 23.5644H24.6753C23.7159 23.5644 22.837 23.0367 22.3816 22.1874L19.6219 17.0409C18.7647 15.118 16.844 13.7744 14.6158 13.7744H14.5195C12.5917 13.7744 10.8943 14.7804 9.91612 16.2968L0.208159 30.0652C-0.0223123 30.3921 0.0544108 30.845 0.379578 31.0767C0.506292 31.167 0.652036 31.2104 0.79637 31.2104C1.02241 31.2104 1.24508 31.104 1.38579 30.9044L9.0356 20.055V32.3492C9.0356 33.6087 9.98387 34.6493 11.2003 34.7887V51.9736C11.2003 52.3743 11.5234 52.6991 11.922 52.6991C12.3207 52.6991 12.6438 52.3743 12.6438 51.9736V34.8051H16.4915V51.9736C16.4915 52.3743 16.8146 52.6991 17.2133 52.6991C17.6119 52.6991 17.935 52.3743 17.935 51.9736V34.0796C17.935 33.6788 17.6119 33.354 17.2133 33.354H11.4787C10.9275 33.354 10.479 32.9032 10.479 32.3492V19.287C10.479 18.4921 10.7083 17.7505 11.1025 17.1236L11.331 16.7995C11.3341 16.795 11.3366 16.7903 11.3396 16.7858C12.0799 15.837 13.2297 15.2255 14.5195 15.2255H14.6158C16.1079 15.2255 17.4127 16.0434 18.1125 17.256C18.126 17.299 18.1433 17.3415 18.1654 17.3827L18.3309 17.6913C18.54 18.1814 18.6563 18.7208 18.6563 19.287V31.6789C18.6563 32.0797 18.9794 32.4045 19.378 32.4045C19.7766 32.4045 20.0997 32.0797 20.0997 31.6789V20.99L21.111 22.876C21.8186 24.1957 23.1843 25.0155 24.6753 25.0155H29.3931C27.7075 27.1157 26.0326 29.1073 24.8656 30.3934C24.55 30.7406 24.4701 31.2215 24.6573 31.6483C24.8477 32.0827 25.2815 32.3634 25.7623 32.3634C25.7753 32.3634 25.7885 32.3632 25.8028 32.3627L28.4626 32.2762L28.103 34.967C28.0576 35.3068 28.1545 35.6341 28.3758 35.8884C28.6067 36.1538 28.9442 36.306 29.3019 36.306C29.7081 36.306 30.0712 36.1116 30.2985 35.7726C31.2054 34.4191 32.5518 32.4097 33.9828 30.2794C34.9401 31.7048 35.8592 33.0765 36.6344 34.2333L37.6645 35.7703C37.8929 36.1136 38.2695 36.3058 38.6639 36.3058C38.81 36.3058 38.9586 36.2794 39.1029 36.2246C39.63 36.0243 39.9347 35.5189 39.861 34.9664L39.5002 32.2761L42.1618 32.363C42.6483 32.3787 43.0968 32.1048 43.2977 31.6662C43.4952 31.2351 43.4191 30.7479 43.0986 30.3941ZM33.9913 10.1999C35.6767 10.1999 37.2183 11.029 38.0792 12.3808C38.0772 12.3874 38.075 12.3943 38.0729 12.4011C38.0702 12.4101 38.0674 12.4191 38.0644 12.4285C38.0614 12.4381 38.0581 12.448 38.0548 12.458C38.0518 12.4672 38.0487 12.4766 38.0454 12.4861C38.0418 12.4968 38.0382 12.5076 38.0342 12.5187C38.0309 12.5283 38.0272 12.5384 38.0236 12.5484C38.0161 12.5695 38.008 12.5914 37.9994 12.614C37.9955 12.6244 37.9917 12.6345 37.9876 12.6452C37.9825 12.6583 37.977 12.6721 37.9716 12.6858C37.9672 12.6969 37.9628 12.708 37.9582 12.7195C37.9524 12.7337 37.9465 12.7482 37.9404 12.7629C37.9357 12.7743 37.9307 12.786 37.9258 12.7977C37.9192 12.8135 37.9126 12.8292 37.9055 12.8456C37.9006 12.857 37.8953 12.8689 37.8902 12.8806C37.8769 12.911 37.8629 12.9424 37.8482 12.9749C37.8424 12.9878 37.8366 13.0006 37.8305 13.0138C37.8221 13.0321 37.8133 13.051 37.8044 13.07C37.798 13.0837 37.7915 13.0975 37.7848 13.1116C37.7756 13.131 37.7662 13.1508 37.7565 13.1709C37.7496 13.1851 37.7425 13.1996 37.7355 13.2141C37.7251 13.2353 37.7149 13.2563 37.7041 13.2782C37.6984 13.2897 37.6922 13.3018 37.6864 13.3135C37.6651 13.3561 37.6427 13.4001 37.6194 13.4455C37.6109 13.462 37.6025 13.4783 37.5938 13.4952C37.5816 13.5186 37.5689 13.5427 37.5562 13.5669C37.547 13.5843 37.5377 13.6019 37.5282 13.6197C37.5151 13.6443 37.5019 13.6692 37.4882 13.6946C37.4781 13.7134 37.4676 13.7326 37.4572 13.7518C37.4431 13.7777 37.4292 13.8034 37.4146 13.83C37.4118 13.8351 37.4088 13.8404 37.406 13.8455C37.3724 13.9064 37.337 13.9697 37.3003 14.0346C37.2871 14.0579 37.2741 14.0811 37.2605 14.1048C37.2542 14.1158 37.2476 14.1272 37.2413 14.1384C36.4225 13.3849 35.3296 12.9556 34.1596 12.9556C32.8706 12.9556 31.6821 13.4748 30.8509 14.3603C30.8493 14.3576 30.8477 14.3549 30.8461 14.3521C30.2464 13.3284 29.9942 12.7363 29.8913 12.4021C30.7489 11.0371 32.2948 10.1999 33.9913 10.1999ZM36.4665 15.414C35.8081 16.4494 34.9756 17.6604 33.9816 19.0284C33.0607 17.7585 32.2802 16.6286 31.654 15.6584C32.2093 14.8778 33.1358 14.4068 34.1596 14.4068C35.0645 14.4068 35.8973 14.7773 36.4665 15.414ZM28.6185 19.7866C28.0722 18.5414 27.7818 17.2594 29.063 14.1122C29.1422 14.2667 29.2293 14.4291 29.3227 14.5979C29.3278 14.6072 29.3332 14.6167 29.3384 14.626C29.3794 14.6998 29.4217 14.775 29.4655 14.8516C29.4755 14.8691 29.4858 14.8869 29.4959 14.9046C29.5355 14.9735 29.5762 15.0436 29.6179 15.1147C29.6316 15.138 29.6454 15.1614 29.6593 15.185C29.6981 15.2506 29.738 15.3173 29.7786 15.3848C29.7962 15.4141 29.8136 15.4432 29.8316 15.4728C29.8681 15.5331 29.9058 15.5945 29.9437 15.6562C29.967 15.6941 29.9898 15.7315 30.0137 15.77C30.0381 15.8095 30.0638 15.8501 30.0888 15.8902C30.1237 15.946 30.1577 16.0009 30.1937 16.0579C30.1942 16.0588 30.1949 16.0595 30.1955 16.0604C30.9305 17.2257 31.9026 18.636 33.0832 20.2511C33.0658 20.2744 33.0486 20.2977 33.0312 20.321C32.3661 21.2132 31.65 22.1506 30.8966 23.1158C29.8046 21.5019 29.0394 20.3836 28.6185 19.7866ZM33.3847 28.5771C32.0163 30.6127 30.6797 32.6064 29.6744 34.1067L30.0067 31.6199C30.035 31.4084 29.9692 31.1952 29.8269 31.0368C29.6898 30.8844 29.4952 30.7977 29.2914 30.7977C29.2837 30.7977 29.2759 30.7978 29.2681 30.7981L26.3613 30.8927C27.7457 29.3329 29.5951 27.1038 31.4187 24.7937C32.4052 23.5436 33.3363 22.3315 34.186 21.1916C34.3118 21.0231 34.4375 20.8545 34.564 20.683C34.5663 20.6799 34.5686 20.6768 34.5709 20.6737L34.6481 20.5683C34.7053 20.4905 34.7624 20.4127 34.8136 20.3413C36.1181 18.5644 37.176 17.022 37.9577 15.7575C38.0045 15.682 38.0495 15.6085 38.0936 15.5361C38.108 15.5125 38.1219 15.4896 38.136 15.4663C38.1655 15.4175 38.1946 15.3694 38.2229 15.322C38.2381 15.2967 38.2531 15.2715 38.2679 15.2466C38.2955 15.2002 38.3224 15.1547 38.3488 15.1097C38.3617 15.0879 38.3748 15.0657 38.3874 15.0442C38.4243 14.9809 38.4603 14.9188 38.4949 14.8583C38.5033 14.8435 38.5112 14.8295 38.5195 14.815C38.5461 14.7682 38.5723 14.722 38.5975 14.6769C38.6103 14.6542 38.6225 14.6321 38.6349 14.6099C38.6553 14.5732 38.6753 14.5369 38.6948 14.5013C38.707 14.4791 38.7192 14.4569 38.731 14.435C38.7515 14.3972 38.7714 14.3603 38.7909 14.3237C38.7999 14.3068 38.8092 14.2895 38.818 14.2729C38.845 14.222 38.871 14.1723 38.896 14.1239C38.8977 14.1206 38.8996 14.1171 38.9012 14.1138C40.1816 17.2611 39.8911 18.5424 39.3451 19.7869C38.8632 20.4721 37.937 21.8292 36.5175 23.9293C36.5153 23.9325 36.5132 23.9358 36.511 23.939C35.5716 25.3269 34.4905 26.9306 33.3847 28.5771ZM38.6943 30.798C38.4835 30.7897 38.2777 30.8784 38.1354 31.0367C37.9931 31.1952 37.9274 31.4085 37.9557 31.6201L38.289 34.1051L37.8316 33.4226C36.9686 32.1348 35.9276 30.581 34.8539 28.9831C35.6554 27.7904 36.4375 26.6297 37.1573 25.5644C38.7756 27.5923 40.3721 29.5062 41.6024 30.8928L38.6943 30.798Z" fill="#0D401C"/>
</svg>
