<svg width="20" height="18" viewBox="0 0 20 18" fill="none" xmlns="http://www.w3.org/2000/svg">
<path d="M0.666903 3.16346e-07C0.298573 3.16346e-07 0 0.302209 0 0.675C0 1.04779 0.298573 1.35 0.666903 1.35H2.79266L5.08514 12.2976C5.17584 12.7098 5.44269 13.0527 5.77983 13.05H16.8949C17.2472 13.055 17.5713 12.7317 17.5713 12.375C17.5713 12.0184 17.2472 11.695 16.8949 11.7H6.32169L6.03685 10.35H17.7841C18.0827 10.3477 18.3648 10.1176 18.4301 9.82265L19.9862 3.07265C20.073 2.68091 19.7368 2.25288 19.3402 2.25H4.34876L3.98752 0.534375C3.92441 0.234653 3.63729 -0.000314683 3.33452 3.16346e-07H0.666903ZM4.62664 3.6H18.4996L17.2561 8.99999H5.75898L4.62664 3.6ZM8.00284 13.5C6.78301 13.5 5.77983 14.5153 5.77983 15.75C5.77983 16.9846 6.78301 18 8.00284 18C9.22267 18 10.2258 16.9846 10.2258 15.75C10.2258 14.5154 9.22267 13.5 8.00284 13.5ZM14.6719 13.5C13.452 13.5 12.4489 14.5153 12.4489 15.75C12.4489 16.9846 13.452 18 14.6719 18C15.8917 18 16.8949 16.9846 16.8949 15.75C16.8949 14.5154 15.8917 13.5 14.6719 13.5ZM8.00284 14.85C8.50184 14.85 8.89204 15.2449 8.89204 15.75C8.89204 16.2551 8.50184 16.65 8.00284 16.65C7.50388 16.65 7.11363 16.255 7.11363 15.75C7.11363 15.245 7.50388 14.85 8.00284 14.85ZM14.6719 14.85C15.1709 14.85 15.5611 15.2449 15.5611 15.75C15.5611 16.2551 15.1709 16.65 14.6719 16.65C14.1729 16.65 13.7827 16.255 13.7827 15.75C13.7827 15.245 14.1729 14.85 14.6719 14.85Z" fill="#0D401C"/>
</svg>
