<svg width="52" height="52" viewBox="0 0 52 52" fill="none" xmlns="http://www.w3.org/2000/svg">
<path d="M38.4763 0.722137C38.1728 0.715353 37.8888 0.870957 37.7312 1.13035C34.0549 7.19021 27.6971 13.9945 16.9554 16.0599C10.1605 17.3666 4.84311 20.3368 0.737725 23.8906C0.383177 24.1977 0.344553 24.7339 0.651438 25.0886C0.958517 25.4432 1.49482 25.4818 1.84958 25.1749C5.76099 21.7889 10.7885 18.9771 17.2771 17.7293C28.5788 15.5561 35.3486 8.33759 39.1846 2.01299C39.4288 1.61165 39.301 1.08834 38.8992 0.844755C38.7714 0.767326 38.6257 0.725153 38.4763 0.722137ZM41.5827 1.16353C37.7215 8.22213 30.5189 16.913 17.5961 19.3982C10.1439 20.8312 4.64612 24.465 0.681778 28.5809C0.356389 28.9191 0.366797 29.457 0.70501 29.7823C1.04318 30.1077 1.58106 30.0972 1.90646 29.759C5.67429 25.8468 10.8352 22.4293 17.9185 21.0674C31.4496 18.4652 39.0656 9.30689 43.0733 1.97973C43.2987 1.56824 43.1479 1.05194 42.7364 0.826455C42.2049 0.601066 41.8049 0.801288 41.5827 1.16353ZM46.3237 4.9701C44.926 4.9701 43.7748 6.12134 43.7748 7.51889C43.7748 8.91652 44.926 10.0677 46.3237 10.0677C47.7213 10.0677 48.8725 8.91644 48.8725 7.51889C48.8725 6.12126 47.7213 4.9701 46.3237 4.9701ZM46.3237 6.66927C46.803 6.66927 47.1733 7.03958 47.1733 7.51887C47.1733 7.99815 46.803 8.36846 46.3237 8.36846C45.8444 8.36846 45.474 7.99815 45.474 7.51887C45.474 7.03958 45.8444 6.66927 46.3237 6.66927ZM41.2259 10.0677C39.8283 10.0677 38.6771 11.2189 38.6771 12.6165C38.6771 14.0141 39.8283 15.1653 41.2259 15.1653C42.6236 15.1653 43.7748 14.014 43.7748 12.6165C43.7748 11.2188 42.6236 10.0677 41.2259 10.0677ZM41.2259 11.7668C41.7052 11.7668 42.0756 12.1372 42.0756 12.6164C42.0756 13.0957 41.7052 13.466 41.2259 13.466C40.7466 13.466 40.3763 13.0957 40.3763 12.6164C40.3763 12.1372 40.7466 11.7668 41.2259 11.7668ZM48.8725 11.7668C47.4749 11.7668 46.3237 12.9181 46.3237 14.3156C46.3237 15.7133 47.4749 16.8644 48.8725 16.8644C50.2702 16.8644 51.4214 15.7132 51.4214 14.3156C51.4214 12.918 50.2702 11.7668 48.8725 11.7668ZM48.8725 13.466C49.3518 13.466 49.7222 13.8363 49.7222 14.3156C49.7222 14.7949 49.3518 15.1652 48.8725 15.1652C48.3932 15.1652 48.0229 14.7949 48.0229 14.3156C48.0229 13.8363 48.3932 13.466 48.8725 13.466ZM37.8274 16.8644C31.2682 16.8644 25.9327 22.1998 25.9327 28.7592C25.9327 30.4318 26.2837 32.022 26.9101 33.4668C17.673 37.3425 12.0451 44.495 8.79271 50.4406C8.56729 50.8521 8.7181 51.3684 9.12957 51.5939C9.54107 51.8193 10.0574 51.6685 10.2829 51.2571C14.1441 44.1985 21.3467 35.5076 34.2694 33.0224C41.7217 31.5894 47.2194 27.9556 51.1838 23.8397C51.5091 23.5015 51.4987 22.9636 51.1605 22.6383C50.8224 22.3129 50.2845 22.3233 49.9591 22.6615C49.552 23.0843 49.125 23.4985 48.6846 23.9078C46.8245 19.7616 42.6583 16.8654 37.8273 16.8654L37.8274 16.8644ZM37.8274 18.5636C42.1724 18.5636 45.8702 21.2671 47.3407 25.0866C43.8913 27.9394 39.5153 30.2817 33.9472 31.3524C32.0073 31.7254 30.1928 32.2363 28.4894 32.8541C27.9402 31.6009 27.6314 30.2174 27.6314 28.7587C27.6314 23.118 32.1865 18.5636 37.8274 18.5636ZM21.6846 22.8116C20.2869 22.8116 19.1357 23.9629 19.1357 25.3604C19.1357 26.758 20.2869 27.9092 21.6846 27.9092C23.0822 27.9092 24.2334 26.7579 24.2334 25.3604C24.2334 23.9628 23.0822 22.8116 21.6846 22.8116ZM21.6846 24.5108C22.1639 24.5108 22.5342 24.8811 22.5342 25.3604C22.5342 25.8397 22.1639 26.21 21.6846 26.21C21.2053 26.21 20.8349 25.8397 20.8349 25.3604C20.8349 24.8811 21.2053 24.5108 21.6846 24.5108ZM50.4112 27.0529C50.265 27.0814 50.1288 27.1477 50.0163 27.2454C46.1049 30.6314 41.0774 33.4433 34.5888 34.691C23.2871 36.8643 16.5173 44.0828 12.6812 50.4074C12.437 50.8087 12.5649 51.332 12.9667 51.5756C13.368 51.8198 13.8914 51.692 14.1349 51.2902C17.8112 45.2303 24.169 38.426 34.9108 36.3606C41.7056 35.054 47.023 32.0838 51.1284 28.5299C51.4829 28.2229 51.5216 27.6866 51.2147 27.3319C51.016 27.1021 50.7095 26.9956 50.4112 27.0529ZM4.69209 32.1572C3.29446 32.1572 2.14322 33.3085 2.14322 34.706C2.14322 36.1036 3.29446 37.2548 4.69209 37.2548C6.08972 37.2548 7.24096 36.1036 7.24096 34.706C7.24096 33.3084 6.08972 32.1572 4.69209 32.1572ZM15.7372 32.1572C14.3396 32.1572 13.1883 33.3085 13.1883 34.706C13.1883 36.1036 14.3396 37.2548 15.7372 37.2548C17.1348 37.2548 18.2861 36.1036 18.2861 34.706C18.2861 33.3084 17.1348 32.1572 15.7372 32.1572ZM4.69209 33.8564C5.17139 33.8564 5.54171 34.2267 5.54171 34.706C5.54171 35.1853 5.17139 35.5556 4.69209 35.5556C4.21279 35.5556 3.84246 35.1853 3.84246 34.706C3.84246 34.2267 4.21279 33.8564 4.69209 33.8564ZM15.7372 33.8564C16.2165 33.8564 16.5868 34.2267 16.5868 34.706C16.5868 35.1853 16.2165 35.5556 15.7372 35.5556C15.2579 35.5556 14.8876 35.1853 14.8876 34.706C14.8876 34.2267 15.2579 33.8564 15.7372 33.8564Z" fill="#0D401C"/>
</svg>
