<svg width="60" height="60" viewBox="0 0 60 60" fill="none" xmlns="http://www.w3.org/2000/svg">
<path d="M30 0H29.94C13.4 0.03 -0.0299498 13.515 5.01628e-05 30.06C0.0150501 38.075 3.15004 45.6 8.83003 51.255C14.495 56.895 22.01 60 30 60H30.06C46.6 59.97 60.0349 46.485 59.9999 29.94C59.9699 13.42 46.515 0 30 0ZM30.055 58H30C22.875 58 16.16 55.35 10.965 50.525L17.49 43.97C17.88 43.58 17.88 42.945 17.49 42.555C17.1 42.165 16.465 42.165 16.075 42.555L9.55003 49.11C4.69004 43.92 2.01505 37.195 2.00005 30.05C1.97005 14.61 14.505 2.025 29.945 1.995H30C37.34 1.995 44.025 4.84 49.025 9.48L40.275 18.26C39.885 18.65 39.885 19.285 40.275 19.675C40.47 19.87 40.725 19.965 40.98 19.965C41.235 19.965 41.495 19.865 41.69 19.67L50.4399 10.89C55.1099 15.885 57.9849 22.58 57.9949 29.94C58.0249 45.38 45.49 57.965 30.05 57.995L30.055 58ZM42.35 27.19C42.35 27.13 42.36 27.07 42.36 27.01C42.36 23.33 39.365 20.335 35.68 20.335C34.91 20.335 34.15 20.47 33.425 20.73C32.38 18.335 30.01 16.75 27.315 16.75C24.29 16.75 21.66 18.83 20.88 21.665C20.445 21.575 20 21.53 19.55 21.53C15.865 21.53 12.87 24.525 12.87 28.205C12.87 30.905 14.46 33.275 16.85 34.315C16.59 35.04 16.455 35.8 16.455 36.575C16.455 40.255 19.45 43.25 23.135 43.25C25.17 43.25 27.05 42.34 28.31 40.785C28.925 40.965 29.56 41.065 30.205 41.065C32.4 41.065 34.43 39.97 35.665 38.225C36.91 39.505 38.635 40.26 40.46 40.26C44.145 40.26 47.14 37.265 47.14 33.585C47.14 30.61 45.135 28.015 42.35 27.19ZM40.36 27.01C40.36 27.27 40.34 27.53 40.295 27.8C40.27 27.935 40.245 28.065 40.21 28.195C40.2 28.24 40.185 28.285 40.17 28.325C40.145 28.41 40.12 28.495 40.09 28.575C40.07 28.625 40.05 28.675 40.03 28.725C40 28.8 39.97 28.87 39.94 28.945C39.915 28.995 39.89 29.045 39.865 29.095C39.83 29.16 39.8 29.23 39.76 29.295C39.73 29.345 39.705 29.395 39.675 29.445C39.635 29.51 39.6 29.57 39.555 29.63C39.525 29.675 39.49 29.725 39.46 29.77C39.415 29.83 39.37 29.885 39.325 29.945C39.29 29.99 39.255 30.03 39.22 30.075C39.17 30.13 39.12 30.185 39.07 30.24C39.035 30.28 38.995 30.32 38.955 30.355C38.9 30.41 38.845 30.46 38.785 30.51C38.745 30.545 38.71 30.58 38.67 30.61C38.605 30.665 38.535 30.715 38.47 30.765C38.435 30.79 38.405 30.82 38.365 30.845C38.26 30.92 38.155 30.985 38.045 31.05C38.03 31.06 38.01 31.065 37.995 31.075C37.9 31.13 37.8 31.18 37.7 31.23C37.655 31.25 37.615 31.27 37.57 31.285C37.495 31.32 37.42 31.35 37.345 31.38C37.295 31.4 37.24 31.415 37.19 31.435C37.12 31.46 37.045 31.485 36.975 31.505C36.92 31.52 36.865 31.535 36.805 31.55C36.735 31.57 36.66 31.585 36.59 31.6C36.53 31.61 36.47 31.62 36.415 31.63C36.375 31.635 36.335 31.64 36.295 31.645C36.21 31.455 36.115 31.27 36.015 31.095C35.895 30.885 35.765 30.685 35.62 30.49C35.6 30.465 35.585 30.44 35.565 30.41C35.43 30.23 35.285 30.055 35.135 29.89C35.105 29.86 35.08 29.83 35.05 29.8C34.895 29.64 34.74 29.485 34.57 29.34C34.54 29.315 34.51 29.29 34.475 29.265C34.3 29.12 34.125 28.985 33.94 28.86C33.92 28.845 33.895 28.835 33.875 28.82C33.695 28.705 33.515 28.595 33.325 28.495C33.295 28.48 33.265 28.46 33.235 28.445C33.04 28.345 32.845 28.26 32.64 28.18C32.595 28.16 32.545 28.14 32.5 28.125C32.3 28.05 32.1 27.99 31.895 27.935C31.845 27.92 31.795 27.91 31.745 27.9C31.535 27.85 31.32 27.81 31.105 27.78C31.095 27.78 31.085 27.78 31.075 27.775C31.065 27.73 31.055 27.685 31.05 27.64C31.045 27.595 31.04 27.55 31.035 27.505C31.02 27.345 31.005 27.18 31.005 27.015C31.005 26.805 31.02 26.6 31.045 26.4C31.075 26.16 31.13 25.93 31.2 25.705C31.535 24.57 32.29 23.585 33.335 22.975C34.05 22.56 34.86 22.345 35.68 22.345C38.26 22.345 40.36 24.44 40.36 27.02V27.01ZM27.315 18.75C29.26 18.75 30.96 19.925 31.66 21.685C31.655 21.69 31.645 21.695 31.64 21.7C31.46 21.84 31.29 21.985 31.125 22.14C31.095 22.17 31.065 22.195 31.035 22.225C30.875 22.38 30.725 22.54 30.585 22.71C30.56 22.74 30.535 22.775 30.505 22.805C30.365 22.98 30.23 23.16 30.105 23.345C30.09 23.365 30.08 23.39 30.065 23.41C29.945 23.6 29.83 23.795 29.73 23.995C29.72 24.01 29.715 24.025 29.705 24.04C29.605 24.245 29.515 24.455 29.435 24.67C29.42 24.705 29.41 24.74 29.395 24.775C29.32 24.985 29.255 25.195 29.205 25.415C29.195 25.455 29.185 25.495 29.175 25.535C29.125 25.755 29.085 25.975 29.055 26.2C29.055 26.23 29.05 26.265 29.045 26.295C29.02 26.53 29.005 26.77 29.005 27.01C29.005 27.265 29.02 27.52 29.05 27.775C28.975 27.805 28.9 27.835 28.82 27.86C28.795 27.865 28.77 27.875 28.745 27.88C28.59 27.93 28.445 27.97 28.305 28C28.29 28 28.275 28 28.26 28.01C27.575 28.15 26.88 28.135 26.225 27.975C26.225 27.92 26.215 27.865 26.215 27.815C26.215 27.75 26.21 27.685 26.2 27.62C26.19 27.52 26.18 27.425 26.165 27.325C26.155 27.265 26.15 27.205 26.14 27.15C26.12 27.035 26.1 26.925 26.075 26.81C26.065 26.77 26.06 26.73 26.05 26.69C26.015 26.54 25.975 26.39 25.93 26.24C25.92 26.205 25.905 26.17 25.895 26.135C25.86 26.025 25.82 25.91 25.78 25.8C25.76 25.75 25.74 25.7 25.72 25.65C25.68 25.555 25.64 25.465 25.6 25.375C25.575 25.32 25.55 25.27 25.525 25.22C25.48 25.135 25.435 25.045 25.39 24.96C25.36 24.91 25.335 24.86 25.305 24.81C25.255 24.725 25.2 24.64 25.145 24.555C25.115 24.51 25.085 24.465 25.055 24.42C24.995 24.33 24.925 24.24 24.86 24.155C24.835 24.12 24.81 24.085 24.78 24.05C24.69 23.935 24.595 23.82 24.495 23.715C24.495 23.715 24.485 23.705 24.485 23.7C24.375 23.58 24.265 23.47 24.145 23.36C24.13 23.345 24.115 23.335 24.1 23.32C24 23.23 23.9 23.14 23.79 23.05C23.755 23.025 23.725 23 23.69 22.97C23.6 22.9 23.51 22.83 23.415 22.765C23.375 22.735 23.335 22.71 23.29 22.68C23.2 22.62 23.11 22.56 23.015 22.505C22.97 22.48 22.925 22.45 22.88 22.425C22.84 22.405 22.805 22.38 22.77 22.36C23.26 20.295 25.145 18.755 27.32 18.755L27.315 18.75ZM14.87 28.205C14.87 25.625 16.97 23.53 19.55 23.53C20.145 23.53 20.735 23.64 21.285 23.865C23.07 24.58 24.225 26.285 24.225 28.205C24.225 28.34 24.225 28.475 24.21 28.615C24.15 29.31 23.945 29.965 23.595 30.555C22.765 31.995 21.215 32.885 19.55 32.885C19.18 32.885 18.81 32.84 18.45 32.75C16.34 32.25 14.87 30.38 14.87 28.205ZM23.135 41.25C20.555 41.25 18.455 39.155 18.455 36.575C18.455 35.98 18.57 35.39 18.79 34.84C19.04 34.87 19.295 34.885 19.555 34.885C19.725 34.885 19.89 34.875 20.06 34.865C20.11 34.865 20.165 34.855 20.215 34.85C20.33 34.84 20.45 34.825 20.565 34.805C20.62 34.795 20.68 34.785 20.735 34.775C20.85 34.755 20.965 34.73 21.075 34.705C21.125 34.695 21.175 34.68 21.225 34.67C21.38 34.63 21.53 34.585 21.68 34.535C21.685 34.535 21.695 34.535 21.7 34.53C21.86 34.475 22.015 34.415 22.165 34.35C22.205 34.33 22.245 34.315 22.285 34.295C22.395 34.245 22.505 34.19 22.615 34.135C22.66 34.11 22.705 34.085 22.75 34.06C22.855 34 22.96 33.94 23.065 33.875C23.105 33.85 23.145 33.825 23.18 33.8C23.315 33.71 23.45 33.62 23.575 33.525C23.575 33.525 23.575 33.525 23.58 33.52C23.57 33.61 23.56 33.7 23.555 33.79C23.555 33.84 23.545 33.885 23.54 33.935C23.53 34.085 23.525 34.235 23.525 34.39C23.525 34.64 23.545 34.89 23.57 35.135C23.57 35.18 23.58 35.225 23.585 35.265C23.615 35.5 23.66 35.73 23.715 35.96C23.725 36.005 23.74 36.045 23.75 36.09C23.81 36.325 23.88 36.555 23.97 36.78C23.97 36.785 23.975 36.79 23.975 36.795C24.06 37.015 24.16 37.23 24.27 37.44C24.29 37.475 24.305 37.515 24.325 37.55C24.435 37.755 24.555 37.95 24.685 38.145C24.71 38.185 24.74 38.22 24.765 38.26C24.9 38.455 25.045 38.64 25.205 38.82C25.215 38.83 25.225 38.845 25.24 38.855C25.39 39.025 25.555 39.185 25.725 39.34C25.755 39.37 25.79 39.4 25.82 39.43C25.995 39.58 26.175 39.725 26.37 39.86C26.39 39.875 26.405 39.89 26.425 39.9C25.56 40.76 24.385 41.255 23.13 41.255L23.135 41.25ZM30.205 39.065C29.56 39.065 28.935 38.935 28.34 38.68C26.635 37.935 25.53 36.25 25.53 34.39C25.53 33.505 25.775 32.645 26.245 31.9C26.825 30.985 27.695 30.3 28.7 29.96C28.895 29.92 29.09 29.87 29.295 29.8C29.59 29.74 29.895 29.71 30.2 29.71H30.25C31.91 29.725 33.45 30.635 34.275 32.085C34.435 32.36 34.565 32.66 34.665 32.985C34.805 33.43 34.88 33.9 34.88 34.38C34.88 34.94 34.78 35.495 34.58 36.025C33.895 37.835 32.135 39.055 30.195 39.055L30.205 39.065ZM40.46 38.26C38.925 38.26 37.49 37.5 36.62 36.25C36.62 36.235 36.63 36.215 36.63 36.2C36.645 36.145 36.655 36.095 36.67 36.04C36.7 35.915 36.73 35.79 36.755 35.665C36.765 35.6 36.78 35.54 36.79 35.475C36.81 35.35 36.825 35.225 36.84 35.105C36.845 35.05 36.855 34.99 36.86 34.935C36.875 34.755 36.885 34.575 36.885 34.395C36.885 34.155 36.87 33.92 36.845 33.68C36.845 33.65 36.845 33.62 36.84 33.595C36.85 33.595 36.855 33.595 36.86 33.595C36.89 33.59 36.92 33.58 36.95 33.575C37.095 33.545 37.24 33.515 37.385 33.475C37.44 33.46 37.49 33.445 37.545 33.43C37.67 33.395 37.795 33.355 37.915 33.31C37.965 33.295 38.01 33.275 38.06 33.26C38.39 33.135 38.71 32.985 39.015 32.81C39.055 32.79 39.09 32.765 39.13 32.74C39.245 32.67 39.36 32.595 39.47 32.52C39.51 32.495 39.545 32.47 39.585 32.44C39.715 32.345 39.84 32.25 39.965 32.145C39.975 32.135 39.985 32.13 40 32.12C40.14 32.005 40.27 31.88 40.4 31.75C40.42 31.73 40.435 31.715 40.455 31.695C40.565 31.585 40.665 31.47 40.765 31.355C40.79 31.325 40.815 31.3 40.835 31.27C40.935 31.145 41.035 31.02 41.125 30.89C41.135 30.875 41.145 30.86 41.16 30.845C41.37 30.545 41.555 30.225 41.715 29.885C41.73 29.855 41.74 29.825 41.755 29.795C41.82 29.65 41.88 29.505 41.935 29.355C41.945 29.325 41.955 29.3 41.965 29.275C41.975 29.245 41.99 29.215 42 29.18C43.835 29.825 45.135 31.585 45.135 33.595C45.135 36.175 43.035 38.27 40.455 38.27L40.46 38.26Z" fill="white"/>
</svg>
