<svg width="49" height="49" viewBox="0 0 49 49" fill="none" xmlns="http://www.w3.org/2000/svg">
<path d="M48.3875 47.775H46.7067V13.2537C46.7067 12.9154 46.4328 12.6412 46.0942 12.6412H40.4364V0.6125C40.4364 0.274249 40.1624 0 39.8239 0H23.4778C23.1392 0 22.8653 0.274249 22.8653 0.6125V25.3374H20.2873V5.67938C20.2873 5.34113 20.0133 5.06688 19.6748 5.06688H2.90579C2.56724 5.06688 2.29329 5.34113 2.29329 5.67938V47.775H0.6125C0.27395 47.775 0 48.0493 0 48.3875C0 48.7257 0.27395 49 0.6125 49H48.3875C48.7261 49 49 48.7257 49 48.3875C49 48.0493 48.7261 47.775 48.3875 47.775ZM45.4817 47.775H35.6398V13.8662H45.4817V47.775ZM3.51829 30.3361H12.4713V41.1963H3.51829V30.3361ZM13.6963 26.5624H28.8533V47.775H13.6963V26.5624ZM34.4148 41.1963H30.0783V30.3361H34.4148V41.1963ZM30.0783 42.4213H34.4148V47.775H30.0783V42.4213ZM24.0903 1.225H39.2114V12.6412H36.6663V11.1835C36.6663 10.8453 36.3923 10.571 36.0538 10.571C35.7152 10.571 35.4413 10.8453 35.4413 11.1835V12.6412H35.0273C34.6888 12.6412 34.4148 12.9154 34.4148 13.2537V29.1111H30.0783V25.9499C30.0783 25.6117 29.8043 25.3374 29.4658 25.3374H24.0903V1.225ZM19.0623 6.29188V25.3374H13.0838C12.7453 25.3374 12.4713 25.6117 12.4713 25.9499V29.1111H3.51829V6.29188H19.0623ZM3.51829 42.4213H12.4713V47.775H3.51829V42.4213Z" fill="#F8C32C"/>
<path d="M16.8547 30.6332C16.5161 30.6332 16.2422 30.9074 16.2422 31.2457V33.1466C16.2422 33.4848 16.5161 33.7591 16.8547 33.7591C17.1932 33.7591 17.4672 33.4848 17.4672 33.1466V31.2457C17.4672 30.9074 17.1932 30.6332 16.8547 30.6332Z" fill="#F8C32C"/>
<path d="M21.2746 30.6332C20.9361 30.6332 20.6621 30.9074 20.6621 31.2457V33.1466C20.6621 33.4848 20.9361 33.7591 21.2746 33.7591C21.6132 33.7591 21.8871 33.4848 21.8871 33.1466V31.2457C21.8871 30.9074 21.6132 30.6332 21.2746 30.6332Z" fill="#F8C32C"/>
<path d="M25.6945 30.6332C25.356 30.6332 25.082 30.9074 25.082 31.2457V33.1466C25.082 33.4848 25.356 33.7591 25.6945 33.7591C26.0331 33.7591 26.307 33.4848 26.307 33.1466V31.2457C26.307 30.9074 26.0331 30.6332 25.6945 30.6332Z" fill="#F8C32C"/>
<path d="M16.8547 35.6057C16.5161 35.6057 16.2422 35.88 16.2422 36.2182V38.1191C16.2422 38.4574 16.5161 38.7316 16.8547 38.7316C17.1932 38.7316 17.4672 38.4574 17.4672 38.1191V36.2182C17.4672 35.88 17.1932 35.6057 16.8547 35.6057Z" fill="#F8C32C"/>
<path d="M21.2746 35.6057C20.9361 35.6057 20.6621 35.88 20.6621 36.2182V38.1191C20.6621 38.4574 20.9361 38.7316 21.2746 38.7316C21.6132 38.7316 21.8871 38.4574 21.8871 38.1191V36.2182C21.8871 35.88 21.6132 35.6057 21.2746 35.6057Z" fill="#F8C32C"/>
<path d="M25.6945 35.6057C25.356 35.6057 25.082 35.88 25.082 36.2182V38.1191C25.082 38.4574 25.356 38.7316 25.6945 38.7316C26.0331 38.7316 26.307 38.4574 26.307 38.1191V36.2182C26.307 35.88 26.0331 35.6057 25.6945 35.6057Z" fill="#F8C32C"/>
<path d="M16.8547 40.5781C16.5161 40.5781 16.2422 40.8524 16.2422 41.1906V43.0918C16.2422 43.4301 16.5161 43.7043 16.8547 43.7043C17.1932 43.7043 17.4672 43.4301 17.4672 43.0918V41.1906C17.4672 40.8524 17.1932 40.5781 16.8547 40.5781Z" fill="#F8C32C"/>
<path d="M21.2746 40.5781C20.9361 40.5781 20.6621 40.8524 20.6621 41.1906V43.0918C20.6621 43.4301 20.9361 43.7043 21.2746 43.7043C21.6132 43.7043 21.8871 43.4301 21.8871 43.0918V41.1906C21.8871 40.8524 21.6132 40.5781 21.2746 40.5781Z" fill="#F8C32C"/>
<path d="M25.6945 40.5781C25.356 40.5781 25.082 40.8524 25.082 41.1906V43.0918C25.082 43.4301 25.356 43.7043 25.6945 43.7043C26.0331 43.7043 26.307 43.4301 26.307 43.0918V41.1906C26.307 40.8524 26.0331 40.5781 25.6945 40.5781Z" fill="#F8C32C"/>
<path d="M6.87031 13.6245C7.20886 13.6245 7.48281 13.3502 7.48281 13.012V11.1108C7.48281 10.7725 7.20886 10.4983 6.87031 10.4983C6.53176 10.4983 6.25781 10.7725 6.25781 11.1108V13.012C6.25781 13.3502 6.53176 13.6245 6.87031 13.6245Z" fill="#F8C32C"/>
<path d="M11.2893 13.6245C11.6278 13.6245 11.9018 13.3502 11.9018 13.012V11.1108C11.9018 10.7725 11.6278 10.4983 11.2893 10.4983C10.9507 10.4983 10.6768 10.7725 10.6768 11.1108V13.012C10.6768 13.3502 10.9507 13.6245 11.2893 13.6245Z" fill="#F8C32C"/>
<path d="M15.7092 13.6245C16.0477 13.6245 16.3217 13.3502 16.3217 13.012V11.1108C16.3217 10.7725 16.0477 10.4983 15.7092 10.4983C15.3706 10.4983 15.0967 10.7725 15.0967 11.1108V13.012C15.0967 13.3502 15.3706 13.6245 15.7092 13.6245Z" fill="#F8C32C"/>
<path d="M6.87031 18.597C7.20886 18.597 7.48281 18.3227 7.48281 17.9845V16.0836C7.48281 15.7453 7.20886 15.4711 6.87031 15.4711C6.53176 15.4711 6.25781 15.7453 6.25781 16.0836V17.9845C6.25781 18.3227 6.53176 18.597 6.87031 18.597Z" fill="#F8C32C"/>
<path d="M11.2893 18.597C11.6278 18.597 11.9018 18.3227 11.9018 17.9845V16.0836C11.9018 15.7453 11.6278 15.4711 11.2893 15.4711C10.9507 15.4711 10.6768 15.7453 10.6768 16.0836V17.9845C10.6768 18.3227 10.9507 18.597 11.2893 18.597Z" fill="#F8C32C"/>
<path d="M15.7092 18.597C16.0477 18.597 16.3217 18.3227 16.3217 17.9845V16.0836C16.3217 15.7453 16.0477 15.4711 15.7092 15.4711C15.3706 15.4711 15.0967 15.7453 15.0967 16.0836V17.9845C15.0967 18.3227 15.3706 18.597 15.7092 18.597Z" fill="#F8C32C"/>
<path d="M6.87031 23.5695C7.20886 23.5695 7.48281 23.2953 7.48281 22.957V21.0561C7.48281 20.7179 7.20886 20.4436 6.87031 20.4436C6.53176 20.4436 6.25781 20.7179 6.25781 21.0561V22.957C6.25781 23.2953 6.53176 23.5695 6.87031 23.5695Z" fill="#F8C32C"/>
<path d="M11.2893 23.5695C11.6278 23.5695 11.9018 23.2953 11.9018 22.957V21.0561C11.9018 20.7179 11.6278 20.4436 11.2893 20.4436C10.9507 20.4436 10.6768 20.7179 10.6768 21.0561V22.957C10.6768 23.2953 10.9507 23.5695 11.2893 23.5695Z" fill="#F8C32C"/>
<path d="M15.7092 23.5695C16.0477 23.5695 16.3217 23.2953 16.3217 22.957V21.0561C16.3217 20.7179 16.0477 20.4436 15.7092 20.4436C15.3706 20.4436 15.0967 20.7179 15.0967 21.0561V22.957C15.0967 23.2953 15.3706 23.5695 15.7092 23.5695Z" fill="#F8C32C"/>
<path d="M27.215 5.59839C26.8765 5.59839 26.6025 5.87264 26.6025 6.21089V8.11209C26.6025 8.45034 26.8765 8.72459 27.215 8.72459C27.5536 8.72459 27.8275 8.45034 27.8275 8.11209V6.21089C27.8275 5.87264 27.5536 5.59839 27.215 5.59839Z" fill="#F8C32C"/>
<path d="M31.634 8.72459C31.9725 8.72459 32.2465 8.45034 32.2465 8.11209V6.21089C32.2465 5.87264 31.9725 5.59839 31.634 5.59839C31.2954 5.59839 31.0215 5.87264 31.0215 6.21089V8.11209C31.0215 8.45034 31.2954 8.72459 31.634 8.72459Z" fill="#F8C32C"/>
<path d="M36.0539 8.72459C36.3925 8.72459 36.6664 8.45034 36.6664 8.11209V6.21089C36.6664 5.87264 36.3925 5.59839 36.0539 5.59839C35.7154 5.59839 35.4414 5.87264 35.4414 6.21089V8.11209C35.4414 8.45034 35.7154 8.72459 36.0539 8.72459Z" fill="#F8C32C"/>
<path d="M27.215 10.571C26.8765 10.571 26.6025 10.8453 26.6025 11.1835V13.0844C26.6025 13.4227 26.8765 13.6969 27.215 13.6969C27.5536 13.6969 27.8275 13.4227 27.8275 13.0844V11.1835C27.8275 10.8453 27.5536 10.571 27.215 10.571Z" fill="#F8C32C"/>
<path d="M31.634 13.6969C31.9725 13.6969 32.2465 13.4227 32.2465 13.0844V11.1835C32.2465 10.8453 31.9725 10.571 31.634 10.571C31.2954 10.571 31.0215 10.8453 31.0215 11.1835V13.0844C31.0215 13.4227 31.2954 13.6969 31.634 13.6969Z" fill="#F8C32C"/>
<path d="M27.215 15.5436C26.8765 15.5436 26.6025 15.8178 26.6025 16.1561V18.057C26.6025 18.3952 26.8765 18.6695 27.215 18.6695C27.5536 18.6695 27.8275 18.3952 27.8275 18.057V16.1561C27.8275 15.8178 27.5536 15.5436 27.215 15.5436Z" fill="#F8C32C"/>
<path d="M31.634 18.6695C31.9725 18.6695 32.2465 18.3952 32.2465 18.057V16.1561C32.2465 15.8178 31.9725 15.5436 31.634 15.5436C31.2954 15.5436 31.0215 15.8178 31.0215 16.1561V18.057C31.0215 18.3952 31.2954 18.6695 31.634 18.6695Z" fill="#F8C32C"/>
<path d="M27.215 20.4436C26.8765 20.4436 26.6025 20.7179 26.6025 21.0561V22.957C26.6025 23.2953 26.8765 23.5695 27.215 23.5695C27.5536 23.5695 27.8275 23.2953 27.8275 22.957V21.0561C27.8275 20.7179 27.5536 20.4436 27.215 20.4436Z" fill="#F8C32C"/>
<path d="M31.634 23.5695C31.9725 23.5695 32.2465 23.2953 32.2465 22.957V21.0561C32.2465 20.7179 31.9725 20.4436 31.634 20.4436C31.2954 20.4436 31.0215 20.7179 31.0215 21.0561V22.957C31.0215 23.2953 31.2954 23.5695 31.634 23.5695Z" fill="#F8C32C"/>
<path d="M38.8801 21.2076C39.2186 21.2076 39.4926 20.9333 39.4926 20.5951V18.6942C39.4926 18.3559 39.2186 18.0817 38.8801 18.0817C38.5415 18.0817 38.2676 18.3559 38.2676 18.6942V20.5951C38.2676 20.9333 38.5415 21.2076 38.8801 21.2076Z" fill="#F8C32C"/>
<path d="M42.2395 21.2076C42.578 21.2076 42.852 20.9333 42.852 20.5951V18.6942C42.852 18.3559 42.578 18.0817 42.2395 18.0817C41.9009 18.0817 41.627 18.3559 41.627 18.6942V20.5951C41.627 20.9333 41.9009 21.2076 42.2395 21.2076Z" fill="#F8C32C"/>
<path d="M38.8801 27.5987C39.2186 27.5987 39.4926 27.3245 39.4926 26.9862V25.085C39.4926 24.7468 39.2186 24.4725 38.8801 24.4725C38.5415 24.4725 38.2676 24.7468 38.2676 25.085V26.9862C38.2676 27.3245 38.5415 27.5987 38.8801 27.5987Z" fill="#F8C32C"/>
<path d="M42.2395 27.5987C42.578 27.5987 42.852 27.3245 42.852 26.9862V25.085C42.852 24.7468 42.578 24.4725 42.2395 24.4725C41.9009 24.4725 41.627 24.7468 41.627 25.085V26.9862C41.627 27.3245 41.9009 27.5987 42.2395 27.5987Z" fill="#F8C32C"/>
<path d="M38.8801 33.9896C39.2186 33.9896 39.4926 33.7154 39.4926 33.3771V31.4759C39.4926 31.1377 39.2186 30.8634 38.8801 30.8634C38.5415 30.8634 38.2676 31.1377 38.2676 31.4759V33.3771C38.2676 33.7154 38.5415 33.9896 38.8801 33.9896Z" fill="#F8C32C"/>
<path d="M42.2395 33.9896C42.578 33.9896 42.852 33.7154 42.852 33.3771V31.4759C42.852 31.1377 42.578 30.8634 42.2395 30.8634C41.9009 30.8634 41.627 31.1377 41.627 31.4759V33.3771C41.627 33.7154 41.9009 33.9896 42.2395 33.9896Z" fill="#F8C32C"/>
<path d="M38.8801 40.3805C39.2186 40.3805 39.4926 40.1062 39.4926 39.768V37.8668C39.4926 37.5285 39.2186 37.2543 38.8801 37.2543C38.5415 37.2543 38.2676 37.5285 38.2676 37.8668V39.768C38.2676 40.1062 38.5415 40.3805 38.8801 40.3805Z" fill="#F8C32C"/>
<path d="M42.2395 40.3805C42.578 40.3805 42.852 40.1062 42.852 39.768V37.8668C42.852 37.5285 42.578 37.2543 42.2395 37.2543C41.9009 37.2543 41.627 37.5285 41.627 37.8668V39.768C41.627 40.1062 41.9009 40.3805 42.2395 40.3805Z" fill="#F8C32C"/>
</svg>
