<svg width="14" height="14" viewBox="0 0 14 14" fill="none" xmlns="http://www.w3.org/2000/svg">
<path d="M13.7722 0.227772C13.4686 -0.0759239 12.9762 -0.0759239 12.6725 0.227772L6.99999 5.90025L1.32753 0.227772C1.02385 -0.0759239 0.53146 -0.0759239 0.227772 0.227772C-0.075924 0.531459 -0.075924 1.02384 0.227772 1.32753L5.90024 7L0.227788 12.6724C-0.0759084 12.9762 -0.0759084 13.4685 0.227788 13.7722C0.531476 14.0759 1.02386 14.0759 1.32755 13.7722L6.99999 8.09976L12.6725 13.7722C12.9762 14.0759 13.4686 14.0759 13.7722 13.7722C14.0759 13.4685 14.0759 12.9762 13.7722 12.6725L8.09975 7L13.7722 1.32753C14.0759 1.02384 14.0759 0.531459 13.7722 0.227772Z" fill="#0D401C"/>
</svg>
