<svg width="24" height="24" viewBox="0 0 24 24" fill="none" xmlns="http://www.w3.org/2000/svg">
<path d="M16.7416 15.397L16.1342 16.0363C16.1342 16.0363 14.6908 17.556 10.7508 13.4078C6.81082 9.2598 8.25426 7.74012 8.25426 7.74012L8.63666 7.33749C9.57879 6.34567 9.66759 4.75329 8.84559 3.5908L7.16434 1.21282C6.14703 -0.226001 4.18127 -0.416067 3.01526 0.811522L0.922463 3.01486C0.344304 3.62355 -0.0431357 4.41261 0.00385093 5.28793C0.124051 7.52729 1.08094 12.3455 6.42047 17.967C12.0828 23.9283 17.3957 24.1652 19.5684 23.9508C20.2556 23.883 20.8532 23.5124 21.3348 23.0053L23.2289 21.0113C24.5074 19.6652 24.1469 17.3575 22.511 16.416L19.9637 14.9498C18.8896 14.3316 17.581 14.5131 16.7416 15.397Z" fill="#F8C32C"/>
</svg>
