<svg width="24" height="24" viewBox="0 0 24 24" fill="none" xmlns="http://www.w3.org/2000/svg">
<path d="M24 1.5V7.5L12 13.5L0 7.5V1.5C0 1.10218 0.126428 0.720645 0.351472 0.43934C0.576515 0.158036 0.88174 0 1.2 0H22.8C23.1183 0 23.4235 0.158036 23.6485 0.43934C23.8736 0.720645 24 1.10218 24 1.5ZM0 10.731V22.5C0 22.8978 0.126428 23.2794 0.351472 23.5607C0.576515 23.842 0.88174 24 1.2 24H22.8C23.1183 24 23.4235 23.842 23.6485 23.5607C23.8736 23.2794 24 22.8978 24 22.5V10.731L12 16.731L0 10.731Z" fill="#F8C32C"/>
</svg>
