<svg width="24" height="24" viewBox="0 0 24 24" fill="none" xmlns="http://www.w3.org/2000/svg">
<path fill-rule="evenodd" clip-rule="evenodd" d="M12 0C18.6265 0 24 5.37246 24 12C24 18.6275 18.6275 24 12 24C5.37347 24 0 18.6275 0 12C0 5.37246 5.37347 0 12 0ZM10.9757 6.77356V12.0008C10.9757 12.3797 11.1809 12.7103 11.4868 12.8879L15.9059 15.4408C16.3963 15.725 17.024 15.5572 17.3082 15.0667C17.5924 14.5763 17.4246 13.9486 16.9341 13.6644L13.0242 11.4065V6.77328C13.0242 6.20683 12.5663 5.74893 11.9998 5.74893C11.4334 5.74893 10.9755 6.20781 10.9755 6.77328L10.9757 6.77356ZM19.0313 4.96962C15.1481 1.08642 8.85304 1.08642 4.96984 4.96962C1.08664 8.85181 1.08664 15.1479 4.96984 19.0311C8.85203 22.9143 15.1481 22.9143 19.0313 19.0311C22.9145 15.1479 22.9145 8.85282 19.0313 4.96962Z" fill="#F8C32C"/>
</svg>
