<svg width="17" height="24" viewBox="0 0 17 24" fill="none" xmlns="http://www.w3.org/2000/svg">
<path d="M8.5 0C6.98374 7.87096e-05 5.4951 0.413521 4.18841 1.19747C2.88172 1.98141 1.80455 3.10732 1.06856 4.45847C0.332571 5.80961 -0.0354363 7.33682 0.00268806 8.88174C0.0408124 10.4267 0.483681 11.9331 1.28538 13.2448L8.5 24L15.7146 13.2448C16.5163 11.9331 16.9592 10.4267 16.9973 8.88174C17.0354 7.33682 16.6674 5.80961 15.9314 4.45847C15.1955 3.10732 14.1183 1.98141 12.8116 1.19747C11.5049 0.413521 10.0163 7.87096e-05 8.5 0ZM8.5 11.8506C7.88162 11.8506 7.27712 11.6637 6.76296 11.3136C6.24879 10.9634 5.84805 10.4657 5.6114 9.88341C5.37476 9.30111 5.31284 8.66037 5.43348 8.0422C5.55412 7.42404 5.8519 6.85622 6.28916 6.41055C6.72643 5.96488 7.28353 5.66137 7.89003 5.53841C8.49653 5.41545 9.12519 5.47856 9.6965 5.71975C10.2678 5.96095 10.7561 6.3694 11.0997 6.89345C11.4432 7.41751 11.6266 8.03363 11.6266 8.6639C11.6266 9.50907 11.2972 10.3196 10.7108 10.9173C10.1245 11.5149 9.32922 11.8506 8.5 11.8506Z" fill="#F8C32C"/>
</svg>
