<svg width="50" height="49" viewBox="0 0 50 49" fill="none" xmlns="http://www.w3.org/2000/svg">
<path d="M48.1915 31.8329C47.2272 30.8049 45.7443 30.4774 44.425 30.9868C42.9057 31.5691 41.1772 32.579 39.303 33.989C38.4934 34.5986 37.4653 35.0444 36.3372 35.3719C36.5464 34.2893 36.3099 32.8519 35.2728 32.0603C34.8725 31.7601 34.3994 31.5873 33.8353 31.5327C31.0241 31.287 26.9665 30.1408 22.3993 28.3121C16.4039 25.9194 9.54438 31.5509 9.25325 31.7966C9.19867 31.842 9.16228 31.9057 9.12589 31.9603L8.62551 31.096C8.50725 30.8868 8.30709 30.7321 8.07056 30.6684C7.84312 30.6047 7.58838 30.6411 7.37914 30.7594L0.455591 34.7624C0.0189025 35.0171 -0.12666 35.5721 0.11898 36.0087L7.36102 48.5452C7.47928 48.7544 7.67944 48.9091 7.91597 48.9728C7.98875 48.991 8.07063 49.0001 8.15251 49.0001C8.30717 49.0001 8.47093 48.9546 8.60739 48.8818L15.5309 44.8788C15.9676 44.6241 16.1132 44.0692 15.8675 43.6325L15.3035 42.6499C17.5324 41.7584 20.2345 42.2041 23.5552 42.7591C25.9023 43.1503 28.4679 43.587 31.2793 43.587C32.2892 43.587 33.3263 43.5324 34.3998 43.3959C40.3586 42.659 45.0893 39.3748 48.0192 36.7362C48.7289 36.0811 49.1383 35.1623 49.1383 34.1979C49.1383 33.3064 48.8017 32.4693 48.1921 31.8325L48.1915 31.8329ZM8.48899 46.8439L2.15701 35.8813L7.50644 32.7881L13.2289 42.6957V42.723L13.2471 42.7412L13.8293 43.751L8.47988 46.8442L8.48899 46.8439ZM46.7993 35.3899C44.5704 37.4005 39.9672 40.8667 34.1808 41.5856C30.3962 42.0587 26.9207 41.4764 23.8639 40.9579C20.2885 40.3575 17.15 39.8389 14.393 41.0489L9.96244 33.3701C10.1353 33.352 10.299 33.2974 10.4355 33.1791C10.4992 33.1245 16.7582 28.0025 21.7347 29.9949C26.4564 31.8872 30.7048 33.0699 33.6889 33.3337C33.7707 33.3337 33.9982 33.361 34.1801 33.4975C34.5259 33.7613 34.6896 34.4527 34.5531 35.0623C34.5531 35.0714 34.5531 35.0896 34.544 35.0987C34.4531 35.4353 34.1892 35.7264 33.8344 35.8902C29.795 36.4815 25.5734 36.0267 25.51 36.0267C25.0005 35.9812 24.5638 36.336 24.5092 36.8273C24.4546 37.3276 24.8094 37.7734 25.3098 37.828C25.5372 37.8553 28.4758 38.1646 31.8875 37.919H31.8966C34.8806 37.7007 38.2105 37.0638 40.3939 35.4263C42.5592 33.7978 44.1331 33.0245 45.0792 32.6697C45.707 32.424 46.4075 32.5787 46.8715 33.07C47.1626 33.3702 47.3173 33.7705 47.3173 34.189C47.3173 34.6439 47.1262 35.0715 46.7987 35.3808L46.7993 35.3899Z" fill="#F8C32C"/>
<path d="M24.5745 11.9909C27.877 11.9909 30.57 9.30705 30.57 5.99544C30.57 2.68383 27.8861 0 24.5745 0C21.2629 0 18.5791 2.68383 18.5791 5.99544C18.5791 9.30705 21.2629 11.9909 24.5745 11.9909ZM24.5745 1.82885C26.8762 1.82885 28.7504 3.703 28.7504 6.00469C28.7504 8.30639 26.8762 10.1805 24.5745 10.1805C22.2728 10.1805 20.3987 8.30639 20.3987 6.00469C20.3987 3.703 22.2728 1.82885 24.5745 1.82885Z" fill="#F8C32C"/>
<path d="M14.4117 26.3923C14.9121 26.3923 15.3215 25.9829 15.3215 25.4825C15.3215 20.3787 19.47 16.2299 24.574 16.2299C29.678 16.2299 33.8266 20.3785 33.8266 25.4825C33.8266 25.9829 34.236 26.3923 34.7364 26.3923C35.2367 26.3923 35.6461 25.9829 35.6461 25.4825C35.6461 19.3782 30.6788 14.4104 24.574 14.4104C18.4693 14.4104 13.502 19.3777 13.502 25.4825C13.502 25.9829 13.9113 26.3923 14.4117 26.3923Z" fill="#F8C32C"/>
<path d="M11.0185 13.3644C13.8569 13.3644 16.1678 11.0536 16.1678 8.21512C16.1678 5.37665 13.8569 3.07495 11.0185 3.07495C8.17998 3.07495 5.86914 5.38579 5.86914 8.21512C5.86914 11.0445 8.17998 13.3644 11.0185 13.3644ZM11.0185 4.89443C12.8562 4.89443 14.3482 6.38644 14.3482 8.21506C14.3482 10.0437 12.8562 11.5448 11.0185 11.5448C9.18069 11.5448 7.68867 10.0528 7.68867 8.21506C7.68867 6.3773 9.18069 4.89443 11.0185 4.89443Z" fill="#F8C32C"/>
<path d="M2.54912 25.3641C3.0495 25.3641 3.45889 24.9547 3.45889 24.4543C3.45889 20.2876 6.8523 16.8944 11.0188 16.8944C11.9741 16.8944 12.9021 17.0672 13.7845 17.4129C14.2576 17.5949 14.7762 17.3674 14.9672 16.9034C15.1491 16.4395 14.9217 15.9118 14.4577 15.7208C13.366 15.2932 12.2106 15.0748 11.0279 15.0748C5.85136 15.0748 1.64844 19.2871 1.64844 24.4543C1.64844 24.9547 2.05783 25.3641 2.5582 25.3641L2.54912 25.3641Z" fill="#F8C32C"/>
<path d="M38.1298 13.3644C40.9682 13.3644 43.2791 11.0536 43.2791 8.21512C43.2791 5.37665 40.9682 3.07495 38.1298 3.07495C35.2913 3.07495 32.9805 5.38579 32.9805 8.21512C32.9805 11.0445 35.2913 13.3644 38.1298 13.3644ZM38.1298 4.89443C39.9675 4.89443 41.4596 6.38644 41.4596 8.21506C41.4596 10.0437 39.9675 11.5448 38.1298 11.5448C36.292 11.5448 34.8 10.0528 34.8 8.21506C34.8 6.3773 36.292 4.89443 38.1298 4.89443Z" fill="#F8C32C"/>
<path d="M34.6911 15.7209C34.2272 15.9029 33.9906 16.4306 34.1817 16.9036C34.3727 17.3766 34.8913 17.6041 35.3643 17.413C36.2468 17.0673 37.1748 16.8945 38.13 16.8945C42.2967 16.8945 45.69 20.2879 45.69 24.4544C45.69 24.9548 46.0994 25.3642 46.5997 25.3642C47.1001 25.3642 47.5095 24.9548 47.5095 24.4544C47.5095 19.2779 43.2973 15.075 38.13 15.075C36.9474 15.075 35.792 15.2933 34.7002 15.7209L34.6911 15.7209Z" fill="#F8C32C"/>
</svg>
