<svg width="14" height="14" viewBox="0 0 14 14" fill="none" xmlns="http://www.w3.org/2000/svg">
<path d="M14 0.875V4.375L7 7.875L0 4.375V0.875C0 0.642936 0.0737498 0.420376 0.205025 0.256282C0.336301 0.0921874 0.514348 0 0.7 0H13.3C13.4857 0 13.6637 0.0921874 13.795 0.256282C13.9263 0.420376 14 0.642936 14 0.875ZM0 6.25975V13.125C0 13.3571 0.0737498 13.5796 0.205025 13.7437C0.336301 13.9078 0.514348 14 0.7 14H13.3C13.4857 14 13.6637 13.9078 13.795 13.7437C13.9263 13.5796 14 13.3571 14 13.125V6.25975L7 9.75975L0 6.25975Z" fill="#F8C32C"/>
</svg>
