<svg width="24" height="25" viewBox="0 0 24 25" fill="none" xmlns="http://www.w3.org/2000/svg">
<path d="M12 0.5C11.2636 0.5 10.6667 1.09696 10.6667 1.83333V11.1667H1.33333C0.596978 11.1667 0 11.7636 0 12.5C0 13.2364 0.596978 13.8333 1.33333 13.8333H10.6667V23.1667C10.6667 23.903 11.2636 24.5 12 24.5C12.7364 24.5 13.3333 23.903 13.3333 23.1667V13.8333H22.6667C23.403 13.8333 24 13.2364 24 12.5C24 11.7636 23.403 11.1667 22.6667 11.1667H13.3333V1.83333C13.3333 1.09696 12.7364 0.5 12 0.5Z" fill="white"/>
</svg>
