<svg width="16" height="14" viewBox="0 0 16 14" fill="none" xmlns="http://www.w3.org/2000/svg">
<path d="M15.9998 6.99999C15.9915 6.77251 15.9043 6.50956 15.7591 6.34373L10.4258 0.298171C10.1144 -0.098064 9.5153 -0.0901206 9.1652 0.266923C8.8151 0.623964 8.78636 1.25626 9.13883 1.61069L13.0462 6.04542H0.888882C0.397982 6.04542 0 6.47281 0 6.99999C0 7.52719 0.397982 7.95455 0.888882 7.95455H13.0462L9.13883 12.3893C8.78642 12.7437 8.81528 13.3787 9.16549 13.7357C9.5156 14.0928 10.1232 14.0943 10.426 13.7018L15.7593 7.65625C15.9215 7.47113 15.9974 7.2552 15.9998 6.99999Z" fill="#F8C32C"/>
</svg>
