<svg width="52" height="92" viewBox="0 0 52 92" fill="none" xmlns="http://www.w3.org/2000/svg">
<path d="M25.9982 0.854089C13.2461 0.851636 2.83951 12.4301 2.86949 26.5719C2.85637 30.9021 3.8556 35.1759 5.78744 39.0521C6.3687 40.2614 6.62432 41.6013 6.529 42.9394C6.43367 44.2774 5.99072 45.5673 5.24395 46.6815C2.1486 51.5632 0.527173 57.2346 0.574032 63.0158C0.577035 78.6018 11.9828 91.288 26.0565 91.2226C40.1301 91.1572 51.4902 78.5162 51.4599 62.9575C51.5046 57.1763 49.881 51.5043 46.7837 46.6213C46.0365 45.5069 45.5931 44.2169 45.4972 42.8787C45.4014 41.5406 45.6565 40.2008 46.2373 38.9918C48.1676 35.1163 49.1652 30.8429 49.1505 26.5127C49.1614 12.439 38.7503 0.856545 25.9982 0.854089ZM25.999 4.75057C27.8246 4.75092 30.0731 7.76228 31.6137 13.0896L20.4964 13.0874C21.9804 7.81522 24.1869 4.70935 25.999 4.75057ZM17.876 59.6131C18.0285 55.7706 18.5988 51.9562 19.5768 48.2374L19.6176 48.033L32.3425 48.0355L32.3834 48.2398C33.3667 51.9684 33.9475 55.7915 34.1159 59.6435L17.876 59.6131ZM34.2392 63.4992C34.2301 67.3974 33.8384 71.2852 33.0698 75.1066L18.9552 75.1039C18.1851 71.2822 17.7919 67.3942 17.7813 63.496L34.2392 63.4992ZM20.298 44.1094C20.4877 41.9691 20.368 39.8125 19.9426 37.706C19.5624 35.9714 19.289 34.2151 19.1241 32.447L32.9934 32.4497C32.7933 34.2199 32.4842 35.9762 32.068 37.7084C31.6642 39.8084 31.5637 41.9556 31.7695 44.0844L20.298 44.1094ZM18.8237 28.6049C18.7963 27.9237 18.7689 27.2425 18.7824 26.5477C18.7668 23.3467 19.0351 20.1507 19.5844 16.9974L32.4728 16.9999C33.0157 20.1452 33.2853 23.3316 33.2784 26.5232C33.2922 27.2181 33.2651 27.8993 33.2379 28.5805L18.8237 28.6049ZM19.0237 6.22063C17.8947 8.40631 17.0351 10.721 16.4637 13.1139L10.946 13.181C12.9442 10.168 15.7344 7.76442 19.0101 6.23425L19.0237 6.22063ZM6.76599 26.6544C6.76083 23.3717 7.42303 20.1226 8.71239 17.1043L15.6198 17.0375C15.0993 20.1941 14.8402 23.3884 14.845 26.5878C14.8588 27.2826 14.8589 27.9638 14.8863 28.6451L6.71187 28.6435C6.79348 27.935 6.7661 27.2538 6.75234 26.559L6.76599 26.6544ZM9.30213 37.3634C8.54703 35.827 7.95757 34.2147 7.54369 32.5538L15.2141 32.5689C15.4079 34.6103 15.7176 36.639 16.1417 38.6454C16.5111 40.4648 16.6124 42.3283 16.4424 44.1768L10.2844 44.1211C10.6557 41.7981 10.2933 39.4168 9.24762 37.3089L9.30213 37.3634ZM8.6095 48.7938C8.8002 48.6031 8.90913 48.3034 9.0317 48.0446L15.6939 48.0595C14.7561 51.8637 14.2 55.7521 14.034 59.6669L4.70148 59.6242C5.15915 55.7539 6.47571 52.035 8.55499 48.7393L8.6095 48.7938ZM4.53874 63.5479L13.953 63.5634C13.9751 67.4545 14.3544 71.3356 15.086 75.1577L7.40203 75.1562C5.55705 71.5401 4.55925 67.5517 4.48424 63.4934L4.53874 63.5479ZM18.7938 85.9759C15.2421 84.495 12.1477 82.0964 9.82786 79.0259L15.9723 79.0407C16.6077 81.4417 17.5322 83.7567 18.7257 85.935L18.7938 85.9759ZM26.0149 87.3669C24.0666 87.3802 21.6546 84.3688 19.9642 79.0006L32.0623 79.0029C30.374 84.3705 27.9631 87.3809 26.0149 87.3669ZM33.3035 85.9378C34.5133 83.749 35.4508 81.4204 36.0951 79.0037L42.1987 79.0321C39.8935 82.0772 36.8251 84.4594 33.3035 85.9378ZM44.6775 75.1089L36.9935 75.1074C37.7182 71.2848 38.0959 67.4044 38.1221 63.5135L47.5363 63.5017C47.4715 67.5373 46.4942 71.5055 44.6775 75.1089ZM43.4599 48.7461C45.5404 52.0426 46.8584 55.7619 47.3176 59.6324L38.0396 59.617C37.872 55.7021 37.3145 51.8135 36.3752 48.009L43.0374 47.9967C43.16 48.2555 43.3236 48.5008 43.4599 48.7461ZM42.7628 37.3153C41.718 39.4228 41.3565 41.804 41.7287 44.1272L35.6251 44.126C35.4544 42.2774 35.5551 40.4139 35.9238 38.5947C36.3471 36.5885 36.656 34.5598 36.8491 32.5185L44.5194 32.5064C44.1062 34.1672 43.5173 35.7793 42.7628 37.3153ZM45.2948 26.6073C45.2814 27.3021 45.2543 27.9833 45.1999 28.6645L37.0254 28.6629L37.0659 26.6057C37.1018 23.4044 36.8734 20.2054 36.3829 17.0415L43.3311 17.0428C44.6087 20.0552 45.2628 23.2949 45.254 26.5664L45.2948 26.6073ZM35.5919 13.1721C35.0196 10.7789 34.1591 8.46395 33.0293 6.27783C36.3287 7.78174 39.1486 10.168 41.1778 13.1732L35.5919 13.1721Z" fill="#F8C32C"/>
</svg>
