<svg width="33" height="33" viewBox="0 0 33 33" fill="none" xmlns="http://www.w3.org/2000/svg">
<path d="M30.3186 2.67995C26.4586 -1.18149 19.8027 -0.826697 15.5304 3.46379C14.2154 4.77079 13.2241 6.36718 12.6354 8.12556C12.4453 8.66764 12.117 9.15069 11.683 9.52693C11.2491 9.90318 10.7245 10.1596 10.1611 10.2708C7.74602 10.8116 5.53812 12.0378 3.80205 13.8022C-0.915663 18.5217 -1.30331 25.8156 2.97728 30.0565C7.25786 34.2975 14.5241 33.9097 19.2254 29.1902C20.9891 27.4535 22.2148 25.2447 22.7554 22.8287C22.8666 22.2651 23.1229 21.7403 23.499 21.3062C23.8751 20.872 24.3579 20.5436 24.8998 20.3534C26.6575 19.7646 28.2533 18.7728 29.5598 17.4574C33.8239 13.1999 34.1785 6.54138 30.3186 2.67995ZM29.1392 3.85983C29.6918 4.41264 29.4608 6.00507 28.3144 8.08431L24.9493 4.71793C26.9947 3.57105 28.6031 3.29877 29.1392 3.85983ZM10.0703 18.0102C11.2799 16.893 12.6073 15.9109 14.0293 15.0811L14.1035 15.0316L17.9552 18.8848L17.9057 18.959C17.0746 20.3855 16.093 21.7188 14.9778 22.936L10.0703 18.0102ZM13.8478 24.1406C12.6649 25.3181 11.3693 26.3765 9.97962 27.3007L5.70729 23.0267C6.63116 21.6366 7.68919 20.3405 8.86618 19.1571L13.8478 24.1406ZM15.4974 14.0497C16.2028 13.4592 16.8194 12.77 17.3284 12.0035C17.7384 11.3632 18.1874 10.7488 18.6728 10.1635L22.8709 14.3633C22.2743 14.8386 21.649 15.2768 20.9986 15.6752C20.2406 16.1887 19.5601 16.8083 18.9779 17.5151L15.4974 14.0497ZM19.745 8.9094C19.9429 8.69488 20.1409 8.48035 20.3553 8.27408C21.3197 7.30025 22.3685 6.41392 23.4894 5.62553L27.3906 9.52822C26.6028 10.6449 25.7197 11.6911 24.7514 12.6553C24.5452 12.8699 24.3307 13.0679 24.1163 13.2659L19.745 8.9094ZM26.5824 2.19314C25.5788 2.51306 24.6178 2.95358 23.7204 3.50504L22.0296 1.85486C23.5467 1.54764 25.1191 1.66469 26.5741 2.19314H26.5824ZM16.685 4.66842C17.6773 3.67305 18.8615 2.88985 20.1656 2.36641L22.277 4.4374C21.1638 5.23549 20.1183 6.1241 19.1511 7.0942C18.9449 7.30872 18.7387 7.51499 18.5408 7.72952L16.0665 5.25424C16.3057 5.06447 16.5036 4.84994 16.7098 4.63542L16.685 4.66842ZM14.2107 8.67838C14.4472 7.98464 14.7569 7.31807 15.1345 6.6899L17.4521 9.01667C16.8927 9.69337 16.3723 10.4013 15.8933 11.1372C15.4543 11.7998 14.9208 12.3947 14.3097 12.9029L12.4622 11.0216C13.2779 10.4308 13.8891 9.60011 14.2107 8.64537V8.67838ZM10.5405 11.9292C10.6559 11.9292 10.7797 11.8715 10.8951 11.8302L12.9076 13.8517C11.4719 14.7195 10.1264 15.7284 8.89092 16.8633L6.07843 14.025C7.38873 12.9918 8.9132 12.2645 10.5405 11.8962V11.9292ZM4.84127 15.1636L7.68675 18.0184C6.5154 19.2032 5.45524 20.493 4.51961 21.8716L2.19374 19.5449C2.72996 17.8915 3.63534 16.382 4.84127 15.1306V15.1636ZM2.36695 26.2694C1.73998 24.7457 1.52934 23.0827 1.75661 21.4508L3.61235 23.3155C3.07782 24.2348 2.65685 25.2156 2.3587 26.2364L2.36695 26.2694ZM4.13196 28.8767C3.53813 28.2908 3.71957 26.6489 4.83302 24.5119L8.49503 28.1753C6.35886 29.2892 4.71756 29.4707 4.13196 28.8767ZM6.77125 30.6506C7.80017 30.3542 8.789 29.933 9.71569 29.3965L11.5549 31.2529C9.93518 31.477 8.285 31.2692 6.77125 30.6506ZM13.4932 30.8156L11.1673 28.4889C12.544 27.551 13.8331 26.4905 15.019 25.3205L17.8727 28.1671C16.6314 29.3692 15.1341 30.2747 13.4932 30.8156ZM21.1058 22.4657C20.7377 24.0936 20.0107 25.6186 18.9779 26.9294L16.1737 24.1159C17.3082 22.8799 18.3167 21.5338 19.1841 20.0977L21.2048 22.1109C21.1636 22.2264 21.1388 22.3502 21.1058 22.4657ZM24.3555 18.794C23.4011 19.1157 22.5708 19.7272 21.9801 20.5432L20.1326 18.695C20.6406 18.0837 21.2352 17.55 21.8976 17.1108C22.6332 16.6316 23.3409 16.111 24.0173 15.5514L26.3432 17.8699C25.7152 18.2476 25.0489 18.5574 24.3555 18.794ZM28.3639 16.3187C28.1494 16.525 27.935 16.723 27.7123 16.9128L25.238 14.4375L25.873 13.827C26.8531 12.8686 27.7524 11.831 28.5618 10.7246L30.665 12.8286C30.1398 14.1273 29.357 15.3062 28.3639 16.294V16.3187ZM29.4938 9.3137C30.0451 8.4159 30.4854 7.45452 30.8052 6.45062C31.3488 7.90482 31.4801 9.481 31.1846 11.0051L29.4938 9.3137Z" fill="#F8C32C"/>
</svg>
