<svg width="16" height="16" viewBox="0 0 16 16" fill="none" xmlns="http://www.w3.org/2000/svg">
<path d="M14.6999 1.29937C12.8284 -0.572842 9.60131 -0.400823 7.52987 1.67941C6.89232 2.31311 6.41166 3.08712 6.12626 3.93967C6.03407 4.20249 5.87491 4.4367 5.66451 4.61912C5.4541 4.80154 5.19974 4.92586 4.92658 4.97978C3.75564 5.24201 2.68515 5.83649 1.84342 6.69198C-0.443958 8.98024 -0.631907 12.5166 1.44353 14.5729C3.51896 16.6291 7.042 16.4411 9.32138 14.1528C10.1765 13.3108 10.7708 12.2399 11.0329 11.0685C11.0868 10.7952 11.2111 10.5408 11.3934 10.3303C11.5758 10.1198 11.8099 9.96055 12.0726 9.86834C12.9249 9.58282 13.6986 9.10198 14.332 8.46418C16.3995 6.39995 16.5714 3.17158 14.6999 1.29937ZM14.1281 1.87143C14.396 2.13946 14.284 2.91155 13.7282 3.91966L12.0966 2.28748C13.0884 1.73142 13.8681 1.5994 14.1281 1.87143ZM4.88259 8.73221C5.46903 8.19057 6.11264 7.71437 6.80207 7.31205L6.83806 7.28805L8.70555 9.15626L8.68156 9.19226C8.27859 9.8839 7.80267 10.5303 7.26195 11.1205L4.88259 8.73221ZM6.71409 11.7045C6.14055 12.2754 5.51237 12.7886 4.8386 13.2367L2.76717 11.1645C3.21511 10.4905 3.72809 9.86204 4.29875 9.28827L6.71409 11.7045ZM7.51388 6.81199C7.85589 6.52566 8.15488 6.19152 8.40164 5.81988C8.60045 5.50944 8.81813 5.21152 9.05346 4.92778L11.0889 6.96401C10.7997 7.19448 10.4965 7.40691 10.1812 7.60008C9.81362 7.84907 9.48369 8.14949 9.20142 8.49218L7.51388 6.81199ZM9.57332 4.31971C9.66929 4.2157 9.76526 4.11169 9.86924 4.01167C10.3368 3.53951 10.8453 3.10978 11.3888 2.72753L13.2803 4.61974C12.8983 5.16114 12.4702 5.66843 12.0007 6.13592C11.9007 6.23993 11.7967 6.33594 11.6927 6.43195L9.57332 4.31971ZM12.8884 1.06334C12.4019 1.21845 11.9359 1.43204 11.5008 1.69941L10.681 0.899324C11.4166 0.750371 12.179 0.807122 12.8844 1.06334H12.8884ZM8.08972 2.26348C8.57081 1.78087 9.14495 1.40114 9.77726 1.14735L10.801 2.15147C10.2612 2.53842 9.75432 2.96926 9.28539 3.43961C9.18542 3.54362 9.08545 3.64363 8.98948 3.74765L7.7898 2.54751C7.90577 2.4555 8.00174 2.35149 8.10172 2.24748L8.08972 2.26348ZM6.89005 4.2077C7.00473 3.87134 7.15486 3.54815 7.33792 3.24359L8.46162 4.37172C8.19042 4.69982 7.93808 5.04308 7.70582 5.39983C7.49299 5.72112 7.23432 6.00954 6.93803 6.25593L6.04228 5.34383C6.43777 5.05734 6.73412 4.6546 6.89005 4.1917V4.2077ZM5.11053 5.78387C5.16652 5.78387 5.2265 5.75587 5.28248 5.73587L6.25822 6.71598C5.56216 7.13673 4.90977 7.62587 4.31075 8.17615L2.94712 6.79999C3.58242 6.29906 4.32155 5.94643 5.11053 5.76787V5.78387ZM2.34728 7.35205L3.72691 8.73621C3.15898 9.31063 2.64496 9.93599 2.19133 10.6044L1.06363 9.47629C1.32362 8.67467 1.76259 7.94277 2.34728 7.33605V7.35205ZM1.14761 12.7367C0.843628 11.9979 0.741497 11.1916 0.85169 10.4004L1.75144 11.3045C1.49227 11.7502 1.28817 12.2257 1.14361 12.7207L1.14761 12.7367ZM2.00338 14.0008C1.71546 13.7168 1.80343 12.9207 2.34328 11.8846L4.1188 13.6608C3.08308 14.2008 2.2873 14.2888 2.00338 14.0008ZM3.28303 14.8609C3.7819 14.7172 4.26133 14.513 4.71064 14.2528L5.6024 15.1529C4.81706 15.2616 4.01697 15.1608 3.28303 14.8609ZM6.54214 14.9409L5.41445 13.8128C6.08193 13.358 6.70697 12.8439 7.28194 12.2766L8.66556 13.6568C8.06369 14.2396 7.33774 14.6786 6.54214 14.9409ZM10.2331 10.8925C10.0547 11.6817 9.70216 12.4212 9.20142 13.0567L7.84179 11.6925C8.39185 11.0933 8.8808 10.4407 9.30139 9.74432L10.2811 10.7204C10.2611 10.7764 10.2491 10.8364 10.2331 10.8925ZM11.8087 9.11225C11.346 9.26824 10.9434 9.5647 10.657 9.96035L9.76127 9.06425C10.0076 8.76784 10.2959 8.50908 10.617 8.29616C10.9737 8.06382 11.3168 7.81138 11.6448 7.54007L12.7724 8.6642C12.468 8.84733 12.1449 8.99753 11.8087 9.11225ZM13.7522 7.91212C13.6482 8.01213 13.5442 8.10814 13.4363 8.20015L12.2366 7.00001L12.5445 6.70398C13.0197 6.23933 13.4557 5.73624 13.8482 5.19981L14.8679 6.21992C14.6132 6.84962 14.2337 7.42119 13.7522 7.90012V7.91212ZM14.3 4.51573C14.5673 4.08044 14.7808 3.61431 14.9359 3.12758C15.1994 3.83264 15.2631 4.59685 15.1198 5.33582L14.3 4.51573Z" fill="#F8C32C"/>
</svg>
