<svg width="17" height="14" viewBox="0 0 17 14" fill="none" xmlns="http://www.w3.org/2000/svg">
<path d="M16.0592 14H0.943657C0.422237 14 0 13.5529 0 13.0009C0 12.4488 0.422237 12.0017 0.943657 12.0017H16.0563C16.5778 12.0017 17 12.4488 17 13.0009C17 13.5529 16.5806 14 16.0592 14ZM16.0592 7.99914H0.943657C0.422237 7.99914 0 7.55208 0 7C0 6.44792 0.422237 6.00086 0.943657 6.00086H16.0563C16.5778 6.00086 17 6.44792 17 7C17 7.55208 16.5806 7.99914 16.0592 7.99914ZM16.0592 1.99829H0.943657C0.422237 1.99829 0 1.55122 0 0.999143C0 0.447064 0.422237 0 0.943657 0H16.0563C16.5778 0 17 0.447064 17 0.999143C17 1.55122 16.5806 1.99829 16.0592 1.99829Z" fill="#0D401C"/>
</svg>
