<svg width="45" height="51" viewBox="0 0 45 51" fill="none" xmlns="http://www.w3.org/2000/svg">
<path fill-rule="evenodd" clip-rule="evenodd" d="M8.78818 -0.00627962V-0.00462283C8.57136 -0.0214369 8.34746 0.0452032 8.16921 0.197825C7.81265 0.502976 7.77105 1.03947 8.07628 1.39597L12.6496 6.72438C12.0347 7.07522 11.3851 7.39856 10.894 7.84453C10.3683 8.32188 9.89448 8.83408 9.46525 9.3679H3.62408C1.75805 9.3679 0.225586 10.8948 0.225586 12.7598C0.225586 14.6248 1.75805 16.1533 3.62408 16.1533H6.04517C5.87619 16.7003 5.74527 17.229 5.63363 17.7496C3.83226 20.4485 2.77448 23.6937 2.77448 27.1804C2.77448 31.8266 4.30235 37.7319 8.26882 42.5348C12.2353 47.338 18.6733 50.9697 28.2137 50.9697C30.8709 50.9398 32.6518 49.8056 33.8293 48.3113C35.0968 46.6838 35.7913 44.525 36.2023 42.1382C36.2844 41.6609 36.3499 41.17 36.4097 40.6746C40.9243 40.018 44.4064 36.1215 44.4064 31.4281C44.4064 26.5676 40.6722 22.5615 35.9234 22.1239C35.0499 19.319 33.4728 16.8228 31.3949 14.849C32.2432 14.6331 33.1787 14.3927 33.1787 14.3927C35.0065 14.0278 36.2065 12.2301 35.8437 10.4034C35.6314 9.26313 35.0035 8.42371 34.2192 8.00722C33.3842 7.58358 32.6074 7.57276 31.8213 7.74337C31.799 7.74779 29.6948 8.17228 27.1931 8.91823C26.5392 8.3814 25.7283 7.98747 25.0541 7.63385L30.5966 1.40602C30.9076 1.05574 30.8764 0.519697 30.5269 0.207885C30.3587 0.0579434 30.1378 -0.019058 29.9129 -0.00617773C29.6883 0.00733299 29.4782 0.10938 29.3288 0.27758L23.076 7.30023C22.7267 7.6927 22.8137 8.305 23.2586 8.58461C23.6869 8.855 24.3219 9.1675 24.903 9.47739C23.5048 9.78174 21.9541 10.1425 20.6134 10.8962C18.1161 9.66508 15.8819 10.4571 14.3657 11.6014C13.138 12.7426 12.1233 14.4896 11.4385 16.2279C11.0935 17.1037 10.8475 17.983 10.6851 18.7137C10.5228 19.4445 10.4379 19.9617 10.4379 20.3731C10.4379 21.3279 9.68316 22.0823 8.7303 22.0823C7.77753 22.0823 7.02272 21.3279 7.02272 20.3731C7.02272 18.8635 7.44064 17.0489 8.25901 14.9717C9.0758 12.8985 10.2455 10.7265 12.0358 9.10065C12.6219 8.56844 13.4026 8.0738 14.276 7.68017C14.7926 7.44693 14.9404 6.78296 14.5714 6.35263L9.36748 0.289118C9.21491 0.110841 9.005 0.0105429 8.78818 -0.00627962ZM17.2181 -0.00627962C16.7488 -0.00627962 16.3684 0.374114 16.3684 0.843344V3.60462L13.6237 0.30069C13.3241 -0.0604092 12.7884 -0.110189 12.4273 0.189508C12.0662 0.489179 12.0164 1.02485 12.3161 1.38595L16.5642 6.49865C17.0723 7.11057 18.0675 6.75139 18.0676 5.95602V0.843319C18.0676 0.374097 17.6873 -0.00627962 17.2181 -0.00627962ZM20.6166 -0.00627962C20.1473 -0.00627962 19.7669 0.374114 19.7669 0.843344V6.44058C19.766 7.21781 20.7228 7.58825 21.2455 7.01308L26.3432 1.41585C26.6599 1.06868 26.6346 0.530368 26.2868 0.214393C25.9396 -0.102262 25.4013 -0.0769769 25.0853 0.270813L21.4661 4.2451V0.84329C21.4661 0.374068 21.0858 -0.00627962 20.6166 -0.00627962ZM32.6506 9.32939C33.2171 9.30288 33.9805 9.5074 34.1773 10.7332C34.3627 11.6597 33.7756 12.5388 32.8448 12.7246C32.8448 12.7246 30.7933 13.135 28.4407 13.8496C26.9828 14.2925 25.4464 14.9336 24.317 15.4925C23.8986 15.6998 23.7259 16.206 23.9304 16.6259C24.4989 17.7973 25.0558 19.2646 25.5931 20.6102V20.6119C25.9442 21.489 25.5274 22.4602 24.6472 22.8122C23.7661 23.1635 22.7901 22.7454 22.4385 21.8681H22.4368L21.247 18.8994C20.1698 16.2112 17.5681 14.4537 14.6691 14.4537H14.246C14.6498 13.824 15.0814 13.2701 15.5021 12.8739C17.1125 11.6292 18.9296 11.7526 20.1336 12.5852C20.5264 12.8242 20.8231 12.7275 21.0861 12.5952C22.6549 11.5558 25.312 11.2616 27.45 10.6121C29.9827 9.84282 32.1777 9.40405 32.1777 9.40405C32.2943 9.37338 32.4618 9.33823 32.6506 9.32939ZM3.62408 11.0668H8.28206C7.62297 12.1531 7.10219 13.2735 6.67908 14.3474C6.66498 14.3832 6.65313 14.418 6.63925 14.4536H3.62411C2.67465 14.4536 1.92486 13.7059 1.92486 12.761C1.92486 11.8162 2.67463 11.0668 3.62408 11.0668ZM29.4144 15.3548C31.5544 17.1167 33.2031 19.4527 34.1354 22.1286C29.4158 22.5945 25.7139 26.5883 25.7139 31.4277C25.7139 36.4539 29.7075 40.5679 34.6868 40.7651C34.6401 41.1328 34.5881 41.4963 34.5275 41.8487C34.1428 44.0824 33.4855 45.986 32.488 47.2667C31.4962 48.5117 30.354 49.263 28.2134 49.2696C19.0995 49.2696 13.243 45.8897 9.57774 41.4521C5.91314 37.0144 4.47337 31.4477 4.47337 27.1792C4.47337 25.1906 4.85286 23.2955 5.54041 21.5555C6.02485 22.8499 7.2739 23.7807 8.72981 23.7807C10.6013 23.7807 12.1366 22.2446 12.1366 20.3723C12.1366 20.3144 12.198 19.7402 12.3441 19.0829C12.4901 18.4256 12.7147 17.6218 13.0178 16.8526C13.1097 16.6195 13.2128 16.3865 13.3198 16.154H14.6689C16.8849 16.154 18.8481 17.4809 19.6704 19.5326L20.8602 22.5013C21.5538 24.2322 23.5432 25.0822 25.276 24.3914C27.0079 23.7001 27.8628 21.7129 27.1711 19.9823V19.9806C26.7506 18.9275 26.2841 17.797 25.8087 16.7231C26.7707 16.2836 27.8525 15.8052 28.9333 15.4769C28.9515 15.4714 29.3071 15.3827 29.4144 15.3548ZM35.0597 23.7813C39.2929 23.7813 42.7064 27.1948 42.7064 31.4279C42.7064 35.6611 39.2929 39.0746 35.0597 39.0746C30.8266 39.0746 27.4131 35.6611 27.4131 31.4279C27.4131 27.1948 30.8266 23.7813 35.0597 23.7813ZM34.9983 25.5105C33.601 25.5105 32.4495 26.662 32.4495 28.0593V28.909H31.5998C30.2025 28.909 29.051 30.0605 29.051 31.4578C29.051 32.8552 30.2025 34.0067 31.5998 34.0067H32.4495V34.8563C32.4495 36.2537 33.601 37.4052 34.9983 37.4052C36.3957 37.4052 37.5472 36.2537 37.5472 34.8563V34.0067H38.3968C39.7942 34.0067 40.9457 32.8552 40.9457 31.4578C40.9457 30.0605 39.7942 28.909 38.3968 28.909H37.5472V28.0593C37.5472 26.662 36.3957 25.5105 34.9983 25.5105ZM10.4519 26.3302C10.3955 26.3281 10.3388 26.3323 10.2809 26.3418C9.81815 26.4189 9.5054 26.8564 9.58232 27.3193C9.58232 27.3193 9.78611 28.6503 10.3755 30.5285L8.78247 34.5112C8.60875 34.9465 8.82037 35.4402 9.25541 35.6146C9.69073 35.7884 10.1845 35.5767 10.3589 35.1417L11.2484 32.9181C12.0235 34.764 13.1266 36.7835 14.6684 38.5136V41.6234C14.6684 42.0926 15.0488 42.473 15.5181 42.473C15.9873 42.473 16.3677 42.0926 16.3677 41.6234V40.1366C17.0283 40.6663 17.749 41.1401 18.5365 41.5338C18.9563 41.7437 19.4667 41.5735 19.6766 41.1538C19.8865 40.734 19.7163 40.2236 19.2966 40.0137C17.3663 39.0486 15.8617 37.4388 14.7033 35.676H16.3677C16.837 35.676 17.2174 35.2956 17.2174 34.8264C17.2174 34.3571 16.837 33.9767 16.3677 33.9767H13.7076C11.8917 30.5058 11.2583 27.0403 11.2583 27.0403C11.1909 26.6354 10.8467 26.3449 10.4519 26.3302ZM34.9983 27.2098C35.4837 27.2098 35.848 27.574 35.848 28.0594V29.7586C35.848 30.2278 36.2284 30.6082 36.6976 30.6083H38.3968C38.8822 30.6083 39.2465 30.9725 39.2465 31.4579C39.2465 31.9433 38.8822 32.3075 38.3968 32.3075H36.6976C36.2284 32.3076 35.848 32.6879 35.848 33.1571V34.8564C35.848 35.3418 35.4837 35.706 34.9983 35.706C34.513 35.706 34.1487 35.3418 34.1487 34.8564V33.1571C34.1487 32.6879 33.7683 32.3076 33.2991 32.3075H31.5998C31.1145 32.3075 30.7502 31.9433 30.7502 31.4579C30.7502 30.9725 31.1145 30.6083 31.5998 30.6083H33.2991C33.7683 30.6082 34.1487 30.2278 34.1487 29.7586V28.0594C34.1487 27.574 34.513 27.2098 34.9983 27.2098Z" fill="#0D401C"/>
</svg>
