<svg width="52" height="51" viewBox="0 0 52 51" fill="none" xmlns="http://www.w3.org/2000/svg">
<path d="M51.4768 0.218096C51.1759 -0.0827899 50.6828 -0.0827899 50.3819 0.218096L43.4534 7.14677C42.4171 6.55543 41.0799 6.685 40.196 7.56885L39.2642 8.50077C38.372 7.87599 37.1246 7.94917 36.3306 8.75151L36.2491 8.83299C35.6243 9.45777 35.4468 10.3563 35.6975 11.1502L31.6461 12.8364C30.7059 13.2251 29.8638 13.7934 29.1492 14.5143L25.8271 17.8365L17.2522 26.4036L15.0227 28.6331C13.8798 27.766 12.2438 27.8475 11.197 28.8922L11.0842 29.0051C9.94126 30.148 9.94126 32.0035 11.0842 33.1381L12.4131 34.467L7.1289 39.7451L5.85644 38.4726C4.68218 37.2983 2.77662 37.2983 1.60237 38.4726C0.428116 39.6469 0.428116 41.5525 1.60237 42.7268L8.96144 50.086C9.54437 50.669 10.3154 50.9699 11.0843 50.9699C11.8533 50.9699 12.6242 50.6773 13.2072 50.086C14.3815 48.9118 14.3815 47.0061 13.2072 45.8319L11.9348 44.5594L17.2106 39.2834L18.5395 40.6123C19.1078 41.1807 19.86 41.4711 20.6059 41.4711C21.3518 41.4711 22.1061 41.1869 22.6724 40.6123L22.7852 40.4995C23.8299 39.4548 23.903 37.8166 23.036 36.6737L31.8136 27.8958C32.1144 28.1549 32.4947 28.3179 32.9084 28.3659V29.0952C32.9084 29.9142 32.455 30.6519 31.7174 31.0071C30.4533 31.6318 29.6677 32.8959 29.6677 34.3064V47.6625C29.6677 49.4783 31.1429 50.9534 32.9586 50.9534H42.0266C43.8423 50.9534 45.3174 49.4783 45.3174 47.6625V34.3149C45.3174 32.9045 44.5318 31.6404 43.2677 31.0156C42.5385 30.65 42.0767 29.9207 42.0767 29.1037V28.3745C43.1068 28.2533 43.9092 27.3945 43.9092 26.3331V23.2699C43.9092 22.1353 42.9856 21.2033 41.8427 21.2033H38.2197C38.4537 20.8314 38.6647 20.449 38.8277 20.0437L40.5138 15.9984C40.7416 16.0715 40.9756 16.1112 41.2117 16.1112C41.7946 16.1112 42.386 15.8835 42.8331 15.4384L42.9146 15.357C43.7086 14.5629 43.79 13.3155 43.1653 12.4233L44.0972 11.4914C44.981 10.6075 45.1189 9.26188 44.5193 8.23389L51.4477 1.30521C51.7779 1.01268 51.7779 0.517453 51.477 0.218706L51.4768 0.218096ZM12.1225 48.9911C11.5542 49.5594 10.6223 49.5594 10.056 48.9911L2.69697 41.6318C2.12864 41.0635 2.12864 40.1316 2.69697 39.5653C3.24855 39.0137 4.21179 39.0137 4.76342 39.5653L12.1225 46.9246C12.6887 47.5013 12.6887 48.4248 12.1225 48.9911ZM10.8584 43.473L8.2236 40.8381L13.5078 35.5622L16.1425 38.197L10.8584 43.473ZM21.7087 39.4047L21.5959 39.5176C21.061 40.0525 20.1855 40.0525 19.6423 39.5176L12.1704 32.0454C11.6355 31.5105 11.6355 30.635 12.1704 30.0918L12.2832 29.9789C12.8181 29.444 13.6935 29.444 14.2368 29.9789L21.7087 37.4511C22.252 37.9943 22.252 38.8698 21.7087 39.4047ZM31.2325 36.3896H34.7908C35.2212 36.3896 35.5597 36.7386 35.5597 37.1585V44.0792C35.5597 44.5096 35.2108 44.8481 34.7908 44.8481H31.2325V36.3896ZM42.6113 32.4008C43.3405 32.7664 43.8023 33.4957 43.8023 34.3127V47.6688C43.8023 48.6342 43.0167 49.4198 42.0514 49.4198L32.9833 49.4219C32.018 49.4219 31.2324 48.6362 31.2324 47.6709V46.3901H34.7907C36.0715 46.3901 37.1078 45.3537 37.1078 44.0728V37.1522C37.1078 35.8713 36.0715 34.8349 34.7907 34.8349H31.2324V34.3147C31.2324 33.4956 31.6858 32.758 32.4234 32.4028C33.6875 31.778 34.4731 30.5139 34.4731 29.1035V28.3972H40.5682V29.1014C40.5599 30.5139 41.3472 31.7781 42.6113 32.4008ZM42.3919 23.2678V26.331C42.3919 26.6151 42.1579 26.8492 41.8737 26.8492L33.1608 26.8512C32.8767 26.8512 32.6427 26.6172 32.6427 26.3331V23.2698C32.6427 22.9857 32.8767 22.7516 33.1608 22.7516H41.8737C42.1579 22.7496 42.3919 22.9836 42.3919 23.2678ZM37.4316 19.4586C37.1893 20.0332 36.8633 20.5681 36.4663 21.055C36.4266 21.1031 36.4099 21.1595 36.3848 21.2096H33.1671C32.0242 21.2096 31.1007 22.1332 31.1007 23.2761V26.3393C31.1007 26.379 31.109 26.4125 31.109 26.4522L21.9928 35.5542L16.1421 29.6953L17.7949 28.0426L18.7351 28.9828C18.8897 29.1374 19.084 29.2106 19.2783 29.2106C19.4726 29.2106 19.6753 29.1374 19.8216 28.9828C20.1224 28.6819 20.1224 28.1888 19.8216 27.8879L18.8813 26.9477L20.649 25.1799L22.1638 26.6886C22.3184 26.8432 22.5127 26.9163 22.7071 26.9163C22.9014 26.9163 23.104 26.8432 23.2503 26.6886C23.5512 26.3877 23.5512 25.8945 23.2503 25.5936L21.7438 24.0871L23.5115 22.3194L24.4517 23.2597C24.6063 23.4143 24.8006 23.4874 24.995 23.4874C25.1893 23.4874 25.392 23.4143 25.5382 23.2597C25.8391 22.9588 25.8391 22.4657 25.5382 22.1648L24.598 21.2245L26.3656 19.4568L27.8721 20.9633C28.0267 21.1179 28.221 21.1911 28.4153 21.1911C28.6096 21.1911 28.8123 21.1179 28.9586 20.9633C29.2595 20.6624 29.2595 20.1693 28.9586 19.8684L27.4521 18.3619L29.2198 16.5942L30.16 17.5344C30.3146 17.6891 30.5089 17.7622 30.7032 17.7622C30.8975 17.7622 31.1002 17.6891 31.2465 17.5344C31.5474 17.2336 31.5474 16.7404 31.2465 16.4395L30.3062 15.4993C30.8662 14.9644 31.5056 14.5339 32.2181 14.2351L36.5871 12.411L39.2281 15.0521L37.4316 19.4586ZM41.8487 14.2809L41.7672 14.3623C41.4747 14.6549 40.9983 14.6549 40.7141 14.3623L37.3417 10.9899C37.0492 10.6974 37.0492 10.2272 37.3417 9.93677L37.4232 9.85528C37.5695 9.70902 37.7638 9.63589 37.9498 9.63589C38.1357 9.63589 38.33 9.70902 38.4763 9.85528L41.8487 13.2277C42.1412 13.5098 42.1412 13.9883 41.8487 14.2809ZM43.0313 10.4049L42.1245 11.3117L40.3735 9.56071L41.2803 8.65388C41.7338 8.20046 42.4713 8.20046 42.9247 8.65388L43.0208 8.75C43.4868 9.22222 43.4868 9.95975 43.0313 10.4049Z" fill="#0D401C"/>
</svg>
