<svg width="14" height="20" viewBox="0 0 14 20" fill="none" xmlns="http://www.w3.org/2000/svg">
<path d="M7 0C5.75132 6.55914e-05 4.52538 0.344601 3.44928 0.997888C2.37318 1.65118 1.4861 2.58943 0.879989 3.71539C0.273882 4.84134 -0.0291828 6.11401 0.00221369 7.40145C0.0336102 8.68889 0.398326 9.94424 1.05855 11.0373L7 20L12.9415 11.0373C13.6017 9.94424 13.9664 8.68889 13.9978 7.40145C14.0292 6.11401 13.7261 4.84134 13.12 3.71539C12.5139 2.58943 11.6268 1.65118 10.5507 0.997888C9.47462 0.344601 8.24868 6.55914e-05 7 0ZM7 9.87552C6.49074 9.87552 5.99292 9.71977 5.56949 9.42797C5.14606 9.13617 4.81604 8.72142 4.62115 8.23617C4.42627 7.75092 4.37528 7.21697 4.47463 6.70184C4.57398 6.1867 4.81921 5.71352 5.17931 5.34212C5.53941 4.97073 5.9982 4.71781 6.49767 4.61534C6.99714 4.51288 7.51486 4.56546 7.98535 4.76646C8.45584 4.96746 8.85798 5.30783 9.1409 5.74454C9.42383 6.18126 9.57484 6.69469 9.57484 7.21992C9.57484 7.92423 9.30357 8.59969 8.82069 9.09771C8.33781 9.59573 7.68289 9.87552 7 9.87552Z" fill="#F8C32C"/>
</svg>
