<svg width="53" height="49" viewBox="0 0 53 49" fill="none" xmlns="http://www.w3.org/2000/svg">
<path d="M52.1861 48.9999C52.4389 48.9958 52.6772 48.8774 52.8305 48.6773C52.9838 48.4793 53.0376 48.222 52.9734 47.9791L44.686 19.3957C44.5928 19.0405 44.2717 18.7893 43.8987 18.7832H29.6445L28.6914 20.4165H32.7108L31.5919 23.0298L29.4372 23.3565C29.1596 23.4055 28.9255 23.5893 28.8157 23.8465L27.9869 25.8065C27.8398 26.1597 27.96 26.566 28.277 26.7865L30.3903 28.2973L28.6914 30.5431L26.6196 30.2165C26.3026 30.1573 25.9794 30.2838 25.7908 30.5431L21.4814 36.6682L20.9427 36.3824V34.7082C20.9386 34.4918 20.8495 34.2877 20.6941 34.1365L18.9538 32.4216L21.1914 29.0733C21.3799 28.7834 21.3634 28.4077 21.15 28.1341L19.8654 26.3375L20.9842 25.6433C21.1852 25.5127 21.3199 25.3024 21.3509 25.0676C21.3841 24.8328 21.3095 24.5959 21.15 24.4183L19.5339 22.6625L19.9068 20.4575H20.8599L19.9897 18.8241H9.09179C8.71886 18.8303 8.39772 19.0814 8.30448 19.4366L0.0171104 48.02C-0.0326138 48.2569 0.0274695 48.5019 0.178715 48.6897C0.33203 48.8796 0.559934 48.9918 0.804418 49L52.1861 48.9999ZM30.1001 24.9083L32.2548 24.5816C32.549 24.5469 32.8018 24.3591 32.9178 24.0916L34.4924 20.4167H43.2768L47.5862 35.3209L45.0171 34.0959L43.2353 31.0334C43.1151 30.8436 42.9204 30.7108 42.6966 30.6659L34.9062 28.951L31.8814 27.3993L29.6852 25.8068L30.1001 24.9083ZM26.868 31.9318L28.8155 32.2585C29.1201 32.3014 29.4226 32.1768 29.6029 31.9318L31.6747 29.1552L34.2438 30.4618L34.451 30.5435L41.9512 32.1768L43.6916 35.1168C43.7682 35.2556 43.8822 35.3679 44.023 35.4435L48.1667 37.4443L51.0259 47.3665H31.3436C31.3394 47.2522 31.3104 47.1419 31.2607 47.0399L30.1419 44.4674C30.0694 44.2938 29.9368 44.1489 29.7689 44.059L25.1694 41.5682L25.8324 40.0574C25.9961 39.6838 25.8552 39.2469 25.5009 39.0366L22.8904 37.5258L26.868 31.9318ZM9.71301 20.417H18.2491L17.8348 22.7445C17.7913 22.9956 17.8679 23.2508 18.0419 23.4387L19.2851 24.7861L18.2077 25.3986C18.013 25.5232 17.8804 25.7212 17.841 25.9458C17.8017 26.1704 17.8597 26.4011 18.0006 26.5828L19.5337 28.6245L17.4619 31.687H13.2353L11.3292 29.3187L10.5419 27.6037C10.4321 27.3465 10.1979 27.1627 9.92031 27.1137L7.84849 26.7054L9.71301 20.417ZM7.43397 28.2978L9.21577 28.6244L9.87876 30.0536L9.96163 30.2169L12.1578 32.9936C12.3152 33.1998 12.5597 33.3202 12.8208 33.3202H17.586L19.3263 35.0352V36.8727C19.3305 37.1605 19.4879 37.4239 19.7407 37.5668L24.0916 40.0576L23.4286 41.5684C23.2462 41.9645 23.4099 42.43 23.8015 42.6301L28.8153 45.3659L29.6855 47.3667H1.92268L7.43397 28.2978Z" fill="#F8C32C"/>
<path d="M24.7134 0.0002091C22.4343 0.0002091 20.2382 1.18435 18.7051 3.26685C17.7251 4.62458 17.1367 6.21906 17.0062 7.88098C16.8736 9.54289 17.203 11.2089 17.9592 12.6993C18.5228 13.7446 19.1734 14.743 19.9068 15.6801C20.4289 16.362 20.9137 17.0705 21.3571 17.8034C22.3516 19.5184 23.2114 21.3069 23.9262 23.1524C24.0422 23.4606 24.3364 23.6709 24.672 23.6832C24.9973 23.677 25.2874 23.4872 25.4179 23.1932C26.2259 21.3659 27.152 19.5938 28.1942 17.885C28.6292 17.2072 29.0995 16.5538 29.603 15.925C30.3862 14.9675 31.0781 13.9426 31.6748 12.8625C32.5097 11.2251 32.8226 9.37945 32.5719 7.56429C32.3191 5.74924 31.5153 4.05059 30.2659 2.69496C28.884 1.06367 26.8682 0.0838875 24.7134 0.0002091ZM30.266 12.0868C29.7149 13.079 29.0768 14.0223 28.3599 14.9043C27.8254 15.5862 27.3261 16.2946 26.8682 17.0276C25.9565 18.5384 25.2521 19.845 24.7964 20.825C24.3406 19.845 23.719 18.4976 22.8488 17.0276C22.3682 16.2375 21.8419 15.4739 21.2742 14.7409C20.5905 13.8794 19.9814 12.9647 19.451 12.0051C18.8294 10.778 18.5601 9.40809 18.6699 8.04023C18.7797 6.67435 19.2645 5.36362 20.0725 4.24685C21.3156 2.5727 22.9731 1.63353 24.7548 1.63353C26.4599 1.6907 28.0574 2.46242 29.1471 3.75685C31.2293 6.03942 31.6749 9.34856 30.266 12.0868Z" fill="#F8C32C"/>
<path d="M24.8378 4.49194C23.257 4.50827 21.9082 5.62304 21.6161 7.15219C21.324 8.68344 22.1672 10.2044 23.6341 10.7884C25.0989 11.3702 26.7771 10.8516 27.6452 9.55111C28.5112 8.24853 28.3247 6.52332 27.1997 5.43106C26.574 4.81651 25.7225 4.47767 24.8378 4.49194ZM24.8378 9.39191C23.922 9.39191 23.1803 8.66101 23.1803 7.75858C23.1803 6.85615 23.922 6.12526 24.8378 6.12526C25.7536 6.12526 26.4953 6.85615 26.4953 7.75858C26.4953 8.66101 25.7536 9.39191 24.8378 9.39191Z" fill="#F8C32C"/>
</svg>
