<svg width="50" height="50" viewBox="0 0 50 50" fill="none" xmlns="http://www.w3.org/2000/svg">
<path fill-rule="evenodd" clip-rule="evenodd" d="M25 0C11.1937 0 0 11.1937 0 25C0 38.8063 11.1937 50 25 50C38.8063 50 50 38.8063 50 25C50 11.1937 38.8063 0 25 0ZM18.125 12.5C16.0547 12.5 14.375 14.1797 14.375 16.25V33.75C14.375 35.8203 16.0547 37.5 18.125 37.5C20.1953 37.5 21.875 35.8203 21.875 33.75V16.25C21.875 14.1797 20.1953 12.5 18.125 12.5ZM31.875 12.5C29.8047 12.5 28.125 14.1797 28.125 16.25V33.75C28.125 35.8203 29.8047 37.5 31.875 37.5C33.9453 37.5 35.625 35.8203 35.625 33.75V16.25C35.625 14.1797 33.9453 12.5 31.875 12.5Z" fill="#F8C32C"/>
</svg>
