<svg width="46" height="28" viewBox="0 0 46 28" fill="none" xmlns="http://www.w3.org/2000/svg">
<path d="M33.5675 10.8916C33.5675 10.4941 33.8929 10.1715 34.2939 10.1715C34.6948 10.1715 35.0202 10.4941 35.0202 10.8916V15.835C35.0202 16.2326 34.6948 16.5552 34.2939 16.5552C33.8929 16.5552 33.5675 16.2326 33.5675 15.835V10.8916ZM30.0684 24.2759V20.3377H0V22.3911L2.92985 24.2759H6.56141C6.74677 23.5257 7.13829 22.8563 7.6717 22.3274C8.43205 21.5735 9.4837 21.1065 10.6431 21.1065C11.8026 21.1065 12.8542 21.5735 13.6146 22.3274C14.148 22.8563 14.5376 23.5257 14.7249 24.2759H30.0699H30.0684ZM30.0684 18.8975V0H1.88793V18.8975H30.0684ZM31.521 9.34625V24.2759H35.6008C35.7862 23.5257 36.1777 22.8563 36.7111 22.3274L36.7546 22.288C37.5131 21.5585 38.5458 21.1084 39.6826 21.1084C40.8401 21.1084 41.8899 21.5754 42.6521 22.3312C43.1855 22.8619 43.5751 23.5295 43.7624 24.2759H46V18.4813L44.2429 16.2834C44.1804 16.2047 44.1332 16.1109 44.1067 16.0078L42.4309 9.34661L31.521 9.34625ZM12.586 23.3455C12.0886 22.8523 11.4001 22.5465 10.6416 22.5465C9.88317 22.5465 9.19468 22.8522 8.69725 23.3455C8.19982 23.8386 7.89148 24.5194 7.89148 25.2733C7.89148 26.0271 8.19979 26.7079 8.69725 27.2011C9.19468 27.6943 9.88317 28 10.6416 28C11.402 28 12.0886 27.6943 12.586 27.2011C13.0835 26.7079 13.3918 26.0271 13.3918 25.2733C13.3918 24.5213 13.0835 23.8386 12.586 23.3455ZM41.6274 23.3436C41.1318 22.8523 40.4433 22.5465 39.683 22.5465C38.9396 22.5465 38.2644 22.8372 37.7556 23.3267C37.243 23.8368 36.9347 24.5194 36.9347 25.2714C36.9347 26.0253 37.243 26.7079 37.7386 27.2011C38.2341 27.6924 38.9226 27.9981 39.6849 27.9981C40.4452 27.9981 41.1337 27.6924 41.6312 27.2011C42.1267 26.7098 42.435 26.0271 42.435 25.2714C42.435 24.5175 42.1286 23.8349 41.6312 23.3417L41.6274 23.3436Z" fill="white"/>
</svg>
