<svg width="46" height="38" viewBox="0 0 46 38" fill="none" xmlns="http://www.w3.org/2000/svg">
<path d="M41.2149 24.5052C41.3396 24.6795 41.3013 24.9249 41.0365 25.6456C40.4493 27.2224 39.3248 29.1721 38.1023 30.7343C37.471 31.5335 35.8748 33.1224 35.0519 33.77C32.9753 35.4078 30.2061 36.7638 27.6439 37.3968C25.9915 37.8025 24.4178 38 22.8323 38C22.311 38 21.783 37.9778 21.2642 37.9345C17.5296 37.62 14.1194 36.341 11.1289 34.1333C9.60632 33.009 7.50105 30.7796 6.63421 29.3832C6.63421 29.3858 6.63421 29.3883 6.6337 29.3908C6.61377 29.8534 6.60355 30.0852 6.23503 30.0852H5.85681V28.067L5.57059 27.5222C5.38659 27.1669 5.13053 26.6363 4.99508 26.3092L4.86373 26.0059L3.54608 27.5136L3.48986 28.0256C3.45051 28.3764 3.41268 28.7196 3.40655 28.8571C3.38866 29.0683 3.36617 29.3243 3.00788 29.3243C2.62966 29.3243 2.62966 29.1081 2.62966 28.5855V28.5507C2.50393 28.6853 2.23509 28.9443 2.03269 28.9443C1.76282 28.9443 1.69229 28.8365 1.68411 28.7377C1.67798 28.7196 1.66571 28.6863 1.65395 28.6561C1.60386 28.5079 1.70353 28.3003 1.98669 27.9616C1.72755 28.0115 1.4076 28.0559 1.2788 28.0004C1.13262 27.9591 1.0396 27.7903 1.06771 27.5958C1.11115 27.3095 1.31151 27.2632 2.05671 27.0903C2.47122 26.9991 2.81315 26.9165 2.90311 26.8928C3.04264 26.7643 3.91664 25.7756 4.27442 25.3351C3.70555 25.1678 2.30204 24.8025 2.17529 24.7939C2.12673 24.7974 1.75055 24.8947 1.2742 25.066C0.526444 25.3271 0.290822 25.3649 0.125733 25.2495C0.0689998 25.2102 0 25.132 0 24.9894C0 24.7042 0.278044 24.5364 0.735999 24.3761C0.231533 24.232 0 24.1358 0 23.8344C0 23.6676 0.0751332 23.5759 0.138511 23.5275C0.307688 23.3995 0.571932 23.4343 0.941465 23.5305C0.962932 23.5361 0.983376 23.5411 1.0028 23.5457C0.985421 23.519 0.96651 23.4912 0.946576 23.462C0.716577 23.1274 0.585732 22.8633 0.693577 22.6623C0.734977 22.5852 0.825954 22.4929 1.02324 22.4929C1.24915 22.4929 1.42906 22.6955 1.82211 23.265L2.25655 23.8888L3.41268 24.2013C3.81544 24.3086 4.12057 24.3892 4.32502 24.4417C4.30559 24.3716 4.28106 24.2875 4.25142 24.1862C4.16044 23.8762 4.01988 23.2922 3.93197 22.8558L3.78733 22.1629L3.22715 21.4604C2.69048 20.7796 2.56015 20.5347 2.61944 20.32C2.6404 20.2459 2.69662 20.1451 2.84893 20.0857C3.09784 19.9844 3.30177 20.2283 3.41064 20.3603C3.46379 20.4253 3.52973 20.5044 3.59617 20.5815C3.58135 20.386 3.57164 20.1088 3.60793 20.001C3.66977 19.8569 3.79602 19.7722 3.94884 19.7646C4.12875 19.7561 4.29128 19.8453 4.37664 19.9934C4.43695 20.1229 4.46608 20.3548 4.4717 20.5437C4.71295 20.135 4.87599 19.9682 5.06357 19.936C5.16426 19.9178 5.26444 19.9461 5.34877 20.0161C5.39119 20.0524 5.52561 20.1789 5.52561 20.3205C5.52561 20.3744 5.52561 20.4308 5.09066 21.1555C4.85044 21.5471 4.66593 21.8701 4.64548 21.9159C4.6373 22.0555 4.98997 23.6555 5.18777 24.2844C5.61506 23.8566 6.56879 22.7888 6.67255 22.5932C6.69452 22.5438 6.77783 22.1669 6.85501 21.6342C6.97257 20.771 6.9971 20.5911 7.33597 20.5911C7.46017 20.5911 7.56392 20.6354 7.6365 20.7196C7.74997 20.8506 7.77654 21.0598 7.72492 21.4458C7.90841 21.2482 8.06685 21.1353 8.2529 21.1595C8.4783 21.1933 8.5565 21.3253 8.58359 21.4009C8.65361 21.5954 8.55139 21.8419 8.2713 22.1543C8.31014 22.1442 8.35154 22.1326 8.3955 22.1205C8.89588 21.9789 9.08294 21.9255 9.25007 22.1649C9.32981 22.2652 9.36712 22.4259 9.3339 22.5408C9.30221 22.6245 9.22605 22.8195 7.70703 23.1309C7.51639 23.1697 7.34619 23.2357 7.31552 23.2554C7.2179 23.3335 6.27541 24.3983 5.88288 24.869C6.08221 24.9249 6.37457 25.0056 6.67663 25.0897L6.94241 25.1633C7.77143 25.3911 8.21201 25.4974 8.31934 25.4546C8.54372 25.3704 9.92014 24.9824 10.1343 25.0575C10.2866 25.1074 10.3791 25.2807 10.35 25.4692C10.3203 25.7358 10.0587 25.8199 9.72183 25.9167C10.0111 26.0033 10.2258 26.1198 10.2258 26.4004C10.2258 26.5637 10.1512 26.6544 10.0888 26.7018C9.92321 26.8288 9.66407 26.797 9.29914 26.7048C9.29761 26.7043 9.29556 26.7038 9.29352 26.7033C9.29914 26.7109 9.30476 26.7184 9.31039 26.7265C9.61961 27.1619 9.71212 27.4401 9.61245 27.63C9.5777 27.6956 9.48927 27.8044 9.28636 27.8044C9.12383 27.8044 8.96181 27.6966 8.57183 27.1286L8.20383 26.5945C8.14454 26.5088 8.10161 26.4453 8.0827 26.4191C8.08883 26.4347 7.92783 26.3299 6.74257 26.0059C6.30659 25.8895 5.95086 25.7972 5.71064 25.7368C5.86652 26.1203 6.15888 26.7718 6.38684 27.2012L6.66539 27.7323L7.39219 28.0901C8.08168 28.4227 8.29685 28.5623 8.29685 28.7876C8.29685 28.9559 8.20128 29.0411 8.14454 29.0768C7.99837 29.1691 7.78012 29.1575 7.46425 29.037C7.58334 29.2069 7.74997 29.4382 7.97639 29.741C10.8202 33.586 15.2715 36.2161 20.1899 36.9584C21.3613 37.1358 24.2961 37.1403 25.4242 36.9659C27.5856 36.6379 29.4829 36.0331 31.3955 35.0626C33.0918 34.1993 34.4074 33.262 35.7941 31.9296C37.8309 29.9693 39.2446 27.8472 40.2423 25.2515C40.4968 24.5863 40.5827 24.362 40.895 24.362C41.0401 24.3615 41.1474 24.4099 41.2149 24.5052ZM45.9892 13.7961C45.9417 13.5915 45.7188 13.4942 45.3273 13.3939C45.7454 13.217 45.8803 13.1369 45.9151 12.8854C45.936 12.7403 45.8992 12.631 45.8072 12.5599C45.6309 12.4218 45.3569 12.4929 44.6731 12.762L43.9412 13.0432L42.6077 12.6995C41.9509 12.5337 41.6325 12.4374 41.4781 12.383C41.7858 11.9315 42.6685 10.7231 42.8045 10.5739C42.8086 10.5694 42.9108 10.4666 43.4837 10.3345C44.1323 10.1763 44.4584 10.0967 44.4584 9.71873C44.4584 9.61945 44.4175 9.53328 44.3429 9.47482C44.2141 9.37252 44.0204 9.36295 43.6258 9.44459C43.7965 9.18758 43.8487 8.96383 43.7761 8.79502C43.7245 8.67458 43.6161 8.59596 43.4648 8.57278C43.2399 8.5501 43.0805 8.70683 42.92 8.91596C42.8949 8.4982 42.8377 8.21196 42.4743 8.21196C42.1094 8.21196 42.1048 8.35458 42.0751 9.28534L42.0557 10.1083L41.4056 10.9917C41.2609 11.1882 41.0212 11.5127 40.8541 11.7168C40.7621 11.5032 40.599 11.157 40.3624 10.6681L39.8155 9.57158L39.9238 8.96383C40.0486 8.2417 40.0762 8.04718 39.954 7.90406C39.8625 7.79723 39.7317 7.79723 39.6611 7.79723C39.3253 7.79723 39.2226 8.09858 39.1454 8.51432C38.4529 7.48076 37.2369 6.04807 36.2996 5.17526C33.4184 2.49383 29.7471 0.756262 25.6833 0.15003C24.9877 0.0447077 21.9527 -0.0449923 21.4677 0.0245506C21.3557 0.0386607 20.9571 0.087038 20.5947 0.128361C19.1201 0.286596 17.2939 0.741648 15.8281 1.31664C10.4282 3.43014 6.28717 7.77556 4.46557 13.2387C4.20593 14.0143 4.17015 14.2748 4.29997 14.4517C4.36948 14.5464 4.47784 14.5943 4.62299 14.5943C4.93886 14.5943 4.99253 14.4381 5.3411 13.4211C6.34083 10.5119 7.68812 8.36365 9.84501 6.23654C12.7174 3.41099 16.1255 1.70567 20.2645 1.02234C20.8589 0.923568 21.3772 0.900388 23.0368 0.900388C24.8103 0.900388 25.1369 0.918529 25.9475 1.06265C28.4228 1.49856 30.4985 2.24891 32.4806 3.42409C33.812 4.20771 34.7846 4.95756 35.9489 6.09847C37.0545 7.18192 37.4593 7.6531 38.227 8.7547L38.3159 8.88018C38.204 8.83432 38.1084 8.793 38.0736 8.77839C37.8508 8.67256 37.6908 8.65593 37.5288 8.87968C37.4465 8.98752 37.4204 9.09687 37.4501 9.20371C37.5104 9.41989 37.7665 9.55696 38.457 9.83514L39.1132 10.0962L39.5707 11.0431C39.7705 11.4528 39.9479 11.8438 40.0368 12.0509L37.906 11.5147L37.4593 10.8732C37.0473 10.268 36.8802 10.0795 36.6389 10.0795C36.4422 10.0795 36.3517 10.1708 36.3103 10.2479C36.1999 10.4545 36.3461 10.7387 36.6159 11.1282C36.6313 11.1509 36.6456 11.1736 36.6594 11.1947C36.64 11.1897 36.62 11.1842 36.5991 11.1791C36.1253 11.0557 35.9658 11.0133 35.7701 11.2058C35.6305 11.3495 35.6305 11.4825 35.6551 11.5692C35.7097 11.7607 35.9183 11.8902 36.3737 12.0121C36.3522 12.0202 36.3307 12.0278 36.3083 12.0353C35.9111 12.1809 35.6714 12.2691 35.6714 12.5685C35.6714 12.7101 35.7189 12.8144 35.8125 12.8784C35.9985 13.0054 36.2801 12.9348 37.032 12.6592L37.7797 12.3835L38.9681 12.6793C39.4255 12.7912 39.7531 12.8804 39.9489 12.9384C39.8283 13.1107 39.5993 13.4317 39.1679 14.0284L39.033 14.2123C38.227 15.3124 38.227 15.3124 37.4031 15.516L37.2686 15.5492C36.8669 15.651 36.6323 15.7392 36.5449 15.9126C36.4994 16.0018 36.4984 16.1031 36.5403 16.2018C36.6701 16.539 37.0197 16.4614 37.4613 16.357C37.2789 16.6362 37.2262 16.8549 37.2993 17.0227C37.3295 17.0923 37.4107 17.2127 37.6157 17.242C37.8329 17.2692 37.9913 17.1155 38.1626 16.8922C38.1682 17.2757 38.2157 17.6033 38.6098 17.6033C38.9579 17.6033 38.964 17.4597 39.0018 16.5259L39.034 15.708L39.8952 14.5273C40.2183 14.0929 40.4575 13.7875 40.6087 13.6041C40.8019 14.2415 41.1781 15.7569 41.1802 16.0169C41.1679 16.0633 41.0273 16.345 40.782 16.7083C40.3895 17.3115 40.297 17.566 40.4022 17.7555C40.4431 17.8285 40.53 17.9152 40.7145 17.9152C40.8633 17.9152 41.0202 17.822 41.3442 17.3589L41.3544 17.3443C41.3969 17.8316 41.4725 18.0508 41.634 18.1505C41.6882 18.1843 41.7495 18.2019 41.816 18.2019C41.8656 18.2019 41.9182 18.1919 41.9703 18.1722C42.2351 18.076 42.2371 17.951 42.2162 17.37L42.2417 17.3946C42.5786 17.7207 42.8239 17.8442 43.0161 17.7862C43.0851 17.766 43.2077 17.7026 43.2512 17.499C43.2594 17.4355 43.2762 17.3034 42.6169 16.5838C42.3337 16.281 42.1375 16.0587 42.068 15.9746C42.0214 15.6284 41.7148 14.2839 41.5752 13.787C41.5195 13.5955 41.4771 13.4367 41.448 13.3178C41.6724 13.3682 42.0276 13.4534 42.4728 13.5653L43.6948 13.8797L44.1926 14.5358C44.7017 15.2081 44.8617 15.3215 45.0283 15.3215C45.2394 15.3215 45.3329 15.2272 45.3743 15.1481C45.4786 14.946 45.3375 14.686 45.058 14.304C45.0273 14.2637 44.9987 14.2249 44.9716 14.1876C44.9895 14.1921 45.0079 14.1967 45.0268 14.2017C45.4929 14.3196 45.7434 14.3116 45.8916 14.1735C45.9565 14.111 46.0275 13.9976 45.9892 13.7961ZM29.1824 26.1822C28.3973 28.4751 26.3099 30.1351 23.7339 30.5141C23.2969 30.5801 22.9381 30.6128 22.5793 30.6128C22.2205 30.6128 21.8617 30.5801 21.4242 30.5141C18.5216 30.0857 16.2073 28.0221 15.6655 25.3785C15.4805 24.4734 15.5454 23.2075 15.8347 22.0737C16.3412 20.0685 17.6195 17.2057 19.3425 14.2189C19.6926 13.6086 20.2021 12.7121 20.4919 12.1865C21.0148 11.2482 21.7927 9.92887 22.6263 8.56673C23.0562 7.85266 23.1569 7.86727 23.2126 7.85619C23.2969 7.83956 23.3838 7.86375 23.4411 7.96403C23.4814 8.05373 23.8438 8.81064 24.3028 9.76257C26.1745 13.6393 26.8404 15.2202 28.2624 19.1619C29.535 22.688 29.7671 24.4598 29.1824 26.1822ZM27.5892 23.3199C27.4839 23.2015 27.3367 23.1355 27.1926 23.146C27.0832 23.1551 26.9887 23.2111 26.9314 23.3023C26.9135 23.332 26.8583 23.4227 26.8732 24.0224C26.8808 24.7823 26.7576 25.3729 26.4862 25.8809C26.1729 26.467 25.5468 27.175 24.7296 27.4048C24.3309 27.5167 24.0871 27.621 24.0207 27.8236C23.9951 27.9022 23.9879 28.0251 24.1101 28.1768C24.2578 28.3265 24.4868 28.334 24.5312 28.334C25.0562 28.334 25.947 27.9067 26.4765 27.4013C27.2534 26.6595 27.4717 25.9918 27.6592 25.2575C27.785 24.7667 27.7937 23.5688 27.5892 23.3199Z" fill="white"/>
</svg>
