<svg width="46" height="50" viewBox="0 0 46 50" fill="none" xmlns="http://www.w3.org/2000/svg">
<path d="M41.0714 11.7586L41.7812 12.4631C41.9671 12.2758 42.0714 12.0225 42.0714 11.7586H41.0714ZM41.0714 7.62068H42.0714C42.0714 7.0684 41.6237 6.62068 41.0714 6.62068V7.62068ZM26.2857 7.62068V6.62068C25.7334 6.62068 25.2857 7.0684 25.2857 7.62068H26.2857ZM26.2857 11.7586H25.2857C25.2857 12.0225 25.39 12.2758 25.576 12.4631L26.2857 11.7586ZM30.3929 20.8621H29.3929C29.3929 21.4144 29.8406 21.8621 30.3929 21.8621V20.8621ZM44.3571 45.6896H45.3571C45.3571 45.1374 44.9094 44.6896 44.3571 44.6896V45.6896ZM44.3571 49V50C44.9094 50 45.3571 49.5523 45.3571 49H44.3571ZM18.0714 49H17.0714C17.0714 49.5523 17.5191 50 18.0714 50V49ZM18.0714 45.6896V44.6896C17.5191 44.6896 17.0714 45.1374 17.0714 45.6896H18.0714ZM25.4643 29.1381H24.4643C24.4643 29.6904 24.912 30.1381 25.4643 30.1381V29.1381ZM25.4643 20.8622V19.8622C24.912 19.8622 24.4643 20.31 24.4643 20.8622H25.4643ZM19.7143 32.4485V31.4485C19.162 31.4485 18.7143 31.8962 18.7143 32.4485H19.7143ZM42.7143 32.4485H43.7143C43.7143 31.8962 43.2666 31.4485 42.7143 31.4485V32.4485ZM18.676 41.7598C19.065 42.1517 19.6982 42.1541 20.0902 41.765C20.4821 41.376 20.4845 40.7428 20.0954 40.3508L18.676 41.7598ZM10.6786 32.2829L9.96882 31.5784C9.58181 31.9683 9.58181 32.5974 9.96882 32.9873L10.6786 32.2829ZM12.9786 29.9656L13.6883 29.2611C13.5006 29.072 13.2451 28.9656 12.9786 28.9656C12.7121 28.9656 12.4566 29.072 12.2688 29.2611L12.9786 29.9656ZM18.5117 36.9597C18.9007 37.3517 19.5339 37.3541 19.9259 36.965C20.3179 36.576 20.3202 35.9428 19.9312 35.5508L18.5117 36.9597ZM27.1071 4.48288H28.75V2.48288H27.1071V4.48288ZM30.3929 2H32.0357V0H30.3929V2ZM34.5 5.31024H36.1429V3.31024H34.5V5.31024ZM37.7857 3.65532H39.4286V1.65532H37.7857V3.65532ZM4.92856 30.9656H6.57142V28.9656H4.92856V30.9656ZM4.10715 26.8278H5.75001V24.8278H4.10715V26.8278ZM0.821437 30.138H2.46429V28.138H0.821437V30.138ZM2.46429 20.2069H4.10714V18.2069H2.46429V20.2069ZM5.75 22.6896H7.39286V20.6896H5.75V22.6896ZM0 24.3449H1.64286V22.3449H0V24.3449ZM8.21429 29.3103H9.85714V27.3103H8.21429V29.3103ZM9.85715 26H11.5V24H9.85715V26ZM37.674 16.601L41.7812 12.4631L40.3617 11.0542L36.2545 15.1921L37.674 16.601ZM42.0714 11.7586V7.62068H40.0714V11.7586H42.0714ZM41.0714 6.62068H26.2857V8.62068H41.0714V6.62068ZM25.2857 7.62068V11.7586H27.2857V7.62068H25.2857ZM25.576 12.4631L29.6831 16.601L31.1026 15.1921L26.9955 11.0542L25.576 12.4631ZM29.3929 15.8966V20.8621H31.3929V15.8966H29.3929ZM30.3929 21.8621H36.9643V19.8621H30.3929V21.8621ZM37.9643 20.8621V15.8966H35.9643V20.8621H37.9643ZM26.2857 12.7586L32.8571 12.7587L32.8571 10.7587L26.2857 10.7586L26.2857 12.7586ZM34.5 12.7587H36.1429V10.7587H34.5V12.7587ZM37.7857 12.7587L41.0714 12.7586L41.0714 10.7586L37.7857 10.7587L37.7857 12.7587ZM30.3929 16.8966H36.9643V14.8966H30.3929V16.8966ZM36.1429 46.6896H44.3571V44.6896H36.1429V46.6896ZM43.3571 45.6896V49H45.3571V45.6896H43.3571ZM44.3571 48H18.0714V50H44.3571V48ZM19.0714 49V45.6896H17.0714V49H19.0714ZM18.0714 46.6896H31.2143V44.6896H18.0714V46.6896ZM32.8571 46.6896H34.5V44.6896H32.8571V46.6896ZM40.25 28.1381H25.4643V30.1381H40.25V28.1381ZM26.4643 29.1381V20.8622H24.4643V29.1381H26.4643ZM25.4643 21.8622H40.25V19.8622H25.4643V21.8622ZM40.25 21.8622C40.5943 21.8622 40.8929 22.1523 40.8929 22.5174H42.8929C42.8929 21.0618 41.7129 19.8622 40.25 19.8622V21.8622ZM40.8929 22.5174V27.483H42.8929V22.5174H40.8929ZM40.8929 27.483C40.8929 27.8481 40.5943 28.1381 40.25 28.1381V30.1381C41.7129 30.1381 42.8929 28.9385 42.8929 27.483H40.8929ZM35.9643 20.8621L35.9643 29.1381L37.9643 29.1381L37.9643 20.8621H35.9643ZM41.8929 26H46V24H41.8929V26ZM16.4286 26H24.6429V24H16.4286V26ZM21.1786 22.5172V27.4827H23.1786V22.5172H21.1786ZM17.8929 22.5172V27.4827H19.8929V22.5172H17.8929ZM25.4643 26H29.5714V24H25.4643V26ZM31.2143 26H32.8571V24H31.2143V26ZM34.5 26H36.9643V24H34.5V26ZM20.7143 45.6899V32.4485H18.7143V45.6899H20.7143ZM19.7143 33.4485H42.7143V31.4485H19.7143V33.4485ZM41.7143 32.4485V45.6899H43.7143V32.4485H41.7143ZM30.2143 29.138V32.4484H32.2143V29.138H30.2143ZM35.1429 29.138V32.4484H37.1429V29.138H35.1429ZM33.5 39.0691C33.5 40.3521 32.4696 41.3794 31.2143 41.3794V43.3794C33.5882 43.3794 35.5 41.4426 35.5 39.0691H33.5ZM31.2143 41.3794C29.9589 41.3794 28.9286 40.3521 28.9286 39.0691H26.9286C26.9286 41.4426 28.8403 43.3794 31.2143 43.3794V41.3794ZM28.9286 39.0691C28.9286 37.786 29.9589 36.7587 31.2143 36.7587V34.7587C28.8403 34.7587 26.9286 36.6956 26.9286 39.0691H28.9286ZM31.2143 36.7587C32.4696 36.7587 33.5 37.786 33.5 39.0691H35.5C35.5 36.6956 33.5882 34.7587 31.2143 34.7587V36.7587ZM22 32.4485V45.6899H24V32.4485H22ZM38.4286 32.4485V45.6899H40.4286V32.4485H38.4286ZM32.8045 36.0474L28.2045 40.6819L29.624 42.0908L34.224 37.4563L32.8045 36.0474ZM20.0954 40.3508L11.3883 31.5784L9.96882 32.9873L18.676 41.7598L20.0954 40.3508ZM11.3883 32.9873L13.6883 30.6701L12.2688 29.2611L9.96882 31.5784L11.3883 32.9873ZM12.2688 30.6701L18.5117 36.9597L19.9312 35.5508L13.6883 29.2611L12.2688 30.6701ZM13.8526 35.6357L16.3169 33.1529L14.8974 31.744L12.4331 34.2268L13.8526 35.6357ZM39.4286 36.7587H42.7143V34.7587H39.4286V36.7587ZM39.4286 43.3794H42.7143V41.3794H39.4286V43.3794ZM39.4286 40.069H42.7143V38.069H39.4286V40.069Z" fill="white"/>
</svg>
