<svg width="46" height="46" viewBox="0 0 46 46" fill="none" xmlns="http://www.w3.org/2000/svg">
<path fill-rule="evenodd" clip-rule="evenodd" d="M0.462144 10.0421C0.181046 10.1722 0 10.4546 0 10.7639C0 11.0748 0.181046 11.3555 0.463732 11.4856L22.221 21.428C22.4275 21.5216 22.6641 21.5231 22.8706 21.4327L45.5252 11.4904C45.8142 11.3635 46 11.0779 46 10.7639C46 10.4498 45.8142 10.1643 45.5267 10.0374L22.8722 0.0664544C22.6641 -0.0239596 22.4259 -0.0223735 22.221 0.0727992L0.462144 10.0421ZM2.69981 10.7623L22.5577 1.66218L43.2351 10.7623L22.5577 19.837L2.69981 10.7623Z" fill="white"/>
<path fill-rule="evenodd" clip-rule="evenodd" d="M0.493906 36.0798L22.2512 45.9286C22.4561 46.0222 22.6911 46.0238 22.8976 45.9334L45.495 36.0703C45.8968 35.8958 46.081 35.4279 45.9047 35.0266C45.73 34.6253 45.2615 34.4413 44.8597 34.6173L22.5863 44.3392L1.1498 34.6348C0.751183 34.4539 0.27951 34.6316 0.0984638 35.0297C-0.0825823 35.4295 0.0952875 35.899 0.493906 36.0798Z" fill="white"/>
<path fill-rule="evenodd" clip-rule="evenodd" d="M0 10.7068V35.3438C0 35.7816 0.35574 36.1369 0.794062 36.1369C1.23238 36.1369 1.58812 35.7816 1.58812 35.3438V10.7068C1.58812 10.269 1.23238 9.91366 0.794062 9.91366C0.35574 9.91366 0 10.269 0 10.7068Z" fill="white"/>
<path fill-rule="evenodd" clip-rule="evenodd" d="M44.4119 10.7068V35.3438C44.4119 35.7816 44.7676 36.1369 45.2059 36.1369C45.6443 36.1369 46 35.7816 46 35.3438V10.7068C46 10.269 45.6443 9.91366 45.2059 9.91366C44.7676 9.91366 44.4119 10.269 44.4119 10.7068Z" fill="white"/>
<path fill-rule="evenodd" clip-rule="evenodd" d="M21.7573 20.5556L21.7239 45.1783C21.7239 45.6161 22.0797 45.9714 22.518 45.973C22.9563 45.973 23.3121 45.6177 23.3121 45.1799L23.3454 20.5571C23.3454 20.1193 22.9913 19.764 22.5529 19.7624C22.1146 19.7624 21.7573 20.1178 21.7573 20.5556Z" fill="white"/>
<path fill-rule="evenodd" clip-rule="evenodd" d="M13.8389 5.4453L34.8815 15.532C35.277 15.7208 35.7518 15.5542 35.9408 15.1593C36.1314 14.7643 35.9646 14.29 35.5692 14.1013L14.5266 4.01454C14.1311 3.82578 13.6563 3.99233 13.4673 4.3873C13.2783 4.78068 13.4451 5.25495 13.8389 5.4453Z" fill="white"/>
<path fill-rule="evenodd" clip-rule="evenodd" d="M10.7849 6.7222L31.5195 16.985C31.9133 17.1785 32.3898 17.0183 32.5835 16.6265C32.7789 16.2347 32.6185 15.7573 32.2246 15.5637L11.4901 5.30095C11.0978 5.10585 10.6198 5.26764 10.426 5.65944C10.2307 6.05123 10.3927 6.52709 10.7849 6.7222Z" fill="white"/>
<path fill-rule="evenodd" clip-rule="evenodd" d="M31.078 16.2744V21.7944C31.078 22.0656 31.2177 22.3178 31.448 22.4638C31.6767 22.6097 31.9658 22.6271 32.2119 22.5114L35.5644 20.9283C35.9615 20.7411 36.1314 20.2684 35.944 19.8735C35.7566 19.4769 35.2833 19.3072 34.8863 19.4944L32.6661 20.5413V16.2744C32.6661 15.8366 32.3104 15.4813 31.8721 15.4813C31.4337 15.4813 31.078 15.8366 31.078 16.2744Z" fill="white"/>
<path fill-rule="evenodd" clip-rule="evenodd" d="M34.4321 14.8166V20.2113C34.4321 20.6491 34.7878 21.0045 35.2262 21.0045C35.6645 21.0045 36.0202 20.6491 36.0202 20.2113V14.8166C36.0202 14.3788 35.6645 14.0235 35.2262 14.0235C34.7878 14.0235 34.4321 14.3788 34.4321 14.8166Z" fill="white"/>
</svg>
