<svg width="46" height="46" viewBox="0 0 46 46" fill="none" xmlns="http://www.w3.org/2000/svg">
<path d="M38.7811 31.0605C39.0227 30.7775 38.9892 30.3521 38.7062 30.1105L38.1128 29.6038C37.8297 29.3622 37.4044 29.3958 37.1628 29.6787C36.9212 29.9617 36.9547 30.3871 37.2377 30.6287L37.8311 31.1354C37.9581 31.2438 38.1136 31.2968 38.2683 31.2968C38.4587 31.2968 38.6479 31.2166 38.7811 31.0605Z" fill="white"/>
<path d="M7.78739 42.7723C7.96483 42.7723 8.142 42.7027 8.27425 42.5644L9.22381 41.5721C9.48112 41.3033 9.47178 40.8768 9.20288 40.6194C8.93388 40.3621 8.5073 40.3715 8.25017 40.6404L7.30061 41.6326C7.0433 41.9014 7.05264 42.328 7.32155 42.5853C7.45218 42.7103 7.61983 42.7723 7.78739 42.7723Z" fill="white"/>
<path d="M34.9218 39.2868C35.294 39.2868 35.5956 38.9852 35.5956 38.613C35.5956 38.2407 35.294 37.9391 34.9218 37.9391H33.4587C33.0865 37.9391 32.7849 38.2407 32.7849 38.613C32.7849 38.9852 33.0865 39.2868 33.4587 39.2868H34.9218Z" fill="white"/>
<path d="M42.8752 32.1649C42.5396 32.0041 42.1372 32.1459 41.9765 32.4817L41.5809 33.3084C41.4201 33.6441 41.5621 34.0465 41.8976 34.2071C41.9915 34.252 42.0905 34.2733 42.1881 34.2733C42.4394 34.2733 42.6805 34.1321 42.7964 33.8902L43.192 33.0635C43.3528 32.7278 43.2109 32.3255 42.8752 32.1649Z" fill="white"/>
<path d="M1.7648 34.2408L2.08132 35.0672C2.1841 35.3354 2.43962 35.5001 2.71068 35.5001C2.79082 35.5001 2.8723 35.4858 2.95155 35.4554C3.29906 35.3223 3.47291 34.9327 3.33976 34.5851L3.02324 33.7587C2.89018 33.4114 2.50062 33.2373 2.15293 33.3705C1.8055 33.5036 1.63165 33.8933 1.7648 34.2408Z" fill="white"/>
<path d="M3.50274 40.584L2.8396 41.0518C2.53548 41.2664 2.46289 41.6867 2.67743 41.9908C2.8087 42.1769 3.01695 42.2763 3.22863 42.2763C3.36285 42.2763 3.49843 42.2363 3.61648 42.1531L4.27962 41.6853C4.58374 41.4706 4.65633 41.0503 4.44178 40.7462C4.22724 40.442 3.80677 40.3697 3.50274 40.584Z" fill="white"/>
<path d="M3.48513 27.9668H2.97077C2.59864 27.9668 2.29695 28.2684 2.29695 28.6406C2.29695 29.0128 2.59864 29.3144 2.97077 29.3144H3.48513C3.85726 29.3144 4.15896 29.0128 4.15896 28.6406C4.15896 28.2684 3.85726 27.9668 3.48513 27.9668Z" fill="white"/>
<path d="M37.2981 35.3596V35.9451C37.2981 36.3174 37.5997 36.619 37.9719 36.619C38.3441 36.619 38.6458 36.3174 38.6458 35.9451V35.3596C38.6458 34.9874 38.3441 34.6858 37.9719 34.6858C37.5997 34.6858 37.2981 34.9875 37.2981 35.3596Z" fill="white"/>
<path d="M36.4846 41.1319C36.1123 41.1319 35.8107 41.4335 35.8107 41.8057V42.3912C35.8107 42.7634 36.1123 43.065 36.4846 43.065C36.8568 43.065 37.1584 42.7634 37.1584 42.3912V41.8057C37.1584 41.4336 36.8567 41.1319 36.4846 41.1319Z" fill="white"/>
<path d="M6.73981 36.7768V36.1913C6.73981 35.8191 6.43811 35.5175 6.06598 35.5175C5.69385 35.5175 5.39215 35.8191 5.39215 36.1913V36.7768C5.39215 37.149 5.69385 37.4507 6.06598 37.4507C6.43811 37.4507 6.73981 37.149 6.73981 36.7768Z" fill="white"/>
<path d="M42.5843 38.2489C42.2121 38.2489 41.9105 38.5505 41.9105 38.9227V39.5108C41.9105 39.883 42.2121 40.1846 42.5843 40.1846C42.9565 40.1846 43.2581 39.883 43.2581 39.5108V38.9227C43.2581 38.5506 42.9565 38.2489 42.5843 38.2489Z" fill="white"/>
<path d="M45.3262 44.6523H0.673828C0.301695 44.6523 0 44.954 0 45.3262C0 45.6984 0.301695 46 0.673828 46H45.3262C45.6984 46 46 45.6984 46 45.3262C46 44.954 45.6983 44.6523 45.3262 44.6523Z" fill="white"/>
<path d="M0.673828 22.9269H45.3262C45.6984 22.9269 46 22.6253 46 22.253C46 21.8808 45.6984 21.5792 45.3262 21.5792H23.4436C23.0535 20.5952 22.7597 19.2934 22.5366 17.7628C23.0287 17.5037 23.5002 17.1768 23.9384 16.8214C24.2566 16.9776 24.6172 17.0561 25.0066 17.0561C25.4765 17.0561 25.9884 16.9416 26.517 16.711C26.8581 16.5623 27.0139 16.1651 26.8652 15.8239C26.7165 15.4829 26.3194 15.3269 25.9781 15.4758C25.6802 15.6057 25.3981 15.681 25.1477 15.7014C26.1104 14.6995 26.739 13.7798 26.7858 13.7107C26.9944 13.4026 26.9139 12.9841 26.606 12.7753C26.2979 12.5665 25.8791 12.647 25.6702 12.9548C25.6592 12.9708 25.0214 13.9021 24.0761 14.8692C24.0522 14.6735 24.0615 14.4497 24.1059 14.2064C24.235 13.4976 24.6485 12.7019 25.2406 12.0233C25.8327 11.3445 26.5649 10.8268 27.2495 10.6027C27.8147 10.4176 28.2958 10.4483 28.5695 10.687C29.1246 11.1713 28.9394 12.6762 27.7862 14.0617C27.5483 14.3478 27.5871 14.7726 27.8731 15.0107C28.1591 15.2485 28.584 15.2098 28.8221 14.9238C30.4179 13.0065 30.6901 10.7486 29.4555 9.67152C28.8056 9.1046 27.8734 8.98062 26.8301 9.32176C25.9082 9.62363 24.9829 10.2683 24.225 11.1372C23.4669 12.0062 22.9538 13.0104 22.78 13.9648C22.6471 14.6942 22.7179 15.3447 22.9782 15.8648C22.7754 16.0245 22.5662 16.1751 22.3526 16.3118C22.1394 14.3712 22.0123 12.1551 21.9309 9.80511C22.461 9.53837 22.9685 9.1904 23.4377 8.80992C23.7549 8.96624 24.1144 9.04522 24.5042 9.04522C24.8511 9.04522 25.2218 8.9826 25.6078 8.85619C26.5298 8.55449 27.455 7.90968 28.2129 7.0408C28.971 6.17183 29.4841 5.16765 29.6581 4.21324C29.8547 3.1335 29.6051 2.22671 28.9553 1.6598C28.3055 1.09279 27.3731 0.968627 26.33 1.31012C25.408 1.61182 24.4828 2.25663 23.7249 3.12551C22.9668 3.99447 22.4537 4.99866 22.2798 5.95307C22.1469 6.68242 22.2177 7.33289 22.478 7.85299C22.2854 8.00465 22.0871 8.14822 21.8846 8.2793C21.8267 6.09727 21.7996 3.82979 21.7726 1.58325L21.7615 0.665495C21.7573 0.321214 21.4941 0.0354207 21.1513 0.00289723C20.8084 -0.0287278 20.4962 0.201721 20.4274 0.538995C19.8959 3.14356 19.3777 5.77239 18.9535 8.31272C18.7316 8.17194 18.5144 8.0157 18.304 7.84994C18.8636 6.70694 18.508 4.9647 17.3152 3.4343C17.0867 3.14087 16.6631 3.08822 16.3695 3.31696C16.076 3.54579 16.0235 3.96914 16.2523 4.26266C16.9955 5.21635 17.2855 6.19564 17.2071 6.85438C16.2683 5.89332 15.6334 4.96856 15.6162 4.94331C15.4076 4.63515 14.9885 4.55456 14.6805 4.76318C14.3723 4.97179 14.2916 5.39073 14.5003 5.6989C14.5471 5.76808 15.1767 6.68898 16.1405 7.69163C15.4222 7.6371 14.4408 7.13173 13.5885 6.15459C12.9964 5.47591 12.5828 4.68025 12.4537 3.97147C12.347 3.38632 12.4428 2.91383 12.7165 2.67503C13.0657 2.37028 13.7446 2.40972 14.4882 2.77772C14.8218 2.94231 15.2259 2.80593 15.391 2.47252C15.5559 2.13902 15.4193 1.73481 15.0858 1.56977C13.8261 0.946616 12.6093 0.980217 11.8305 1.65962C11.1806 2.22653 10.931 3.13332 11.1278 4.21306C11.3016 5.16747 11.8148 6.17166 12.5728 7.04062C13.6954 8.32746 15.0978 9.04099 16.2794 9.04099C16.6644 9.04099 17.026 8.96517 17.3469 8.80884C17.7777 9.15842 18.2409 9.48051 18.7242 9.73746C18.2512 12.8068 17.9426 15.7113 17.9474 18.2434C17.6359 18.0665 17.3319 17.8559 17.041 17.6269C17.3013 17.1068 17.3721 16.4563 17.2392 15.727C17.0653 14.7726 16.5522 13.7684 15.7942 12.8994C15.0362 12.0305 14.1109 11.3857 13.189 11.084C12.1459 10.7422 11.2136 10.8665 10.5637 11.4336C9.91381 12.0005 9.66422 12.9073 9.86098 13.9871C10.0349 14.9415 10.548 15.9457 11.306 16.8146C12.064 17.6835 12.9892 18.3283 13.9112 18.6301C14.2972 18.7564 14.668 18.8191 15.015 18.8191C15.4046 18.8191 15.7642 18.7402 16.0813 18.5838C16.4461 18.8797 17.5369 19.6617 17.9908 19.7456C18.0284 20.3887 18.0914 21.0013 18.1826 21.5792H0.673828C0.301695 21.5792 0 21.8808 0 22.253C0 22.6253 0.301695 22.9269 0.673828 22.9269ZM23.6058 6.19466C23.7349 5.48588 24.1485 4.69022 24.7405 4.01154C25.3326 3.33277 26.0648 2.81509 26.7494 2.59093C26.9937 2.51097 27.2223 2.47135 27.4252 2.47135C27.6918 2.47135 27.914 2.5399 28.0695 2.67539C28.3432 2.91401 28.4389 3.38659 28.3323 3.97174C28.2032 4.68052 27.7897 5.47618 27.1976 6.15485C26.6055 6.83362 25.8733 7.3513 25.1887 7.57546C24.9971 7.63808 24.8152 7.676 24.6477 7.68948C25.6104 6.68772 26.239 5.76817 26.2858 5.69908C26.4943 5.39109 26.4138 4.97242 26.1059 4.76372C25.7979 4.55483 25.379 4.63542 25.1701 4.94313C25.1591 4.95922 24.5213 5.89045 23.5761 6.85752C23.5522 6.66175 23.5615 6.43795 23.6058 6.19466ZM12.3222 15.9287C11.7301 15.25 11.3165 14.4543 11.1874 13.7456C11.0808 13.1604 11.1766 12.6879 11.4502 12.4491C11.6056 12.3136 11.8279 12.2451 12.0945 12.2451C12.2974 12.2451 12.526 12.2847 12.7702 12.3647C13.4548 12.5888 14.187 13.1067 14.7791 13.7854C15.3712 14.4641 15.7847 15.2597 15.9138 15.9685C15.9582 16.2118 15.9675 16.4356 15.9436 16.6313C14.9983 15.6642 14.3604 14.733 14.3496 14.7169C14.1408 14.409 13.7219 14.3283 13.414 14.5371C13.1059 14.7457 13.0252 15.1647 13.2339 15.4728C13.2807 15.5419 13.9093 16.4615 14.8719 17.4634C14.7045 17.4499 14.5225 17.412 14.3309 17.3492C13.6465 17.1252 12.9142 16.6075 12.3222 15.9287ZM20.5098 7.21232C20.6377 13.1661 20.9419 18.4339 22.0089 21.5791H19.549C18.9205 17.9808 19.5235 12.7769 20.5098 7.21232Z" fill="white"/>
<path d="M45.3262 25.3048H0.673828C0.301695 25.3048 0 25.6064 0 25.9786C0 26.3508 0.301695 26.6524 0.673828 26.6524H19.5546C19.5842 26.9146 19.6085 27.1817 19.6277 27.453C19.1716 28.0264 18.4216 28.119 17.2897 28.1954C16.4711 28.2507 15.5155 28.3152 14.8406 28.8482C14.6709 28.6638 14.4724 28.5053 14.2506 28.38C13.6493 28.0407 12.9299 27.9729 12.2766 28.1948C12.1023 28.2538 11.9349 28.3326 11.7791 28.4287C11.3639 28.6853 10.8936 28.6843 10.5722 28.6383C10.0559 28.5642 9.52667 28.6344 9.04178 28.841C7.73779 29.3967 7.0336 30.8479 7.40366 32.2167C7.61291 32.9906 8.11639 33.6239 8.82131 33.9999C9.23917 34.2227 9.70438 34.336 10.171 34.336C10.4808 34.336 10.7912 34.286 11.0888 34.1851C11.5289 34.0358 11.9296 33.7792 12.2474 33.4433C12.5337 33.1406 12.9103 32.951 13.3078 32.9094H13.3079C13.5678 32.8822 13.8217 32.8131 14.0627 32.704C15.0332 32.265 15.5991 31.2317 15.4662 30.1904C15.6902 29.704 16.2287 29.6176 17.3805 29.5399C18.1112 29.4906 18.9514 29.4339 19.6849 29.0824C19.686 29.4821 19.6786 29.888 19.6636 30.2984C18.1218 30.7989 16.6449 32.5587 15.9588 33.474C15.5605 33.2997 15.1194 33.233 14.6816 33.288C13.9968 33.3744 13.3791 33.7495 12.987 34.3172C12.8823 34.4687 12.7951 34.6317 12.7274 34.8017C12.5471 35.2555 12.1692 35.5353 11.8839 35.6901C11.4253 35.9389 11.0425 36.3108 10.7768 36.7659C10.0618 37.9897 10.3626 39.5746 11.4765 40.4525C11.5703 40.5264 11.6726 40.5966 11.7806 40.6615C11.8891 40.7267 12.0087 40.7576 12.1267 40.7576C12.3556 40.7576 12.5788 40.641 12.7052 40.4304C12.8967 40.1114 12.7932 39.6975 12.4742 39.5059C12.4139 39.4698 12.3603 39.433 12.3105 39.3938C11.7217 38.9298 11.5626 38.0923 11.9404 37.4454C12.0819 37.2032 12.2846 37.0057 12.5266 36.8746C13.2166 36.5002 13.7191 35.9555 13.9799 35.2993C14.0099 35.2237 14.049 35.151 14.0959 35.0831C14.2703 34.8305 14.5453 34.6635 14.8502 34.6251C15.1593 34.5857 15.4607 34.6788 15.6991 34.8861C16.0728 35.2108 16.173 35.7826 15.9325 36.2162C15.8742 36.3212 15.8012 36.4145 15.7154 36.4934C15.1843 36.9818 14.8439 37.6545 14.7569 38.3875C14.7278 38.633 14.641 38.8617 14.4993 39.067C14.4342 39.1612 14.3574 39.2488 14.2711 39.3275C13.9959 39.5782 13.9763 40.0044 14.2269 40.2795C14.4777 40.5545 14.9038 40.5741 15.1788 40.3235C15.3406 40.1761 15.4848 40.0111 15.608 39.8329C15.8722 39.4504 16.0406 39.0055 16.0951 38.5464C16.1442 38.1327 16.3333 37.7559 16.6276 37.4852C16.8197 37.3085 16.9824 37.1015 17.1108 36.87C17.5593 36.0618 17.4964 35.0762 16.9962 34.3354C17.663 33.4369 18.6734 32.3272 19.5773 31.8062C19.5221 32.5303 19.4478 33.2618 19.3595 33.9925H18.9947C18.6225 33.9925 18.3208 34.2941 18.3208 34.6663C18.3208 35.0385 18.6225 35.3401 18.9947 35.3401H19.1815C19.0559 36.2203 18.9143 37.0916 18.7657 37.939H17.9424C17.5703 37.939 17.2686 38.2407 17.2686 38.6129C17.2686 38.9851 17.5703 39.2867 17.9424 39.2867H18.5206C18.4653 39.5809 18.4097 39.8711 18.3544 40.1565C18.2273 40.3656 17.8836 40.8432 17.0897 41.4945C16.802 41.7305 16.7602 42.1551 16.9962 42.4428C17.1294 42.6053 17.3227 42.6893 17.5176 42.6893C17.668 42.6893 17.8193 42.6391 17.9446 42.5363C18.7132 41.9057 19.2951 41.2607 19.5849 40.7186C19.9899 40.0042 20.3673 39.3013 20.7174 38.6094L20.9261 38.8271C21.1876 39.1001 21.3136 39.472 21.2719 39.8475L21.2194 40.3211C21.1783 40.691 21.4448 41.0241 21.8147 41.0652C21.8399 41.0679 21.865 41.0694 21.8899 41.0694C22.2287 41.0694 22.5205 40.8144 22.5588 40.4698L22.6113 39.9963C22.6973 39.2228 22.4378 38.4568 21.8992 37.8947L21.3454 37.3168C21.888 36.1509 22.3501 35.0161 22.7327 33.9093C23.3304 34.4351 23.8655 35.2974 24.1805 35.8947C23.9878 36.1211 23.8364 36.3826 23.7369 36.6681C23.5099 37.32 23.5713 38.04 23.9056 38.6436C23.9948 38.8047 24.1021 38.9554 24.2243 39.0914C24.5507 39.4546 24.6334 39.9175 24.6452 40.2418C24.6643 40.7631 24.8272 41.2714 25.1167 41.7118C25.6583 42.5356 26.5748 42.9969 27.5138 42.9969C27.9247 42.9969 28.34 42.9086 28.73 42.7237C29.4544 42.3802 29.988 41.7721 30.2327 41.0115C30.4739 40.2615 30.3934 39.4362 30.0118 38.7472C29.7866 38.3406 29.463 37.992 29.0758 37.7389C28.7271 37.511 28.4736 37.1742 28.3621 36.7903L28.362 36.7901C28.289 36.5395 28.176 36.302 28.0257 36.084C27.4226 35.2092 26.3095 34.8357 25.3103 35.1473C24.9075 34.4007 24.1489 33.1956 23.1665 32.5516C23.46 31.548 23.6857 30.5673 23.8443 29.6072C24.3732 29.8788 24.9236 29.8837 25.4321 29.8883C26.1352 29.8947 26.8012 29.9006 27.6401 30.5424C27.5456 30.7738 27.4865 31.0203 27.4674 31.2736C27.4153 31.9619 27.6597 32.642 28.1375 33.1396C28.2653 33.2726 28.4077 33.3907 28.5606 33.4906C28.9692 33.7578 29.168 34.184 29.2626 34.4947C29.4149 34.9936 29.703 35.443 30.0957 35.7941C30.6342 36.2757 31.3172 36.5174 32.0009 36.5174C32.6585 36.5174 33.3168 36.2936 33.8476 35.8445C34.4597 35.3265 34.8192 34.6018 34.8603 33.8039C34.9008 33.0171 34.6112 32.2403 34.0656 31.6724C33.7437 31.3372 33.3414 31.0833 32.902 30.9381C32.5066 30.8073 32.1751 30.5469 31.9687 30.2045H31.9686C31.8337 29.9809 31.6635 29.7802 31.4622 29.6082C30.6166 28.8849 29.371 28.8366 28.4736 29.4834C27.2692 28.557 26.2191 28.5476 25.4441 28.5408C24.7436 28.5345 24.412 28.5314 24.047 28.02C24.0883 27.5596 24.1135 27.1038 24.1228 26.6523H45.3262C45.6984 26.6523 46 26.3507 46 25.9785C46 25.6063 45.6983 25.3048 45.3262 25.3048ZM13.5072 31.4763C13.3979 31.5258 13.2837 31.557 13.1676 31.5692C12.4502 31.6443 11.7756 31.981 11.2683 32.5173C11.0984 32.697 10.8923 32.8288 10.656 32.909C10.2553 33.0449 9.829 33.0099 9.45552 32.8108C9.08239 32.6118 8.81574 32.276 8.70469 31.8652C8.5091 31.1415 8.88114 30.3745 9.57016 30.0809C9.76197 29.9992 9.96619 29.9575 10.1702 29.9575C10.2407 29.9575 10.3112 29.9624 10.3812 29.9724C11.1587 30.0839 11.8868 29.9465 12.4873 29.5754C12.5566 29.5326 12.6312 29.4976 12.7094 29.4711C13.0002 29.3724 13.3204 29.4026 13.5881 29.5537C14.3563 29.9873 14.3062 31.1148 13.5072 31.4763ZM26.021 36.3881C26.3687 36.3881 26.7136 36.5554 26.916 36.8489C26.9842 36.948 27.0353 37.0549 27.0679 37.1667C27.2693 37.8594 27.7206 38.4634 28.3385 38.8672C28.5456 39.0025 28.7119 39.1819 28.8328 39.4003C29.0379 39.7704 29.0794 40.1962 28.9498 40.5992C28.8203 41.0016 28.5373 41.3237 28.1526 41.5062C27.4754 41.8274 26.6543 41.5977 26.2429 40.9717C26.0888 40.7373 26.002 40.4681 25.9921 40.1929C25.9634 39.4084 25.6987 38.7161 25.2268 38.191C25.1725 38.1304 25.1245 38.0631 25.0846 37.9909C24.9359 37.7223 24.9086 37.4018 25.0096 37.1116C25.1128 36.8155 25.3314 36.5877 25.6207 36.467C25.749 36.4135 25.8852 36.3881 26.021 36.3881ZM29.2363 30.5956C29.4245 30.4513 29.6555 30.3797 29.8867 30.3797C30.1383 30.3797 30.3899 30.4644 30.5862 30.6323C30.6776 30.7104 30.7543 30.8007 30.8145 30.9004H30.8146C31.1871 31.5182 31.7783 31.986 32.4791 32.2176C32.714 32.2952 32.9207 32.4259 33.0937 32.6059C33.3867 32.9109 33.5362 33.3116 33.5144 33.7344C33.4927 34.1568 33.3018 34.5409 32.9769 34.8158C32.4048 35.3001 31.5523 35.2888 30.994 34.7895C30.785 34.6025 30.632 34.3645 30.5515 34.1013C30.3224 33.3503 29.8889 32.749 29.2978 32.3624C29.2299 32.3182 29.1665 32.2655 29.1093 32.2059C28.8966 31.9846 28.7879 31.6818 28.8111 31.3753C28.8345 31.0649 28.9856 30.788 29.2363 30.5956ZM20.4385 36.0551C20.882 33.0969 21.223 29.6382 20.9101 26.6525H22.7749C22.7111 29.5485 21.9411 32.6543 20.4385 36.0551Z" fill="white"/>
</svg>
