<svg width="46" height="45" viewBox="0 0 46 45" fill="none" xmlns="http://www.w3.org/2000/svg">
<path d="M9.8481 0.000155761C7.51644 -0.0111413 5.25215 0.591175 3.26127 2.10363C1.18038 3.68448 0.0498629 6.73112 0.0498629 6.73112C0.015207 6.81819 -0.00169299 6.91116 0.000133759 7.0047C0.00196051 7.09824 0.022478 7.1905 0.0605077 7.27618C0.0985373 7.36186 0.15333 7.43928 0.221737 7.50398C0.290145 7.56869 0.37082 7.6194 0.459129 7.65322C0.459129 7.65322 0.94522 7.84019 1.49203 8.16179C2.03884 8.48339 2.59125 8.96394 2.7335 9.2875C2.77882 9.39061 2.84296 9.86632 2.81681 10.4938C2.79066 11.1214 2.71158 11.9135 2.64606 12.7848C2.51503 14.5276 2.42788 16.5935 3.01171 18.4883C3.75238 20.8921 5.08937 22.2555 6.42101 23.4413C7.75264 24.6271 9.06874 25.6628 10.1392 27.6098C10.7743 28.7649 10.8273 28.899 11.3442 29.996C11.384 30.0806 11.4403 30.1565 11.5099 30.2196C11.5795 30.2826 11.6609 30.3316 11.7496 30.3635C11.8383 30.3955 11.9325 30.4099 12.0269 30.4059C12.1212 30.4018 12.2138 30.3795 12.2994 30.3402C12.385 30.3008 12.4619 30.2452 12.5257 30.1765C12.5896 30.1078 12.6391 30.0273 12.6714 29.9397C12.7038 29.8521 12.7184 29.759 12.7143 29.6658C12.7102 29.5726 12.6877 29.4812 12.6478 29.3966C12.1337 28.3054 12.0447 28.0992 11.4028 26.9318C10.1967 24.7381 8.67141 23.5331 7.3837 22.3864C6.096 21.2397 5.0357 20.1788 4.38741 18.0748C3.90274 16.5018 3.95225 14.589 4.07999 12.8901C4.14386 12.0406 4.22463 11.246 4.25355 10.5523C4.28246 9.85853 4.29697 9.27837 4.05228 8.72178C3.6715 7.85565 2.88698 7.32937 2.22762 6.94158C2.01767 6.8181 1.85149 6.74225 1.67251 6.65382C2.11295 5.75838 3.03636 4.06632 4.13784 3.22952C6.89396 1.13572 10.2079 1.03369 13.6889 1.98786C17.1879 2.94691 18.6862 4.41427 20.8562 7.40466C22.1948 9.24935 22.5021 10.8978 22.7739 12.7079C23.0456 14.5181 23.267 16.4904 24.5029 18.6331C25.8404 20.952 26.1252 21.1753 27.5194 22.8772C27.1948 23.5225 26.8161 24.1147 26.1294 24.665C25.0525 25.528 24.235 25.8851 23.2775 26.19C22.32 26.4949 21.2083 26.732 19.7334 27.298C17.4416 28.1774 15.1099 29.3467 13.4592 31.0109C11.8085 32.6752 10.881 34.9351 11.5848 37.6037C12.2114 39.9795 13.7628 41.2936 13.9501 41.4462C13.9684 41.4646 13.9876 41.4821 14.0078 41.4985C14.0078 41.4985 14.0083 41.4989 14.0083 41.4989C16.5199 44.0724 20.4024 45.481 24.8498 44.8503C28.0707 44.3935 30.9418 42.9481 32.515 41.4625C33.6424 40.3978 34.2579 39.4045 34.73 38.4352C35.2021 37.4659 35.5419 36.5383 36.1815 35.4468C36.751 34.4753 37.5525 34.0311 38.6448 33.4769C39.7371 32.9226 41.0821 32.2862 42.3507 30.9495C44.2967 28.8992 46 26.3477 46 23.3925C46 21.979 45.5122 20.3714 45.0414 19.071C44.5804 17.7976 44.129 16.8519 44.11 16.8122C44.1069 16.8051 44.1038 16.798 44.1005 16.7909C44.0996 16.789 44.0987 16.787 44.0978 16.785C44.0971 16.7837 44.0965 16.7823 44.0958 16.781C44.0932 16.7758 44.0906 16.7706 44.0879 16.7654C44.0872 16.7641 44.0865 16.7627 44.0858 16.7614C44.0832 16.7563 44.0804 16.7512 44.0776 16.7462C44.0769 16.7449 44.0761 16.7436 44.0754 16.7423C44.0726 16.7374 44.0698 16.7325 44.0669 16.7277C44.0662 16.7265 44.0654 16.7252 44.0647 16.724C44.0646 16.7238 44.0644 16.7236 44.0643 16.7234C44.0614 16.7186 44.0584 16.7138 44.0553 16.709C44.0553 16.7089 44.0552 16.7088 44.0551 16.7087C44.0546 16.7079 44.0541 16.7072 44.0536 16.7064C44.0535 16.7062 44.0533 16.7059 44.0531 16.7057C44.053 16.7054 44.0528 16.7052 44.0527 16.705C44.0523 16.7044 44.052 16.7038 44.0516 16.7033C44.0511 16.7025 44.0506 16.7017 44.0501 16.7009C44.0479 16.6975 44.0456 16.6941 44.0434 16.6907C44.0432 16.6906 44.0431 16.6905 44.043 16.6903C44.0426 16.6898 44.0422 16.6892 44.0419 16.6887C44.0414 16.688 44.041 16.6873 44.0405 16.6866C44.0389 16.6844 44.0373 16.6822 44.0357 16.68C44.0352 16.6794 44.0348 16.6788 44.0344 16.6781C44.0331 16.6764 44.0319 16.6747 44.0306 16.673C44.0306 16.6728 44.0305 16.6727 44.0304 16.6726C44.0295 16.6714 44.0286 16.6701 44.0276 16.6689C44.0264 16.6673 44.0253 16.6658 44.0241 16.6643C44.0219 16.6613 44.0197 16.6583 44.0175 16.6554C44.0174 16.6553 44.0173 16.6551 44.0171 16.655C44.0162 16.6538 44.0153 16.6527 44.0143 16.6515C44.014 16.6511 44.0137 16.6508 44.0134 16.6504C44.013 16.6499 44.0126 16.6494 44.0123 16.6489C44.0121 16.6487 44.0119 16.6485 44.0117 16.6484C44.0099 16.6459 44.008 16.6435 44.0061 16.6411C44.006 16.6411 44.0037 16.6385 44.0037 16.6384C44.0036 16.6383 44.0035 16.6381 44.0035 16.638C44.0034 16.6379 44.0033 16.6379 44.0033 16.6378C43.978 16.6044 42.6859 14.9035 41.1431 14.1373C39.9632 13.5513 38.5503 13.5924 37.4073 13.7158C36.2643 13.8392 35.366 14.0877 35.366 14.0877C35.2685 14.1146 35.1778 14.1616 35.0999 14.2255C35.022 14.2895 34.9587 14.369 34.9141 14.4588C34.8695 14.5485 34.8445 14.6466 34.8409 14.7466C34.8374 14.8466 34.8552 14.9462 34.8933 15.0389C34.8933 15.0389 35.2506 16.0697 34.909 16.7867C34.5994 17.4367 34.092 17.6807 33.2815 17.9311C32.471 18.1815 31.426 18.3537 30.4432 18.9366C29.2522 19.6429 28.6463 20.5716 28.2035 21.4556C27.2827 20.3516 26.8864 19.8963 25.7522 17.93C24.6663 16.0472 24.473 14.3437 24.1962 12.4995C23.9193 10.6553 23.5442 8.67101 22.0248 6.57725C19.7928 3.50145 17.8551 1.65589 14.0733 0.619325C12.6703 0.234756 11.2471 0.00693403 9.8481 0.000155761ZM9.20406 3.3072C8.95452 3.31495 8.69798 3.33464 8.45742 3.37322C7.41408 3.54056 6.22293 4.13609 6.22293 4.13609C6.13772 4.17626 6.06136 4.23263 5.99821 4.30196C5.93505 4.37129 5.88634 4.45223 5.85486 4.54015C5.82337 4.62808 5.80973 4.72127 5.81471 4.81441C5.81969 4.90754 5.84319 4.9988 5.88387 5.08296C5.92455 5.16713 5.98161 5.24256 6.05179 5.30494C6.12198 5.36732 6.20392 5.41544 6.29293 5.44654C6.38194 5.47764 6.47629 5.49112 6.57057 5.4862C6.66486 5.48128 6.75724 5.45807 6.84244 5.41788C6.84244 5.41788 8.0656 4.87485 8.68789 4.77504C9.26186 4.68299 10.4923 4.78059 10.4923 4.78059C10.682 4.79966 10.8716 4.74352 11.0194 4.62453C11.1671 4.50554 11.261 4.33343 11.2803 4.14607C11.2996 3.95871 11.2428 3.77145 11.1224 3.62547C11.0019 3.47949 10.8277 3.38676 10.638 3.36767C10.638 3.36767 9.95265 3.28394 9.20406 3.3072ZM15.435 7.3514C15.3011 7.35182 15.17 7.38916 15.0564 7.45921C14.9429 7.52927 14.8514 7.62925 14.7922 7.7479C14.7506 7.83158 14.726 7.92255 14.7199 8.01562C14.7138 8.10869 14.7263 8.20203 14.7567 8.29031C14.7871 8.3786 14.8349 8.4601 14.8972 8.53017C14.9595 8.60023 15.0352 8.65749 15.1199 8.69866C15.1199 8.69866 15.6142 8.93915 16.2273 9.31099C16.8404 9.68283 17.5632 10.1975 17.9411 10.6268C17.9411 10.6269 17.9411 10.6269 17.9411 10.627C18.4191 11.1699 18.8796 12.1818 19.1757 13.0377C19.4717 13.8935 19.6229 14.5804 19.6229 14.5804C19.643 14.6715 19.681 14.7579 19.7348 14.8345C19.7887 14.9111 19.8572 14.9765 19.9367 15.0269C20.0161 15.0774 20.1048 15.1119 20.1977 15.1285C20.2906 15.145 20.3859 15.1434 20.4782 15.1236C20.5704 15.1038 20.6578 15.0662 20.7354 15.013C20.813 14.9598 20.8792 14.8921 20.9302 14.8137C20.9813 14.7352 21.0162 14.6476 21.033 14.5558C21.0498 14.464 21.0481 14.3699 21.028 14.2788C21.028 14.2788 20.8603 13.5151 20.5364 12.5785C20.2124 11.6418 19.752 10.5194 19.0261 9.69492C18.4521 9.04299 17.6518 8.50813 16.9797 8.10058C16.3077 7.69303 15.7547 7.42426 15.7547 7.42426C15.6553 7.37595 15.5458 7.35101 15.435 7.3514ZM6.91621 11.1467C6.73317 11.1465 6.55696 11.2153 6.42351 11.3391C6.29006 11.4628 6.20942 11.6322 6.19803 11.8126C6.19803 11.8126 6.14316 12.6822 6.19222 13.7918C6.24129 14.9015 6.37528 16.2559 6.8402 17.3615C7.44089 18.7901 8.82194 20.3944 8.82194 20.3944C8.94315 20.5398 9.11786 20.6317 9.30763 20.6498C9.4974 20.6679 9.68669 20.6109 9.83387 20.4912C9.98103 20.3714 10.074 20.1989 10.0924 20.0114C10.1108 19.8239 10.053 19.637 9.93179 19.4916C9.93179 19.4916 8.59899 17.8413 8.16816 16.8167C7.83472 16.0237 7.6744 14.7617 7.62878 13.7299C7.58315 12.698 7.63308 11.9008 7.63308 11.9008C7.64492 11.7129 7.58068 11.5279 7.45449 11.3868C7.3283 11.2456 7.15051 11.1597 6.96021 11.148C6.94556 11.1471 6.93089 11.1467 6.91621 11.1467ZM38.3529 15.0762C39.1574 15.0577 39.9732 15.1459 40.4972 15.4061C41.4811 15.8948 42.7612 17.39 42.8369 17.4787C42.8571 17.5214 42.9271 17.6755 43.0252 17.8972C43.1264 18.1872 43.2362 18.6141 43.2731 19.1707C43.3007 19.5854 43.285 20.0641 43.1842 20.5973C43.1145 20.3811 43.0395 20.1643 42.9288 19.9513C42.2074 18.5635 40.7625 17.1423 40.7625 17.1423C40.6591 17.0376 40.5254 16.9671 40.3799 16.9402C40.2343 16.9134 40.0839 16.9316 39.9492 16.9923C39.9492 16.9923 38.6589 17.5746 37.1617 18.2989C35.6644 19.0232 33.9869 19.8653 33.0684 20.4967C32.0004 21.2309 31.1556 22.1906 30.7091 23.3096C30.2625 24.4286 30.2407 25.7137 30.7903 26.9503C31.5784 28.7233 32.8939 29.5077 34.0626 29.7365C33.397 30.427 32.9748 31.0569 32.6788 31.6471C32.2755 30.1573 31.4394 28.7001 31.4394 28.7001C31.3781 28.593 31.2897 28.5034 31.1828 28.4401C31.0759 28.3768 30.9542 28.3421 30.8296 28.3393C30.8296 28.3393 27.7873 28.2581 26.7117 28.3414C26.7116 28.3414 26.7116 28.3414 26.7115 28.3414C24.6226 28.5032 22.6608 28.9256 20.1829 30.0711C18.5642 30.8194 16.6115 32.0284 15.4275 33.7643C14.2435 35.5002 13.9828 37.8804 15.7722 40.2883C16.0748 40.6956 16.4623 41.0001 16.8912 41.2426C16.882 41.2403 16.8696 41.2396 16.8605 41.2374C15.5298 40.9088 14.9195 40.4002 14.9192 40.4L14.919 40.3998C14.9187 40.3996 14.9184 40.3993 14.9181 40.3991C14.9172 40.3983 14.9163 40.3976 14.9154 40.3969C14.9142 40.3959 14.9129 40.3949 14.9117 40.3939C14.9113 40.3936 14.9109 40.3934 14.9106 40.3932C14.91 40.3927 14.9094 40.3923 14.9089 40.3919C14.9089 40.3919 14.9076 40.3908 14.9076 40.3907C14.9036 40.3877 13.5193 39.3048 12.9762 37.2457C12.3931 35.0349 13.0798 33.4229 14.4863 32.0048C15.8928 30.5867 18.0614 29.4633 20.2541 28.6219C21.6268 28.0951 22.6655 27.877 23.7186 27.5417C24.7716 27.2064 25.8245 26.7382 27.0352 25.768C28.0715 24.9374 28.5905 23.9915 28.9921 23.1358C29.0129 23.0996 29.0304 23.0616 29.0445 23.0224C29.1184 22.8625 29.1951 22.6988 29.2641 22.5478C29.7149 21.5619 30.0892 20.803 31.1833 20.1542C31.1834 20.1542 31.1834 20.1542 31.1835 20.1542C31.8681 19.7482 32.7755 19.5756 33.7108 19.2867C34.646 18.9978 35.6781 18.508 36.21 17.3914V17.3913C36.578 16.6187 36.5492 15.8599 36.4483 15.3055C36.7587 15.2439 37.1225 15.1754 37.5634 15.1278C37.8179 15.1003 38.0848 15.0824 38.3529 15.0762ZM40.0679 18.5086C40.4591 18.9342 41.2358 19.8037 41.6497 20.6001C42.2947 21.8411 41.7119 23.6431 41.6435 23.8452C39.2115 27.0909 38.0267 27.0926 36.2656 28.1348C36.2599 28.1372 35.537 28.445 34.6639 28.3865C33.7874 28.3277 32.8287 28.0032 32.1069 26.3792C31.7044 25.4737 31.7259 24.6344 32.0468 23.8304C32.3676 23.0264 33.0139 22.2646 33.8898 21.6626C34.6097 21.1676 36.3165 20.2892 37.7941 19.5744C39.0147 18.984 39.7283 18.6631 40.0679 18.5086ZM16.8682 19.2329C16.7262 19.2314 16.587 19.2715 16.4681 19.3481C16.389 19.399 16.3208 19.4649 16.2675 19.5419C16.2142 19.6188 16.1767 19.7054 16.1573 19.7967C16.1378 19.888 16.1368 19.9822 16.1542 20.0738C16.1716 20.1655 16.2071 20.2529 16.2587 20.331L19.0575 24.5698C19.1617 24.7275 19.325 24.8379 19.5116 24.8767C19.6982 24.9154 19.8927 24.8794 20.0524 24.7765C20.2121 24.6736 20.3239 24.5123 20.3632 24.328C20.4025 24.1437 20.3661 23.9515 20.2619 23.7938L17.463 19.555C17.3983 19.4571 17.3102 19.3765 17.2064 19.3203C17.1027 19.2641 16.9865 19.2341 16.8682 19.2329ZM44.3437 21.7913C44.4716 22.3697 44.5621 22.9289 44.5621 23.3925C44.5621 25.7999 43.1242 28.058 41.3017 29.9782C40.2217 31.1162 39.1056 31.6463 37.9879 32.2134C36.8701 32.7805 35.7124 33.4126 34.9373 34.7352C34.2324 35.9379 33.865 36.9352 33.4343 37.8194C33.0036 38.7036 32.5205 39.4924 31.5214 40.4359C30.2612 41.6259 27.5499 43.0325 24.6455 43.4444C22.4616 43.7541 20.477 43.5126 18.7612 42.8841C20.045 42.8951 21.5668 42.6807 23.305 42.0517C23.3053 42.0516 23.3056 42.0516 23.306 42.0515C23.3066 42.0513 23.3073 42.0511 23.308 42.0509C23.3081 42.0509 23.3083 42.0508 23.3084 42.0507C23.3146 42.0489 23.3208 42.047 23.3269 42.045C23.3277 42.0448 23.3285 42.0445 23.3294 42.0443C23.3356 42.0423 23.3417 42.0402 23.3479 42.038C23.3487 42.0377 23.3495 42.0374 23.3503 42.0371C23.3508 42.0369 23.3513 42.0367 23.3518 42.0365C23.3524 42.0363 23.3529 42.0361 23.3535 42.0359C23.3541 42.0357 23.3548 42.0354 23.3554 42.0352C23.3579 42.0342 23.3604 42.0332 23.3629 42.0322C23.3647 42.0316 23.3666 42.0309 23.3685 42.0302C23.3704 42.0295 23.3722 42.0287 23.3741 42.028C23.3791 42.026 23.384 42.024 23.3889 42.0219C23.3908 42.0211 23.3926 42.0203 23.3945 42.0195C23.3994 42.0174 23.4043 42.0152 23.4091 42.013C23.4109 42.0122 23.4127 42.0113 23.4145 42.0104C23.4152 42.0101 23.4159 42.0097 23.4166 42.0093C23.4169 42.0092 23.4172 42.0091 23.4175 42.0089C25.3984 41.2759 27.6497 40.0178 30.1568 37.9723C31.5406 36.8433 32.3189 35.7035 32.9048 34.6203C32.9054 34.6195 32.9059 34.6186 32.9065 34.6178C32.9065 34.6176 32.9066 34.6175 32.9067 34.6174C32.9072 34.6165 32.9077 34.6157 32.9082 34.6148C32.9115 34.6094 32.9149 34.604 32.9181 34.5985C32.921 34.5935 32.9239 34.5884 32.9267 34.5834C32.9274 34.5821 32.9281 34.5808 32.9288 34.5795C32.9289 34.5792 32.929 34.579 32.9291 34.5787C32.9296 34.578 32.93 34.5773 32.9304 34.5765C32.9325 34.5725 32.9346 34.5685 32.9366 34.5645C32.9367 34.5643 32.9369 34.5641 32.937 34.5639C32.9371 34.5639 32.9371 34.5638 32.9372 34.5638C32.9394 34.5593 32.9416 34.5549 32.9437 34.5504C32.9458 34.5461 32.9479 34.5417 32.9499 34.5373C32.953 34.5307 32.9559 34.524 32.9587 34.5173C32.9608 34.5124 32.9629 34.5075 32.9649 34.5025C33.4012 33.6722 33.6185 32.9911 33.9104 32.3822C34.2116 31.7538 34.5945 31.1531 35.4742 30.3409C35.7072 30.1258 36.5513 29.6215 36.9317 29.3914C36.9324 29.3911 36.9337 29.3903 36.9344 29.39C36.9345 29.3898 36.9346 29.3897 36.9347 29.3896C36.9348 29.3895 36.935 29.3895 36.9351 29.3894C36.9361 29.3888 36.9371 29.3882 36.9381 29.3876C36.9383 29.3874 36.9386 29.3873 36.9389 29.3872C38.4766 28.4575 40.1943 28.1852 42.8382 24.6404C42.8387 24.6398 42.8392 24.6394 42.8397 24.6387C42.84 24.6384 42.8402 24.638 42.8405 24.6376C42.8449 24.6324 42.8493 24.6271 42.8536 24.6217C42.8548 24.6202 42.8561 24.6187 42.8573 24.6171C42.8606 24.613 42.8638 24.6088 42.867 24.6045C42.8673 24.6042 42.8675 24.6038 42.8678 24.6034C42.8682 24.6029 42.8687 24.6023 42.8691 24.6018C42.8692 24.6015 42.8693 24.6013 42.8695 24.601C42.8696 24.6008 42.8699 24.6007 42.87 24.6005C42.8702 24.6002 42.8704 24.6 42.8706 24.5997C42.8744 24.5945 42.8782 24.5893 42.8818 24.584C42.8823 24.5833 42.8828 24.5826 42.8833 24.582C42.887 24.5767 42.8905 24.5713 42.894 24.5659C42.8945 24.5651 42.895 24.5644 42.8955 24.5637C42.8973 24.5608 42.899 24.558 42.9007 24.5552C42.9009 24.555 42.901 24.5549 42.9011 24.5548C43.614 23.5845 44.0658 22.6537 44.3437 21.7913ZM12.1331 22.6825C11.9911 22.6849 11.853 22.7288 11.7362 22.8086C11.5795 22.9158 11.4723 23.0802 11.4382 23.2655C11.4041 23.4508 11.4459 23.6419 11.5544 23.7967L12.3426 24.9213C12.4512 25.0762 12.6176 25.1821 12.8051 25.2158C12.9927 25.2494 13.1862 25.2081 13.343 25.1009C13.4997 24.9937 13.6069 24.8293 13.641 24.644C13.6751 24.4587 13.6333 24.2676 13.5248 24.1128L12.7366 22.9884C12.6692 22.8923 12.5789 22.8141 12.4737 22.7607C12.3684 22.7074 12.2514 22.6805 12.1331 22.6825ZM29.0898 29.7367C29.7626 29.7425 30.0952 29.749 30.3659 29.7535C30.5957 30.1872 31.1519 31.2701 31.3752 32.2857C31.573 33.1853 31.5747 33.8627 31.5727 34.062C31.049 35.0125 30.422 35.914 29.2412 36.8773C26.8468 38.831 24.7412 39.9981 22.9377 40.6689C22.8027 40.6813 21.6918 40.7796 20.351 40.6702C18.927 40.5539 17.4297 40.1187 16.9312 39.4479C15.4201 37.4145 15.683 35.9315 16.6199 34.5578C17.5568 33.1841 19.3224 32.037 20.7923 31.3575C23.1334 30.2753 24.8542 29.91 26.824 29.7574C27.1965 29.7286 28.1896 29.729 29.0898 29.7367Z" fill="white"/>
</svg>
