<svg width="46" height="46" viewBox="0 0 46 46" fill="none" xmlns="http://www.w3.org/2000/svg">
<path d="M38.8592 1.1181C28.3393 -0.372701 17.6607 -0.372701 7.14078 1.1181C0.812187 2.03125 0 3.19507 0 4.10464C0.00373698 4.28782 0.0448543 4.46833 0.120848 4.63516C0.196842 4.802 0.306121 4.95168 0.442031 5.07508L17.7891 31.2234V40.6306C17.7894 40.7615 17.8258 40.8898 17.8943 41.0016C17.9627 41.1133 18.0605 41.2042 18.1772 41.2645L27.1616 45.9197C27.271 45.9762 27.3931 46.0037 27.5162 45.9996C27.6394 45.9955 27.7594 45.9599 27.8648 45.8963C27.9701 45.8326 28.0573 45.7431 28.1179 45.6362C28.1786 45.5293 28.2106 45.4087 28.2109 45.2859V31.2234L45.558 5.08225C45.6944 4.95775 45.804 4.80686 45.88 4.63878C45.956 4.47071 45.9968 4.28896 46 4.10464C46 3.19507 45.1878 2.03125 38.8592 1.1181ZM26.7734 44.1077L19.2266 40.1973V38.568L26.7734 42.4784V44.1077ZM26.7734 40.9064L19.2266 36.9923V31.6782H26.7734V40.9064ZM27.1975 30.1634H18.8025L13.4298 22.0597C16.4234 22.2638 19.6973 22.3712 23 22.3712C26.3027 22.3712 29.5766 22.2638 32.5702 22.0597L27.1975 30.1634ZM33.5692 20.5485C30.3241 20.8027 26.68 20.9352 23 20.9352C19.32 20.9352 15.6759 20.7992 12.4308 20.5449L8.36266 14.4214C13.2215 14.9758 18.1095 15.2377 23 15.2057C27.8906 15.2365 32.7786 14.9734 37.6373 14.4179L33.5692 20.5485ZM38.6903 12.8315C34.5108 13.4403 28.962 13.7733 23 13.7733C17.038 13.7733 11.5 13.4367 7.30969 12.8279L2.94687 6.25323C4.32481 6.62422 5.72583 6.90415 7.14078 7.09118C11.3814 7.7071 17.0128 8.04372 23 8.04372C28.9872 8.04372 34.6186 7.7071 38.8592 7.09118C40.2742 6.90415 41.6752 6.62422 43.0531 6.25323L38.6903 12.8315ZM23 6.61132C10.4219 6.61132 2.46172 5.15745 1.48422 4.10464C2.46172 3.05183 10.4111 1.59795 23 1.59795C35.5889 1.59795 43.5383 3.05183 44.5158 4.10464C43.5383 5.15745 35.5853 6.61132 23 6.61132Z" fill="white"/>
</svg>
