<svg width="17" height="16" viewBox="0 0 17 16" fill="none" xmlns="http://www.w3.org/2000/svg">
<path d="M16.5603 5.73081L11.3084 4.97585L8.95871 0.280845C8.87406 0.108894 8.69562 0 8.49974 0C8.30387 0 8.12793 0.108902 8.04077 0.280845L5.69111 4.97585L0.439146 5.73081C0.245768 5.75783 0.0864094 5.89048 0.0250066 6.07471C-0.0347496 6.25731 0.014217 6.45791 0.154477 6.59221L3.95572 10.2481L3.05936 15.4108C3.02782 15.5991 3.10584 15.7899 3.26353 15.9038C3.42039 16.0167 3.6312 16.0315 3.80132 15.9414L8.49875 13.5013L13.1962 15.9372C13.2725 15.9749 13.353 15.9962 13.4344 15.9962C13.5406 15.9962 13.6468 15.9651 13.7365 15.8996C13.8933 15.7866 13.9747 15.5933 13.9406 15.4066L13.0443 10.244L16.8455 6.58802C16.9858 6.45374 17.0347 6.2523 16.975 6.07052C16.9103 5.89038 16.7509 5.75609 16.56 5.73071L16.5603 5.73081Z" fill="#FFBB05"/>
</svg>
