<svg width="18" height="18" viewBox="0 0 18 18" fill="none" xmlns="http://www.w3.org/2000/svg">
<path d="M17.8538 17.1468L12.2841 11.5771C13.35 10.349 13.9997 8.75064 13.9997 7.00032C13.9997 3.14064 10.8591 0 6.99938 0C3.14065 0 0 3.14064 0 7.00032C0 10.86 3.14065 14.0006 7.00034 14.0006C8.75067 14.0006 10.3491 13.35 11.5772 12.285L17.1469 17.8538C17.2444 17.9513 17.3728 18 17.5003 18C17.6278 18 17.7562 17.9513 17.8538 17.8538C18.0487 17.6578 18.0488 17.3418 17.8538 17.1468ZM7.00024 13.0003C3.68607 13.0003 1.00023 10.3145 1.00023 7.00032C1.00023 3.68616 3.68607 1.00032 7.00024 1.00032C10.3144 1.00032 13.0003 3.68616 13.0003 7.00032C13.0003 10.3135 10.3135 13.0003 7.00024 13.0003Z" fill="#0D401C"/>
</svg>
