<svg width="49" height="51" viewBox="0 0 49 51" fill="none" xmlns="http://www.w3.org/2000/svg">
<path fill-rule="evenodd" clip-rule="evenodd" d="M7.35262 32.4793C5.61001 26.5484 4.63738 19.1791 4.63738 10.401C4.63738 7.54074 6.47108 5.18549 9.55313 3.47121C13.6807 1.17259 20.1226 -0.00732422 26.574 -0.00732422C33.023 -0.00732422 39.4668 1.17259 43.5948 3.47121C46.6769 5.18781 48.5106 7.5408 48.5106 10.401C48.5106 22.3063 47.1005 31.0931 44.6381 37.3504C44.3762 38.0139 44.1051 38.6503 43.8204 39.2595C44.2509 39.6581 44.7612 39.9752 45.3261 40.1812C45.9753 40.419 46.4992 40.6138 46.4992 40.6138C46.9571 40.7813 47.26 41.2162 47.26 41.7008C47.26 42.1854 46.9571 42.6202 46.4992 42.7878C46.4992 42.7878 45.9753 42.9803 45.3261 43.2204C44.096 43.6733 43.1256 44.6381 42.67 45.861C42.4309 46.5064 42.235 47.0273 42.235 47.0273C42.0664 47.4825 41.629 47.7837 41.1416 47.7837C40.6541 47.7837 40.2167 47.4825 40.0482 47.0273C40.0482 47.0273 39.8545 46.5064 39.6131 45.861C39.5926 45.8044 39.5698 45.75 39.547 45.6934C35.9934 49.4029 31.5608 50.9701 26.572 50.9701C21.3305 50.9701 16.6994 48.6896 13.0547 44.1307L12.5148 45.5801C12.3463 46.0353 11.9089 46.3365 11.4214 46.3365C10.934 46.3365 10.4966 46.0353 10.328 45.5801C10.328 45.5801 9.43513 43.1819 8.71302 41.241C8.25744 40.0181 7.28706 39.0534 6.05697 38.6004C4.10477 37.8825 1.69247 36.9948 1.69247 36.9948C1.23461 36.8272 0.931641 36.3923 0.931641 35.9077C0.931641 35.4231 1.2346 34.9906 1.69247 34.8207C1.69247 34.8207 4.10477 33.933 6.05697 33.2151C6.53077 33.0407 6.96586 32.7893 7.34852 32.4791L7.35262 32.4793ZM42.3711 36.7459C42.403 36.6667 42.4349 36.5874 42.4668 36.5081C44.8517 30.4456 46.1798 21.9325 46.1798 10.4012C46.1798 8.32674 44.69 6.73694 42.4554 5.49133C38.6057 3.34896 32.5874 2.30946 26.574 2.30946C20.5606 2.30946 14.542 3.34896 10.6926 5.49133C8.45801 6.73462 6.96825 8.32668 6.96825 10.4012C6.96825 17.938 7.68808 24.397 9.02063 29.7575L10.3304 26.2382C10.499 25.783 10.9364 25.4818 11.4238 25.4818C11.9113 25.4818 12.3486 25.783 12.5172 26.2382C12.5172 26.2382 13.4101 28.6364 14.1323 30.5773C14.5878 31.8002 15.5582 32.7649 16.7883 33.2179C18.7405 33.9358 21.1528 34.8235 21.1528 34.8235C21.6107 34.9911 21.9136 35.426 21.9136 35.9106C21.9136 36.3952 21.6107 36.83 21.1528 36.9976C21.1528 36.9976 18.7405 37.8853 16.7883 38.6033C15.5582 39.0562 14.5879 40.0209 14.1323 41.2439L14.0229 41.5383C17.3122 46.2375 21.6038 48.6559 26.574 48.6559C31.025 48.6559 34.9433 47.202 38.0777 43.8254C37.7383 43.5763 37.3624 43.3725 36.9592 43.223C36.31 42.9829 35.7861 42.7904 35.7861 42.7904C35.3282 42.6228 35.0253 42.188 35.0253 41.7034C35.0253 41.2188 35.3282 40.784 35.7861 40.6164C35.7861 40.6164 36.31 40.4239 36.9592 40.1838C38.1893 39.7309 39.1596 38.7661 39.6153 37.5432C39.8544 36.8977 40.0503 36.3769 40.0503 36.3769C40.2189 35.9217 40.6563 35.6205 41.1437 35.6205C41.6312 35.6205 42.0685 35.9217 42.2371 36.3769L42.3761 36.7483L42.3711 36.7459ZM41.141 39.6605C41.6695 40.4804 42.3711 41.1756 43.1957 41.7032C42.3711 42.2286 41.6717 42.9262 41.141 43.746C40.6125 42.9261 39.9109 42.2309 39.0864 41.7032C39.911 41.1778 40.6103 40.4803 41.141 39.6605ZM30.1411 38.501C29.4259 39.7217 28.0956 40.546 26.5739 40.546C25.0523 40.546 23.722 39.7239 23.0067 38.501C22.6832 37.9484 21.9703 37.7605 21.4122 38.0821C20.8563 38.4036 20.6673 39.1125 20.9907 39.6673C22.1092 41.5787 24.1912 42.8628 26.5739 42.8628C28.9566 42.8628 31.0386 41.5764 32.157 39.6673C32.4805 39.1148 32.2914 38.4036 31.7356 38.0821C31.1798 37.7605 30.4645 37.9484 30.1433 38.501H30.1411ZM11.4233 29.9815L11.945 31.3834C12.6375 33.2404 14.109 34.7057 15.9792 35.3941L17.3892 35.9127L15.9792 36.4313C14.1113 37.1198 12.6375 38.5827 11.945 40.4421L11.4233 41.8439L10.9017 40.4421C10.2092 38.5851 8.73769 37.1198 6.86749 36.4313L5.45744 35.9127L6.86749 35.3941C8.73536 34.7057 10.2092 33.2427 10.9017 31.3834L11.4233 29.9815ZM23.733 22.9091V31.857C23.733 32.4957 24.2546 33.0165 24.8992 33.0165H28.2501C28.8925 33.0165 29.4164 32.4979 29.4164 31.857C29.4164 31.2184 28.8947 30.6975 28.2501 30.6975H26.0655V22.9091C26.0655 22.2704 25.5439 21.7496 24.8992 21.7496C24.2569 21.7496 23.733 22.2682 23.733 22.9091ZM33.5642 25.8984V25.8803C33.5642 25.0809 34.3273 24.8295 34.3273 24.8295L34.5414 24.7502C35.7715 24.2973 36.7419 23.3325 37.1975 22.1096C37.1975 22.1096 37.1907 22.1073 37.2772 21.8967C37.3615 21.6906 37.6189 21.2105 38.2385 21.1448L38.3729 21.1381L38.5073 21.1448C39.1269 21.2105 39.3843 21.6906 39.4685 21.8967C39.5551 22.1073 39.5483 22.1096 39.5483 22.1096C40.0038 23.3325 40.9742 24.2973 42.2043 24.7502L42.4184 24.8295C42.4184 24.8295 43.1838 25.0809 43.1815 25.8803V25.955C43.1815 26.7545 42.4184 27.0058 42.4184 27.0058L42.2043 27.0851C40.9742 27.538 40.0039 28.5028 39.5483 29.7257C39.5483 29.7257 39.5551 29.728 39.4685 29.9386C39.3843 30.1447 39.1268 30.6248 38.5073 30.6905L38.3729 30.6973L38.2385 30.6905C37.6189 30.6248 37.3615 30.1447 37.2772 29.9386C37.1907 29.728 37.1975 29.7257 37.1975 29.7257C36.7419 28.5028 35.7715 27.5381 34.5414 27.0851L34.3273 27.0058C34.3273 27.0058 33.5642 26.7545 33.5642 25.955V25.8984ZM37.1907 25.9324C37.6303 26.2766 38.0267 26.6706 38.3706 27.11L38.3729 27.1077L38.3752 27.11C38.7191 26.6706 39.1155 26.2766 39.5551 25.9324L39.5756 25.9165L39.5551 25.9007C39.1155 25.5564 38.7191 25.1624 38.3752 24.7231L38.3729 24.7253L38.3706 24.7231C38.0267 25.1624 37.6303 25.5565 37.1907 25.9007L37.1702 25.9165L37.1907 25.9324ZM32.4207 18.1874C34.7761 17.1072 37.1292 17.1072 39.4844 18.1874C40.0675 18.4547 40.7623 18.201 41.031 17.6213C41.2998 17.0415 41.0447 16.3508 40.4616 16.0836C37.4548 14.7021 34.4499 14.7021 31.4432 16.0836C30.8601 16.3508 30.6049 17.0415 30.8737 17.6213C31.1425 18.201 31.8376 18.4547 32.4207 18.1874ZM12.1447 18.1874C14.5001 17.1072 16.8532 17.1072 19.2084 18.1874C19.7915 18.4547 20.4863 18.201 20.7551 17.6213C21.0238 17.0415 20.7687 16.3508 20.1856 16.0836C17.1788 14.7021 14.1739 14.7021 11.1672 16.0836C10.5841 16.3508 10.329 17.0415 10.5978 17.6213C10.8666 18.201 11.5616 18.4547 12.1447 18.1874Z" fill="#0D401C"/>
</svg>
