<svg width="14" height="14" viewBox="0 0 14 14" fill="none" xmlns="http://www.w3.org/2000/svg">
<path fill-rule="evenodd" clip-rule="evenodd" d="M7 0C10.8655 0 14 3.13394 14 7C14 10.8661 10.8661 14 7 14C3.13453 14 0 10.8661 0 7C0 3.13394 3.13453 0 7 0ZM6.40247 3.95124V7.00044C6.40247 7.22149 6.5222 7.41434 6.70065 7.51796L9.27842 9.00711C9.56452 9.1729 9.93064 9.07504 10.0964 8.78893C10.2622 8.50283 10.1644 8.13671 9.87825 7.97092L7.59743 6.65382V3.95108C7.59743 3.62065 7.33033 3.35355 6.9999 3.35355C6.66947 3.35355 6.40236 3.62123 6.40236 3.95108L6.40247 3.95124ZM11.1016 2.89894C8.8364 0.633743 5.16428 0.633743 2.89908 2.89894C0.633876 5.16355 0.633876 8.83627 2.89908 11.1015C5.16369 13.3667 8.8364 13.3667 11.1016 11.1015C13.3668 8.83627 13.3668 5.16414 11.1016 2.89894Z" fill="#F8C32C"/>
</svg>
