<svg width="14" height="18" viewBox="0 0 14 18" fill="none" xmlns="http://www.w3.org/2000/svg">
<path fill-rule="evenodd" clip-rule="evenodd" d="M13.6978 16.7241C13.4258 17.4794 12.7154 17.9815 11.9255 17.9815C9.84233 18 4.16352 18 2.08012 18C1.2775 18 0.560013 17.4922 0.285572 16.7305C0.28239 16.7225 0.280004 16.7145 0.277617 16.7056C0.0994355 16.144 0 15.5647 0 14.9814C0 11.7153 3.10708 8.9988 7 8.9988C10.8929 8.9988 14 11.7153 14 14.9814C14 15.5719 13.8982 16.1585 13.6985 16.7217L13.6978 16.7241ZM12.5006 16.2854C12.6502 15.8636 12.7273 15.4249 12.7273 14.9814C12.7273 12.3533 10.1326 10.2844 7.00007 10.2844C3.86754 10.2844 1.2728 12.3533 1.2728 14.9814C1.2728 15.4281 1.35076 15.8708 1.48837 16.3087C1.58383 16.553 1.81849 16.7145 2.07938 16.7145C4.16116 16.7145 9.83345 16.7145 11.9144 16.696H11.9208C12.1801 16.696 12.4115 16.5321 12.5006 16.2854ZM7.00001 0C9.10724 0 10.8182 1.72824 10.8182 3.85662C10.8182 5.985 9.10718 7.71323 7.00001 7.71323C4.89284 7.71323 3.18183 5.985 3.18183 3.85662C3.18183 1.72824 4.89284 0 7.00001 0ZM7.00001 1.28554C5.59525 1.28554 4.45456 2.43771 4.45456 3.85662C4.45456 5.27552 5.59525 6.42769 7.00001 6.42769C8.40478 6.42769 9.54547 5.27552 9.54547 3.85662C9.54547 2.43771 8.40478 1.28554 7.00001 1.28554Z" fill="#0D401C"/>
</svg>
