<svg width="45" height="60" viewBox="0 0 45 60" fill="none" xmlns="http://www.w3.org/2000/svg">
<path d="M19.5452 60C14.3617 60 9.39 57.9471 5.72437 54.2925C2.05873 50.6379 0 45.6803 0 40.5125C0 36.0837 3.17542 28.8386 9.44031 18.9799C14.0562 11.716 18.736 5.62696 18.7819 5.56545C18.964 5.33053 19.2451 5.19171 19.545 5.19171C19.8422 5.19171 20.1233 5.33053 20.3054 5.56545C20.3429 5.6135 24.1234 10.5308 28.2254 16.7773C28.5146 17.2204 28.3914 17.8131 27.947 18.1041C27.5025 18.3924 26.9082 18.2696 26.619 17.8264C23.6471 13.2989 20.8464 9.4787 19.5454 7.73808C18.0434 9.7509 14.528 14.548 11.0524 20.0154C5.07366 29.423 1.91709 36.5106 1.91709 40.5119C1.91709 50.2025 9.82617 58.0882 19.5454 58.0882C29.2647 58.0882 37.1711 50.2025 37.1711 40.5119C37.1711 37.2471 35.0157 31.8067 30.9326 24.78H30.9353C30.7961 24.5584 30.7532 24.2915 30.8175 24.0406C30.8791 23.7896 31.0424 23.5734 31.2673 23.4453C31.4922 23.3145 31.7626 23.2824 32.0116 23.3518C32.2633 23.4239 32.4721 23.5948 32.5953 23.8217C36.9033 31.2454 39.0881 36.8596 39.0881 40.5144C39.0881 45.6826 37.0291 50.6369 33.3637 54.2917C29.6983 57.9463 24.7288 59.9992 19.5456 59.9992L19.5452 60Z" fill="white"/>
<path d="M19.5449 53.0833C12.5913 53.0833 6.93936 47.4426 6.93936 40.5122C6.93936 39.7354 7.34097 35.2318 15.2528 22.765C16.3318 21.0645 17.5099 19.2785 18.7549 17.4633L18.7522 17.466C18.9316 17.2044 19.2288 17.0495 19.5447 17.0495C19.8633 17.0495 20.1605 17.2044 20.3372 17.466C21.5822 19.2812 22.7603 21.0645 23.8393 22.7676C31.7511 35.2315 32.15 39.7351 32.15 40.5121C32.15 47.4425 26.4958 53.0833 19.5449 53.0833ZM19.5449 19.7115C18.6052 21.1051 17.7082 22.4719 16.8729 23.7906C8.94805 36.2763 8.85963 40.3446 8.85963 40.5127C8.85963 46.3911 13.6549 51.1697 19.5481 51.1697C25.4411 51.1697 30.2366 46.3859 30.2366 40.5127C30.2366 40.3445 30.1455 36.2762 22.2233 23.7879C21.3826 22.4718 20.4856 21.105 19.5459 19.7088L19.5449 19.7115Z" fill="white"/>
<path d="M19.5452 46.1639C19.0151 46.1639 18.584 45.7341 18.584 45.2082C18.584 44.6797 19.0151 44.2499 19.5452 44.2499C21.5184 44.2472 23.1543 42.7202 23.2855 40.7555C23.3203 40.2269 23.7755 39.8265 24.3056 39.8612C24.8331 39.8959 25.2347 40.3497 25.1999 40.8783C25.0018 43.8495 22.5305 46.1586 19.5452 46.1639Z" fill="white"/>
<path d="M35.728 26.2599C30.6168 26.2599 26.4563 22.1141 26.4563 17.0155C26.4563 16.4496 26.7455 13.1634 32.4296 4.20453C33.2007 2.98726 34.0441 1.71121 34.933 0.41378L34.9357 0.41645C35.1151 0.154838 35.4096 0 35.7282 0C36.0441 0 36.3413 0.154831 36.5206 0.41645C37.4122 1.71382 38.2529 2.98986 39.0267 4.2072C44.7136 13.1659 45 16.4496 45 17.0182C44.9973 22.1143 40.839 26.2599 35.728 26.2599ZM35.728 2.66415C35.1417 3.53972 34.5794 4.39937 34.052 5.22956C28.4427 14.0686 28.3759 16.9888 28.3759 17.0155C28.3759 21.0625 31.6664 24.3463 35.7284 24.3463C39.7874 24.3463 43.0809 21.0628 43.0809 17.0155C43.0809 16.9861 43.0113 14.0656 37.4048 5.22956C36.8773 4.39937 36.3144 3.53972 35.728 2.66415Z" fill="white"/>
<path d="M35.7276 21.4761C35.1974 21.4761 34.7664 21.049 34.7664 20.5204C34.7664 19.9919 35.1975 19.5621 35.7276 19.5621C37.0797 19.5621 38.1962 18.5129 38.2765 17.1649C38.3167 16.6443 38.7665 16.2519 39.2886 16.2812C39.8134 16.3106 40.215 16.7537 40.1936 17.2769C40.0543 19.6341 38.0971 21.4761 35.7276 21.4761Z" fill="white"/>
</svg>
